<?xml version="1.0" encoding="utf-8"?>
<!-- Generator: Adobe Illustrator 16.0.0, SVG Export Plug-In . SVG Version: 6.00 Build 0)  -->
<!DOCTYPE svg PUBLIC "-//W3C//DTD SVG 1.1//EN" "http://www.w3.org/Graphics/SVG/1.1/DTD/svg11.dtd">
<svg version="1.1" id="Layer_1" xmlns="http://www.w3.org/2000/svg" xmlns:xlink="http://www.w3.org/1999/xlink" x="0px" y="0px"
	 width="1440px" height="864px" viewBox="0 0 1440 864" enable-background="new 0 0 1440 864" xml:space="preserve">
<g>
	<g id="LINE_5050_">
		
			<polygon fill="none" stroke="#000000" stroke-width="0.25" stroke-linecap="round" stroke-linejoin="round" stroke-miterlimit="10" points="
			1162.687,298.216 1161.747,297.496 1161.026,296.556 1160.573,295.462 1160.419,294.289 1160.573,293.115 1161.026,292.021 
			1161.747,291.082 1162.687,290.361 1163.78,289.908 1164.954,289.753 1166.128,289.908 1167.222,290.361 1168.161,291.082 
			1168.882,292.021 1169.335,293.115 1169.489,294.289 1169.335,295.462 1168.882,296.556 1168.161,297.496 1167.222,298.216 
			1166.128,298.669 1164.954,298.824 1163.78,298.669 		"/>
	</g>
	<g id="LINE_5074_">
		
			<polygon fill="none" stroke="#000000" stroke-width="0.25" stroke-linecap="round" stroke-linejoin="round" stroke-miterlimit="10" points="
			1011.161,53.304 1011.315,54.478 1011.161,55.652 1010.708,56.746 1009.987,57.685 1009.048,58.406 1007.954,58.859 
			1006.78,59.013 1005.606,58.859 1004.513,58.406 1003.573,57.685 1002.853,56.746 1002.399,55.652 1002.245,54.478 
			1002.399,53.304 1002.853,52.21 1003.573,51.271 1004.513,50.55 1005.606,50.097 1006.78,49.942 1007.954,50.097 1009.048,50.55 
			1009.987,51.271 1010.708,52.21 		"/>
	</g>
	<g id="LINE_5098_">
		
			<polygon fill="none" stroke="#000000" stroke-width="0.25" stroke-linecap="round" stroke-linejoin="round" stroke-miterlimit="10" points="
			93.497,289.908 94.592,290.361 95.53,291.082 96.251,292.021 96.704,293.115 96.859,294.289 96.704,295.462 96.251,296.556 
			95.53,297.496 94.592,298.216 93.497,298.669 92.323,298.824 91.149,298.669 90.056,298.216 89.116,297.496 88.396,296.556 
			87.942,295.462 87.788,294.289 87.942,293.115 88.396,292.021 89.116,291.082 90.056,290.361 91.149,289.908 92.323,289.753 		"/>
	</g>
	<g id="LINE_5122_">
		
			<polygon fill="none" stroke="#000000" stroke-width="0.25" stroke-linecap="round" stroke-linejoin="round" stroke-miterlimit="10" points="
			271.062,55.652 270.907,54.478 271.062,53.304 271.515,52.21 272.235,51.271 273.175,50.55 274.269,50.097 275.442,49.942 
			276.616,50.097 277.71,50.55 278.649,51.271 279.37,52.21 279.823,53.304 279.978,54.478 279.823,55.652 279.37,56.746 
			278.649,57.685 277.71,58.406 276.616,58.859 275.442,59.013 274.269,58.859 273.175,58.406 272.235,57.685 271.515,56.746 		"/>
	</g>
	<g id="LINE_5146_">
		
			<polygon fill="none" stroke="#000000" stroke-width="0.25" stroke-linecap="round" stroke-linejoin="round" stroke-miterlimit="10" points="
			819.735,296.556 819.282,295.462 819.127,294.289 819.282,293.115 819.735,292.021 820.456,291.082 821.396,290.361 
			822.489,289.908 823.663,289.753 824.837,289.908 825.931,290.361 826.87,291.082 827.591,292.021 828.044,293.115 
			828.198,294.289 828.044,295.462 827.591,296.556 826.87,297.496 825.931,298.216 824.837,298.669 823.663,298.824 
			822.489,298.669 821.396,298.216 820.456,297.496 		"/>
	</g>
	<g id="LINE_5170_">
		
			<polygon fill="none" stroke="#000000" stroke-width="0.25" stroke-linecap="round" stroke-linejoin="round" stroke-miterlimit="10" points="
			636.73,53.304 637.184,52.21 637.904,51.271 638.844,50.55 639.938,50.097 641.111,49.942 642.285,50.097 643.379,50.55 
			644.318,51.271 645.039,52.21 645.492,53.304 645.647,54.478 645.492,55.652 645.039,56.746 644.318,57.685 643.379,58.406 
			642.285,58.859 641.111,59.013 639.938,58.859 638.844,58.406 637.904,57.685 637.184,56.746 636.73,55.652 636.575,54.478 		"/>
	</g>
	<g id="LINE_5174_">
		
			<rect x="450.623" y="57.312" fill="none" stroke="#000000" stroke-width="0.25" stroke-linecap="round" stroke-linejoin="round" stroke-miterlimit="10" width="14.74" height="7.37"/>
	</g>
	<g id="LINE_5178_">
		
			<rect x="816.292" y="57.312" fill="none" stroke="#000000" stroke-width="0.25" stroke-linecap="round" stroke-linejoin="round" stroke-miterlimit="10" width="14.74" height="7.37"/>
	</g>
	<g id="LINE_5202_">
		
			<polygon fill="none" stroke="#000000" stroke-width="0.25" stroke-linecap="round" stroke-linejoin="round" stroke-miterlimit="10" points="
			965.679,389.198 965.823,388.097 966.247,387.072 966.923,386.191 967.804,385.515 968.829,385.09 969.931,384.946 971.03,385.09 
			972.056,385.515 972.937,386.191 973.612,387.072 974.037,388.097 974.183,389.198 974.037,390.298 973.612,391.324 
			972.937,392.205 972.056,392.88 971.03,393.305 969.931,393.45 968.829,393.305 967.804,392.88 966.923,392.205 966.247,391.324 
			965.823,390.298 		"/>
	</g>
	<g id="LINE_5206_">
		
			<rect x="84.954" y="57.312" fill="none" stroke="#000000" stroke-width="0.25" stroke-linecap="round" stroke-linejoin="round" stroke-miterlimit="10" width="14.74" height="7.37"/>
	</g>
	<g id="LINE_5231_">
		
			<polygon fill="none" stroke="#000000" stroke-width="0.25" stroke-linecap="round" stroke-linejoin="round" stroke-miterlimit="10" points="
			698.767,386.191 699.646,385.515 700.672,385.09 701.772,384.946 702.873,385.09 703.898,385.515 704.779,386.191 
			705.455,387.072 705.88,388.097 706.024,389.198 705.88,390.298 705.455,391.324 704.779,392.205 703.898,392.88 702.873,393.305 
			701.772,393.45 700.672,393.305 699.646,392.88 698.767,392.205 698.091,391.324 697.665,390.298 697.521,389.198 
			697.521,388.978 697.665,388.097 698.091,387.072 		"/>
	</g>
	<g id="LINE_5235_">
		
			<rect x="1157.583" y="57.312" fill="none" stroke="#000000" stroke-width="0.25" stroke-linecap="round" stroke-linejoin="round" stroke-miterlimit="10" width="14.74" height="7.37"/>
	</g>
	<g id="LINE_5259_">
		
			<polygon fill="none" stroke="#000000" stroke-width="0.25" stroke-linecap="round" stroke-linejoin="round" stroke-miterlimit="10" points="
			56.673,104.504 57.554,103.829 58.579,103.404 59.68,103.259 60.78,103.404 61.806,103.829 62.687,104.504 63.362,105.385 
			63.786,106.411 63.932,107.511 63.786,108.612 63.362,109.637 62.687,110.517 61.806,111.193 60.78,111.618 59.68,111.763 
			58.579,111.618 57.554,111.193 56.673,110.517 55.997,109.637 55.572,108.612 55.428,107.511 55.572,106.411 55.997,105.385 		"/>
	</g>
	<g id="LINE_5263_">
		
			<polyline fill="none" stroke="#000000" stroke-width="0.25" stroke-linecap="round" stroke-linejoin="round" stroke-miterlimit="10" points="
			867.663,413.911 867.663,396.348 877.173,396.348 877.173,413.911 		"/>
	</g>
	<g id="LINE_5267_">
		
			<polyline fill="none" stroke="#000000" stroke-width="0.25" stroke-linecap="round" stroke-linejoin="round" stroke-miterlimit="10" points="
			843.285,413.911 843.285,396.348 852.796,396.348 852.796,413.911 		"/>
	</g>
	<g id="LINE_5273_">
		
			<polyline fill="none" stroke="#000000" stroke-width="0.25" stroke-linecap="round" stroke-linejoin="round" stroke-miterlimit="10" points="
			794.529,413.911 794.529,396.348 804.04,396.348 804.04,413.911 		"/>
	</g>
	<g id="LINE_5277_">
		
			<polyline fill="none" stroke="#000000" stroke-width="0.25" stroke-linecap="round" stroke-linejoin="round" stroke-miterlimit="10" points="
			770.151,413.911 770.151,396.348 779.661,396.348 779.661,413.911 		"/>
	</g>
	<g id="LINE_5281_">
		
			<polyline fill="none" stroke="#000000" stroke-width="0.25" stroke-linecap="round" stroke-linejoin="round" stroke-miterlimit="10" points="
			745.773,413.911 745.773,396.348 755.284,396.348 755.284,413.911 		"/>
	</g>
	<g id="LINE_5285_">
		
			<polyline fill="none" stroke="#000000" stroke-width="0.25" stroke-linecap="round" stroke-linejoin="round" stroke-miterlimit="10" points="
			721.396,413.911 721.396,396.348 730.905,396.348 730.905,413.911 		"/>
	</g>
	<g id="LINE_5289_">
		
			<polyline fill="none" stroke="#000000" stroke-width="0.25" stroke-linecap="round" stroke-linejoin="round" stroke-miterlimit="10" points="
			697.018,413.911 697.018,396.348 706.528,396.348 706.528,413.911 		"/>
	</g>
	<g id="LINE_5293_">
		
			<polyline fill="none" stroke="#000000" stroke-width="0.25" stroke-linecap="round" stroke-linejoin="round" stroke-miterlimit="10" points="
			672.64,413.911 672.64,396.348 682.149,396.348 682.149,413.911 		"/>
	</g>
	<g id="LINE_5297_">
		
			<polyline fill="none" stroke="#000000" stroke-width="0.25" stroke-linecap="round" stroke-linejoin="round" stroke-miterlimit="10" points="
			648.262,413.911 648.262,396.348 657.772,396.348 657.772,413.911 		"/>
	</g>
	<g id="LINE_5301_">
		
			<polyline fill="none" stroke="#000000" stroke-width="0.25" stroke-linecap="round" stroke-linejoin="round" stroke-miterlimit="10" points="
			623.884,413.911 623.884,396.348 633.394,396.348 633.394,413.911 		"/>
	</g>
	<g id="LINE_5305_">
		
			<polyline fill="none" stroke="#000000" stroke-width="0.25" stroke-linecap="round" stroke-linejoin="round" stroke-miterlimit="10" points="
			599.506,413.911 599.506,396.348 609.017,396.348 609.017,413.911 		"/>
	</g>
	<g id="LINE_5309_">
		
			<polyline fill="none" stroke="#000000" stroke-width="0.25" stroke-linecap="round" stroke-linejoin="round" stroke-miterlimit="10" points="
			575.128,413.911 575.128,396.348 584.638,396.348 584.638,413.911 		"/>
	</g>
	<g id="LINE_5312_">
		
			<polyline fill="none" stroke="#000000" stroke-width="0.25" stroke-linecap="round" stroke-linejoin="round" stroke-miterlimit="10" points="
			818.907,413.911 818.907,396.348 828.417,396.348 828.417,413.911 		"/>
	</g>
	<g id="LINE_5328_">
		
			<polyline fill="none" stroke="#000000" stroke-width="0.25" stroke-linecap="round" stroke-linejoin="round" stroke-miterlimit="10" points="
			1160.198,413.911 1160.198,396.348 1169.709,396.348 1169.709,413.911 		"/>
	</g>
	<g id="LINE_5332_">
		
			<polyline fill="none" stroke="#000000" stroke-width="0.25" stroke-linecap="round" stroke-linejoin="round" stroke-miterlimit="10" points="
			1135.821,413.911 1135.821,396.348 1145.331,396.348 1145.331,413.911 		"/>
	</g>
	<g id="LINE_5336_">
		
			<polyline fill="none" stroke="#000000" stroke-width="0.25" stroke-linecap="round" stroke-linejoin="round" stroke-miterlimit="10" points="
			1111.442,413.911 1111.442,396.348 1120.953,396.348 1120.953,413.911 		"/>
	</g>
	<g id="LINE_5340_">
		
			<polyline fill="none" stroke="#000000" stroke-width="0.25" stroke-linecap="round" stroke-linejoin="round" stroke-miterlimit="10" points="
			1087.065,413.911 1087.065,396.348 1096.575,396.348 1096.575,413.911 		"/>
	</g>
	<g id="LINE_5344_">
		
			<polyline fill="none" stroke="#000000" stroke-width="0.25" stroke-linecap="round" stroke-linejoin="round" stroke-miterlimit="10" points="
			1062.687,413.911 1062.687,396.348 1072.196,396.348 1072.196,413.911 		"/>
	</g>
	<g id="LINE_5348_">
		
			<polyline fill="none" stroke="#000000" stroke-width="0.25" stroke-linecap="round" stroke-linejoin="round" stroke-miterlimit="10" points="
			1038.31,413.911 1038.31,396.348 1047.819,396.348 1047.819,413.911 		"/>
	</g>
	<g id="LINE_5352_">
		
			<polyline fill="none" stroke="#000000" stroke-width="0.25" stroke-linecap="round" stroke-linejoin="round" stroke-miterlimit="10" points="
			1013.931,413.911 1013.931,396.348 1023.44,396.348 1023.44,413.911 		"/>
	</g>
	<g id="LINE_5356_">
		
			<polyline fill="none" stroke="#000000" stroke-width="0.25" stroke-linecap="round" stroke-linejoin="round" stroke-miterlimit="10" points="
			989.554,413.911 989.554,396.348 999.063,396.348 999.063,413.911 		"/>
	</g>
	<g id="LINE_5360_">
		
			<polyline fill="none" stroke="#000000" stroke-width="0.25" stroke-linecap="round" stroke-linejoin="round" stroke-miterlimit="10" points="
			965.175,413.911 965.175,396.348 974.685,396.348 974.685,413.911 		"/>
	</g>
	<g id="LINE_5364_">
		
			<polyline fill="none" stroke="#000000" stroke-width="0.25" stroke-linecap="round" stroke-linejoin="round" stroke-miterlimit="10" points="
			940.798,413.911 940.798,396.348 950.308,396.348 950.308,413.911 		"/>
	</g>
	<g id="LINE_5368_">
		
			<polyline fill="none" stroke="#000000" stroke-width="0.25" stroke-linecap="round" stroke-linejoin="round" stroke-miterlimit="10" points="
			916.419,413.911 916.419,396.348 925.929,396.348 925.929,413.911 		"/>
	</g>
	<g id="LINE_5372_">
		
			<polyline fill="none" stroke="#000000" stroke-width="0.25" stroke-linecap="round" stroke-linejoin="round" stroke-miterlimit="10" points="
			892.042,413.911 892.042,396.348 901.552,396.348 901.552,413.911 		"/>
	</g>
	<g id="LINE_5377_">
		
			<polyline fill="none" stroke="#000000" stroke-width="0.25" stroke-linecap="round" stroke-linejoin="round" stroke-miterlimit="10" points="
			477.616,413.911 477.616,396.348 487.126,396.348 487.126,413.911 		"/>
	</g>
	<g id="LINE_5386_">
		
			<polyline fill="none" stroke="#000000" stroke-width="0.25" stroke-linecap="round" stroke-linejoin="round" stroke-miterlimit="10" points="
			550.75,413.911 550.75,396.348 560.261,396.348 560.261,413.911 		"/>
	</g>
	<g id="LINE_5390_">
		
			<polyline fill="none" stroke="#000000" stroke-width="0.25" stroke-linecap="round" stroke-linejoin="round" stroke-miterlimit="10" points="
			526.372,413.911 526.372,396.348 535.882,396.348 535.882,413.911 		"/>
	</g>
	<g id="LINE_5393_">
		
			<polyline fill="none" stroke="#000000" stroke-width="0.25" stroke-linecap="round" stroke-linejoin="round" stroke-miterlimit="10" points="
			501.994,413.911 501.994,396.348 511.504,396.348 511.504,413.911 		"/>
	</g>
	<g id="LINE_5417_">
		
			<polygon fill="none" stroke="#000000" stroke-width="0.25" stroke-linecap="round" stroke-linejoin="round" stroke-miterlimit="10" points="
			479.364,392.205 478.688,391.324 478.265,390.298 478.119,389.198 478.265,388.097 478.688,387.072 479.364,386.191 
			480.245,385.515 481.271,385.09 482.371,384.946 483.472,385.09 484.497,385.515 485.378,386.191 486.054,387.072 
			486.478,388.097 486.623,389.198 486.478,390.298 486.054,391.324 485.378,392.205 484.497,392.88 483.472,393.305 
			482.371,393.45 481.271,393.305 480.245,392.88 		"/>
	</g>
	<g id="LINE_5441_">
		
			<polygon fill="none" stroke="#000000" stroke-width="0.25" stroke-linecap="round" stroke-linejoin="round" stroke-miterlimit="10" points="
			455.726,298.216 454.786,297.496 454.065,296.556 453.612,295.462 453.458,294.289 453.612,293.115 454.065,292.021 
			454.786,291.082 455.726,290.361 456.819,289.908 457.993,289.753 459.167,289.908 460.261,290.361 461.2,291.082 
			461.921,292.021 462.374,293.115 462.528,294.289 462.374,295.462 461.921,296.556 461.2,297.496 460.261,298.216 
			459.167,298.669 457.993,298.824 456.819,298.669 		"/>
	</g>
	<g id="LINE_5445_">
		
			<polygon fill="none" stroke="#000000" stroke-width="0.25" stroke-linecap="round" stroke-linejoin="round" stroke-miterlimit="10" points="
			919.048,392.88 918.167,392.205 917.491,391.324 917.067,390.298 916.923,389.198 916.923,388.978 917.067,388.097 
			917.491,387.072 918.167,386.191 919.048,385.515 920.073,385.09 921.175,384.946 922.274,385.09 923.3,385.515 924.181,386.191 
			924.856,387.072 925.281,388.097 925.427,389.198 925.281,390.298 924.856,391.324 924.181,392.205 923.3,392.88 922.274,393.305 
			921.175,393.45 920.073,393.305 		"/>
	</g>
	<g id="LINE_4218_">
		
			<polygon fill="none" stroke="#000000" stroke-width="0.25" stroke-linecap="round" stroke-linejoin="round" stroke-miterlimit="10" points="
			65.396,670.135 66.489,670.588 67.663,670.742 68.837,670.588 69.931,670.135 70.87,669.414 71.591,668.475 72.044,667.381 
			72.198,666.207 72.044,665.033 71.591,663.939 70.87,663 69.931,662.279 68.837,661.826 67.663,661.672 66.489,661.826 
			65.396,662.279 64.456,663 63.735,663.939 63.282,665.033 63.128,666.207 63.282,667.381 63.735,668.475 64.456,669.414 		"/>
	</g>
	<g id="LINE_4242_">
		
			<polygon fill="none" stroke="#000000" stroke-width="0.25" stroke-linecap="round" stroke-linejoin="round" stroke-miterlimit="10" points="
			1137.086,669.414 1138.025,670.135 1139.119,670.588 1140.293,670.742 1141.467,670.588 1142.561,670.135 1143.5,669.414 
			1144.221,668.475 1144.674,667.381 1144.828,666.207 1144.674,665.033 1144.221,663.939 1143.5,663 1142.561,662.279 
			1141.467,661.826 1140.293,661.672 1139.119,661.826 1138.025,662.279 1137.086,663 1136.365,663.939 1135.912,665.033 
			1135.758,666.207 1135.912,667.381 1136.365,668.475 		"/>
	</g>
	<g id="LINE_4266_">
		
			<polygon fill="none" stroke="#000000" stroke-width="0.25" stroke-linecap="round" stroke-linejoin="round" stroke-miterlimit="10" points="
			221.908,424.128 221.455,425.223 221.301,426.397 221.455,427.571 221.908,428.665 222.629,429.604 223.568,430.325 
			224.662,430.778 225.836,430.932 227.01,430.778 228.105,430.325 229.043,429.604 229.766,428.665 230.217,427.571 
			230.373,426.397 230.217,425.223 229.766,424.128 229.043,423.19 228.105,422.469 227.01,422.016 225.836,421.861 
			224.662,422.016 223.568,422.469 222.629,423.19 		"/>
	</g>
	<g id="LINE_4290_">
		
			<polygon fill="none" stroke="#000000" stroke-width="0.25" stroke-linecap="round" stroke-linejoin="round" stroke-miterlimit="10" points="
			952.795,427.571 953.248,428.665 953.969,429.604 954.908,430.325 956.002,430.778 957.176,430.932 958.35,430.778 
			959.443,430.325 960.383,429.604 961.104,428.665 961.557,427.571 961.711,426.397 961.557,425.222 961.104,424.128 
			960.383,423.19 959.443,422.468 958.35,422.015 957.176,421.861 956.002,422.015 954.908,422.468 953.969,423.19 953.248,424.128 
			952.795,425.222 952.641,426.397 		"/>
	</g>
	<g id="LINE_4314_">
		
			<polygon fill="none" stroke="#000000" stroke-width="0.25" stroke-linecap="round" stroke-linejoin="round" stroke-miterlimit="10" points="
			773.451,661.826 772.357,662.279 771.418,663 770.697,663.939 770.244,665.033 770.09,666.207 770.244,667.381 770.697,668.475 
			771.418,669.414 772.357,670.135 773.451,670.588 774.625,670.742 775.799,670.588 776.893,670.135 777.832,669.414 
			778.553,668.475 779.006,667.381 779.16,666.207 779.006,665.033 778.553,663.939 777.832,663 776.893,662.279 775.799,661.826 
			774.625,661.672 		"/>
	</g>
	<g id="LINE_4318_">
		
			<rect x="1132.924" y="429.231" fill="none" stroke="#000000" stroke-width="0.25" stroke-linecap="round" stroke-linejoin="round" stroke-miterlimit="10" width="14.74" height="7.371"/>
	</g>
	<g id="LINE_4342_">
		
			<polygon fill="none" stroke="#000000" stroke-width="0.25" stroke-linecap="round" stroke-linejoin="round" stroke-miterlimit="10" points="
			589.238,422.468 588.299,423.19 587.578,424.128 587.125,425.223 586.971,426.397 587.125,427.571 587.578,428.665 
			588.299,429.604 589.238,430.325 590.332,430.778 591.506,430.932 592.68,430.778 593.773,430.325 594.713,429.604 
			595.434,428.665 595.887,427.571 596.041,426.397 595.887,425.223 595.434,424.128 594.713,423.19 593.773,422.468 
			592.68,422.016 591.506,421.861 590.332,422.016 		"/>
	</g>
	<g id="LINE_4346_">
		
			<rect x="767.254" y="429.231" fill="none" stroke="#000000" stroke-width="0.25" stroke-linecap="round" stroke-linejoin="round" stroke-miterlimit="10" width="14.74" height="7.371"/>
	</g>
	<g id="LINE_4350_">
		
			<rect x="401.584" y="429.231" fill="none" stroke="#000000" stroke-width="0.25" stroke-linecap="round" stroke-linejoin="round" stroke-miterlimit="10" width="14.74" height="7.371"/>
	</g>
	<g id="LINE_4374_">
		
			<polygon fill="none" stroke="#000000" stroke-width="0.25" stroke-linecap="round" stroke-linejoin="round" stroke-miterlimit="10" points="
			406.688,670.135 407.781,670.588 408.955,670.742 410.129,670.588 411.223,670.135 412.162,669.414 412.883,668.475 
			413.336,667.381 413.49,666.207 413.336,665.033 412.883,663.939 412.162,663 411.223,662.279 410.129,661.826 408.955,661.672 
			407.781,661.826 406.688,662.279 405.748,663 405.027,663.939 404.574,665.033 404.42,666.207 404.574,667.381 405.027,668.475 
			405.748,669.414 		"/>
	</g>
	<g id="LINE_4378_">
		
			<rect x="60.294" y="429.231" fill="none" stroke="#000000" stroke-width="0.25" stroke-linecap="round" stroke-linejoin="round" stroke-miterlimit="10" width="14.74" height="7.371"/>
	</g>
	<g id="LINE_4402_">
		
			<polygon fill="none" stroke="#000000" stroke-width="0.25" stroke-linecap="round" stroke-linejoin="round" stroke-miterlimit="10" points="
			746.564,758.99 747.24,758.109 748.121,757.434 749.146,757.01 750.246,756.865 751.348,757.01 752.373,757.434 753.254,758.109 
			753.93,758.99 754.354,760.016 754.498,761.117 754.354,762.217 753.93,763.242 753.254,764.123 752.373,764.799 751.348,765.225 
			750.246,765.369 749.146,765.225 748.121,764.799 747.24,764.123 746.564,763.242 746.139,762.217 745.994,761.117 
			746.139,760.016 		"/>
	</g>
	<g id="LINE_4407_">
		
			<polyline fill="none" stroke="#000000" stroke-width="0.25" stroke-linecap="round" stroke-linejoin="round" stroke-miterlimit="10" points="
			389.332,785.83 389.332,768.268 379.822,768.268 379.822,785.83 		"/>
	</g>
	<g id="LINE_4411_">
		
			<polyline fill="none" stroke="#000000" stroke-width="0.25" stroke-linecap="round" stroke-linejoin="round" stroke-miterlimit="10" points="
			413.711,785.83 413.711,768.268 404.199,768.268 404.199,785.83 		"/>
	</g>
	<g id="LINE_4415_">
		
			<polyline fill="none" stroke="#000000" stroke-width="0.25" stroke-linecap="round" stroke-linejoin="round" stroke-miterlimit="10" points="
			438.088,785.83 438.088,768.268 428.578,768.268 428.578,785.83 		"/>
	</g>
	<g id="LINE_4419_">
		
			<polyline fill="none" stroke="#000000" stroke-width="0.25" stroke-linecap="round" stroke-linejoin="round" stroke-miterlimit="10" points="
			462.467,785.83 462.467,768.268 452.955,768.268 452.955,785.83 		"/>
	</g>
	<g id="LINE_4423_">
		
			<polyline fill="none" stroke="#000000" stroke-width="0.25" stroke-linecap="round" stroke-linejoin="round" stroke-miterlimit="10" points="
			486.844,785.83 486.844,768.268 477.334,768.268 477.334,785.83 		"/>
	</g>
	<g id="LINE_4427_">
		
			<polyline fill="none" stroke="#000000" stroke-width="0.25" stroke-linecap="round" stroke-linejoin="round" stroke-miterlimit="10" points="
			511.223,785.83 511.223,768.268 501.711,768.268 501.711,785.83 		"/>
	</g>
	<g id="LINE_4431_">
		
			<polyline fill="none" stroke="#000000" stroke-width="0.25" stroke-linecap="round" stroke-linejoin="round" stroke-miterlimit="10" points="
			535.6,785.83 535.6,768.268 526.09,768.268 526.09,785.83 		"/>
	</g>
	<g id="LINE_4435_">
		
			<polyline fill="none" stroke="#000000" stroke-width="0.25" stroke-linecap="round" stroke-linejoin="round" stroke-miterlimit="10" points="
			559.979,785.83 559.979,768.268 550.467,768.268 550.467,785.83 		"/>
	</g>
	<g id="LINE_4439_">
		
			<polyline fill="none" stroke="#000000" stroke-width="0.25" stroke-linecap="round" stroke-linejoin="round" stroke-miterlimit="10" points="
			584.355,785.83 584.355,768.268 574.846,768.268 574.846,785.83 		"/>
	</g>
	<g id="LINE_4443_">
		
			<polyline fill="none" stroke="#000000" stroke-width="0.25" stroke-linecap="round" stroke-linejoin="round" stroke-miterlimit="10" points="
			608.734,785.83 608.734,768.268 599.223,768.268 599.223,785.83 		"/>
	</g>
	<g id="LINE_4447_">
		
			<polyline fill="none" stroke="#000000" stroke-width="0.25" stroke-linecap="round" stroke-linejoin="round" stroke-miterlimit="10" points="
			633.111,785.83 633.111,768.268 623.602,768.268 623.602,785.83 		"/>
	</g>
	<g id="LINE_4451_">
		
			<polyline fill="none" stroke="#000000" stroke-width="0.25" stroke-linecap="round" stroke-linejoin="round" stroke-miterlimit="10" points="
			657.49,785.83 657.49,768.268 647.98,768.268 647.98,785.83 		"/>
	</g>
	<g id="LINE_4455_">
		
			<polyline fill="none" stroke="#000000" stroke-width="0.25" stroke-linecap="round" stroke-linejoin="round" stroke-miterlimit="10" points="
			681.867,785.83 681.867,768.268 672.357,768.268 672.357,785.83 		"/>
	</g>
	<g id="LINE_4459_">
		
			<polyline fill="none" stroke="#000000" stroke-width="0.25" stroke-linecap="round" stroke-linejoin="round" stroke-miterlimit="10" points="
			706.246,785.83 706.246,768.268 696.736,768.268 696.736,785.83 		"/>
	</g>
	<g id="LINE_4463_">
		
			<polyline fill="none" stroke="#000000" stroke-width="0.25" stroke-linecap="round" stroke-linejoin="round" stroke-miterlimit="10" points="
			730.623,785.83 730.623,768.268 721.113,768.268 721.113,785.83 		"/>
	</g>
	<g id="LINE_4466_">
		
			<polyline fill="none" stroke="#000000" stroke-width="0.25" stroke-linecap="round" stroke-linejoin="round" stroke-miterlimit="10" points="
			755.002,785.83 755.002,768.268 745.492,768.268 745.492,785.83 		"/>
	</g>
	<g id="LINE_4473_">
		
			<polyline fill="none" stroke="#000000" stroke-width="0.25" stroke-linecap="round" stroke-linejoin="round" stroke-miterlimit="10" points="
			72.419,785.83 72.419,768.268 62.909,768.268 62.909,785.83 		"/>
	</g>
	<g id="LINE_4476_">
		
			<polyline fill="none" stroke="#000000" stroke-width="0.25" stroke-linecap="round" stroke-linejoin="round" stroke-miterlimit="10" points="
			96.796,785.83 96.796,768.268 87.286,768.268 87.286,785.83 		"/>
	</g>
	<g id="LINE_4479_">
		
			<polyline fill="none" stroke="#000000" stroke-width="0.25" stroke-linecap="round" stroke-linejoin="round" stroke-miterlimit="10" points="
			121.175,785.83 121.175,768.268 111.665,768.268 111.665,785.83 		"/>
	</g>
	<g id="LINE_4482_">
		
			<polyline fill="none" stroke="#000000" stroke-width="0.25" stroke-linecap="round" stroke-linejoin="round" stroke-miterlimit="10" points="
			145.552,785.83 145.552,768.268 136.042,768.268 136.042,785.83 		"/>
	</g>
	<g id="LINE_4485_">
		
			<polyline fill="none" stroke="#000000" stroke-width="0.25" stroke-linecap="round" stroke-linejoin="round" stroke-miterlimit="10" points="
			169.93,785.83 169.93,768.268 160.42,768.268 160.42,785.83 		"/>
	</g>
	<g id="LINE_4488_">
		
			<polyline fill="none" stroke="#000000" stroke-width="0.25" stroke-linecap="round" stroke-linejoin="round" stroke-miterlimit="10" points="
			194.309,785.83 194.309,768.268 184.799,768.268 184.799,785.83 		"/>
	</g>
	<g id="LINE_4491_">
		
			<polyline fill="none" stroke="#000000" stroke-width="0.25" stroke-linecap="round" stroke-linejoin="round" stroke-miterlimit="10" points="
			218.686,785.83 218.686,768.268 209.176,768.268 209.176,785.83 		"/>
	</g>
	<g id="LINE_4494_">
		
			<polyline fill="none" stroke="#000000" stroke-width="0.25" stroke-linecap="round" stroke-linejoin="round" stroke-miterlimit="10" points="
			243.064,785.83 243.064,768.268 233.555,768.268 233.555,785.83 		"/>
	</g>
	<g id="LINE_4497_">
		
			<polyline fill="none" stroke="#000000" stroke-width="0.25" stroke-linecap="round" stroke-linejoin="round" stroke-miterlimit="10" points="
			267.441,785.83 267.441,768.268 257.932,768.268 257.932,785.83 		"/>
	</g>
	<g id="LINE_4501_">
		
			<polyline fill="none" stroke="#000000" stroke-width="0.25" stroke-linecap="round" stroke-linejoin="round" stroke-miterlimit="10" points="
			291.82,785.83 291.82,768.268 282.311,768.268 282.311,785.83 		"/>
	</g>
	<g id="LINE_4505_">
		
			<polyline fill="none" stroke="#000000" stroke-width="0.25" stroke-linecap="round" stroke-linejoin="round" stroke-miterlimit="10" points="
			316.199,785.83 316.199,768.268 306.688,768.268 306.688,785.83 		"/>
	</g>
	<g id="LINE_4509_">
		
			<polyline fill="none" stroke="#000000" stroke-width="0.25" stroke-linecap="round" stroke-linejoin="round" stroke-miterlimit="10" points="
			340.576,785.83 340.576,768.268 331.066,768.268 331.066,785.83 		"/>
	</g>
	<g id="LINE_4512_">
		
			<polyline fill="none" stroke="#000000" stroke-width="0.25" stroke-linecap="round" stroke-linejoin="round" stroke-miterlimit="10" points="
			364.955,785.83 364.955,768.268 355.443,768.268 355.443,785.83 		"/>
	</g>
	<g id="LINE_4514_">
		
			<polygon fill="none" stroke="#000000" stroke-width="0.25" stroke-linecap="round" stroke-linejoin="round" stroke-miterlimit="10" points="
			315.125,763.242 315.551,762.217 315.695,761.117 315.695,760.896 315.551,760.016 315.125,758.99 314.449,758.109 
			313.568,757.434 312.543,757.01 311.443,756.865 310.344,757.01 309.316,757.434 308.438,758.109 307.762,758.99 307.336,760.016 
			307.191,761.117 307.336,762.217 307.762,763.242 308.438,764.123 309.316,764.799 310.344,765.225 311.443,765.369 
			312.543,765.225 313.568,764.799 314.449,764.123 		"/>
	</g>
	<g id="LINE_4546_">
		
			<polygon fill="none" stroke="#000000" stroke-width="0.25" stroke-linecap="round" stroke-linejoin="round" stroke-miterlimit="10" points="
			265.693,764.123 264.813,764.799 263.787,765.225 262.688,765.369 261.588,765.225 260.561,764.799 259.682,764.123 
			259.006,763.242 258.58,762.217 258.436,761.117 258.58,760.016 259.006,758.99 259.682,758.109 260.561,757.434 261.588,757.01 
			262.688,756.865 263.787,757.01 264.813,757.434 265.693,758.109 266.369,758.99 266.795,760.016 266.939,761.117 
			266.795,762.217 266.369,763.242 		"/>
	</g>
	<g id="LINE_4563_">
		
			<polygon fill="none" stroke="#000000" stroke-width="0.25" stroke-linecap="round" stroke-linejoin="round" stroke-miterlimit="10" points="
			534.951,760.016 535.098,760.896 535.098,761.117 534.951,762.217 534.527,763.242 533.852,764.123 532.971,764.799 
			531.945,765.225 530.846,765.369 529.744,765.225 528.719,764.799 527.838,764.123 527.162,763.242 526.738,762.217 
			526.594,761.117 526.738,760.016 527.162,758.99 527.838,758.109 528.719,757.434 529.744,757.01 530.846,756.865 531.945,757.01 
			532.971,757.434 533.852,758.109 534.527,758.99 		"/>
	</g>
	<g id="LINE_4587_">
		
			<polygon fill="none" stroke="#000000" stroke-width="0.25" stroke-linecap="round" stroke-linejoin="round" stroke-miterlimit="10" points="
			1145.605,482.436 1144.93,481.557 1144.504,480.531 1144.359,479.43 1144.504,478.33 1144.93,477.305 1145.605,476.424 
			1146.486,475.748 1147.512,475.322 1148.611,475.178 1149.713,475.322 1150.738,475.748 1151.619,476.424 1152.295,477.305 
			1152.719,478.33 1152.863,479.43 1152.719,480.531 1152.295,481.557 1151.619,482.436 1150.738,483.111 1149.713,483.537 
			1148.611,483.682 1147.512,483.537 1146.486,483.111 		"/>
	</g>
	
		<polyline fill="none" stroke="#000000" stroke-width="0.25" stroke-linecap="round" stroke-linejoin="round" stroke-miterlimit="10" points="
		43.284,42.005 1189.329,42.005 1188.781,41.999 1189.329,42.005 1189.331,384.946 1188.231,385.09 1187.206,385.515 
		1186.325,386.191 1185.649,387.072 1185.224,388.097 1185.079,388.978 1185.079,389.198 1185.224,390.298 1185.649,391.324 
		1186.325,392.205 1187.206,392.88 1188.231,393.305 1189.331,393.45 1189.331,396.348 1184.577,396.348 1184.577,413.911 
		43.284,413.924 43.284,413.911 43.284,42.005 43.284,42.012 43.284,413.924 43.286,756.865 44.386,757.01 45.411,757.434 
		46.292,758.109 46.968,758.99 47.394,760.016 47.538,760.896 47.538,761.117 47.394,762.217 46.968,763.242 46.292,764.123 
		45.411,764.799 44.386,765.225 43.286,765.369 43.286,768.268 48.04,768.268 48.04,785.83 1164.953,785.816 1164.953,413.924 	"/>
</g>
</svg>
