<?xml version="1.0" encoding="utf-8"?>
<!-- Generator: Adobe Illustrator 16.0.0, SVG Export Plug-In . SVG Version: 6.00 Build 0)  -->
<!DOCTYPE svg PUBLIC "-//W3C//DTD SVG 1.1//EN" "http://www.w3.org/Graphics/SVG/1.1/DTD/svg11.dtd">
<svg version="1.1" id="Layer_1" xmlns="http://www.w3.org/2000/svg" xmlns:xlink="http://www.w3.org/1999/xlink" x="0px" y="0px"
	 width="1440px" height="864px" viewBox="0 0 1440 864" enable-background="new 0 0 1440 864" xml:space="preserve">
<g>
	<g id="LINE_4598_">
		
			<polyline fill="none" stroke="#000000" stroke-width="0.25" stroke-linecap="round" stroke-linejoin="round" stroke-miterlimit="10" points="
			1065.957,34 1065.957,51.563 1075.467,51.563 1075.467,34 		"/>
	</g>
	<g id="LINE_4601_">
		
			<polyline fill="none" stroke="#000000" stroke-width="0.25" stroke-linecap="round" stroke-linejoin="round" stroke-miterlimit="10" points="
			1041.578,34 1041.578,51.563 1051.088,51.563 1051.088,34 		"/>
	</g>
	<g id="LINE_4604_">
		
			<polyline fill="none" stroke="#000000" stroke-width="0.25" stroke-linecap="round" stroke-linejoin="round" stroke-miterlimit="10" points="
			1017.201,34 1017.201,51.563 1026.711,51.563 1026.711,34 		"/>
	</g>
	<g id="LINE_4607_">
		
			<polyline fill="none" stroke="#000000" stroke-width="0.25" stroke-linecap="round" stroke-linejoin="round" stroke-miterlimit="10" points="
			992.822,34 992.822,51.563 1002.332,51.563 1002.332,34 		"/>
	</g>
	<g id="LINE_4610_">
		
			<polyline fill="none" stroke="#000000" stroke-width="0.25" stroke-linecap="round" stroke-linejoin="round" stroke-miterlimit="10" points="
			968.445,34 968.445,51.563 977.955,51.563 977.955,34 		"/>
	</g>
	<g id="LINE_4613_">
		
			<polyline fill="none" stroke="#000000" stroke-width="0.25" stroke-linecap="round" stroke-linejoin="round" stroke-miterlimit="10" points="
			944.066,34 944.066,51.563 953.576,51.563 953.576,34 		"/>
	</g>
	<g id="LINE_4616_">
		
			<polyline fill="none" stroke="#000000" stroke-width="0.25" stroke-linecap="round" stroke-linejoin="round" stroke-miterlimit="10" points="
			919.689,34 919.689,51.563 929.199,51.563 929.199,34 		"/>
	</g>
	<g id="LINE_4619_">
		
			<polyline fill="none" stroke="#000000" stroke-width="0.25" stroke-linecap="round" stroke-linejoin="round" stroke-miterlimit="10" points="
			895.311,34 895.311,51.563 904.82,51.563 904.82,34 		"/>
	</g>
	<g id="LINE_4622_">
		
			<polyline fill="none" stroke="#000000" stroke-width="0.25" stroke-linecap="round" stroke-linejoin="round" stroke-miterlimit="10" points="
			870.934,34 870.934,51.563 880.443,51.563 880.443,34 		"/>
	</g>
	<g id="LINE_4632_">
		
			<polyline fill="none" stroke="#000000" stroke-width="0.25" stroke-linecap="round" stroke-linejoin="round" stroke-miterlimit="10" points="
			709.797,34 709.797,51.563 700.288,51.563 700.288,34 		"/>
	</g>
	<g id="LINE_4635_">
		
			<polyline fill="none" stroke="#000000" stroke-width="0.25" stroke-linecap="round" stroke-linejoin="round" stroke-miterlimit="10" points="
			734.176,34 734.176,51.563 724.666,51.563 724.666,34 		"/>
	</g>
	<g id="LINE_4638_">
		
			<polyline fill="none" stroke="#000000" stroke-width="0.25" stroke-linecap="round" stroke-linejoin="round" stroke-miterlimit="10" points="
			758.553,34 758.553,51.563 749.043,51.563 749.043,34 		"/>
	</g>
	<g id="LINE_4641_">
		
			<polyline fill="none" stroke="#000000" stroke-width="0.25" stroke-linecap="round" stroke-linejoin="round" stroke-miterlimit="10" points="
			782.932,34 782.932,51.563 773.422,51.563 773.422,34 		"/>
	</g>
	<g id="LINE_4644_">
		
			<polyline fill="none" stroke="#000000" stroke-width="0.25" stroke-linecap="round" stroke-linejoin="round" stroke-miterlimit="10" points="
			807.309,34 807.309,51.563 797.799,51.563 797.799,34 		"/>
	</g>
	<g id="LINE_4647_">
		
			<polyline fill="none" stroke="#000000" stroke-width="0.25" stroke-linecap="round" stroke-linejoin="round" stroke-miterlimit="10" points="
			831.688,34 831.688,51.563 822.178,51.563 822.178,34 		"/>
	</g>
	<g id="LINE_4648_">
		
			<polyline fill="none" stroke="#000000" stroke-width="0.25" stroke-linecap="round" stroke-linejoin="round" stroke-miterlimit="10" points="
			846.555,34 846.555,51.563 856.064,51.563 856.064,34 		"/>
	</g>
	<g id="LINE_4651_">
		
			<polyline fill="none" stroke="#000000" stroke-width="0.25" stroke-linecap="round" stroke-linejoin="round" stroke-miterlimit="10" points="
			1099.846,34 1099.846,51.563 1090.334,51.563 1090.334,34 		"/>
	</g>
	<g id="LINE_4654_">
		
			<polyline fill="none" stroke="#000000" stroke-width="0.25" stroke-linecap="round" stroke-linejoin="round" stroke-miterlimit="10" points="
			1124.223,34 1124.223,51.563 1114.713,51.563 1114.713,34 		"/>
	</g>
	<g id="LINE_4657_">
		
			<polyline fill="none" stroke="#000000" stroke-width="0.25" stroke-linecap="round" stroke-linejoin="round" stroke-miterlimit="10" points="
			1148.602,34 1148.602,51.563 1139.09,51.563 1139.09,34 		"/>
	</g>
	<g id="LINE_4677_">
		
			<polyline fill="none" stroke="#000000" stroke-width="0.25" stroke-linecap="round" stroke-linejoin="round" stroke-miterlimit="10" points="
			466.018,34 466.018,51.563 456.508,51.563 456.508,34 		"/>
	</g>
	<g id="LINE_4680_">
		
			<polyline fill="none" stroke="#000000" stroke-width="0.25" stroke-linecap="round" stroke-linejoin="round" stroke-miterlimit="10" points="
			490.396,34 490.397,51.563 480.886,51.563 480.886,34 		"/>
	</g>
	<g id="LINE_4683_">
		
			<polyline fill="none" stroke="#000000" stroke-width="0.25" stroke-linecap="round" stroke-linejoin="round" stroke-miterlimit="10" points="
			514.774,34 514.774,51.563 505.264,51.563 505.264,34 		"/>
	</g>
	<g id="LINE_4686_">
		
			<polyline fill="none" stroke="#000000" stroke-width="0.25" stroke-linecap="round" stroke-linejoin="round" stroke-miterlimit="10" points="
			539.153,34 539.153,51.563 529.642,51.563 529.642,34 		"/>
	</g>
	<g id="LINE_4689_">
		
			<polyline fill="none" stroke="#000000" stroke-width="0.25" stroke-linecap="round" stroke-linejoin="round" stroke-miterlimit="10" points="
			563.53,34 563.53,51.563 554.02,51.563 554.02,34 		"/>
	</g>
	<g id="LINE_4692_">
		
			<polyline fill="none" stroke="#000000" stroke-width="0.25" stroke-linecap="round" stroke-linejoin="round" stroke-miterlimit="10" points="
			587.909,34 587.909,51.563 578.398,51.563 578.398,34 		"/>
	</g>
	<g id="LINE_4695_">
		
			<polyline fill="none" stroke="#000000" stroke-width="0.25" stroke-linecap="round" stroke-linejoin="round" stroke-miterlimit="10" points="
			612.286,34 612.286,51.563 602.776,51.563 602.776,34 		"/>
	</g>
	<g id="LINE_4698_">
		
			<polyline fill="none" stroke="#000000" stroke-width="0.25" stroke-linecap="round" stroke-linejoin="round" stroke-miterlimit="10" points="
			636.665,34 636.665,51.563 627.154,51.563 627.154,34 		"/>
	</g>
	<g id="LINE_4701_">
		
			<polyline fill="none" stroke="#000000" stroke-width="0.25" stroke-linecap="round" stroke-linejoin="round" stroke-miterlimit="10" points="
			661.042,34 661.042,51.563 651.532,51.563 651.532,34 		"/>
	</g>
	<g id="LINE_4702_">
		
			<polyline fill="none" stroke="#000000" stroke-width="0.25" stroke-linecap="round" stroke-linejoin="round" stroke-miterlimit="10" points="
			675.91,34 675.91,51.563 685.42,51.563 685.42,34 		"/>
	</g>
	<g id="LINE_4726_">
		
			<polygon fill="none" stroke="#000000" stroke-width="0.25" stroke-linecap="round" stroke-linejoin="round" stroke-miterlimit="10" points="
			439.153,157.55 438.059,158.003 436.885,158.157 435.711,158.003 434.618,157.55 433.678,156.829 432.958,155.89 432.504,154.796 
			432.35,153.622 432.504,152.448 432.958,151.354 433.678,150.415 434.618,149.694 435.711,149.241 436.885,149.087 
			438.059,149.241 439.153,149.694 440.092,150.415 440.813,151.354 441.266,152.448 441.42,153.622 441.266,154.796 
			440.813,155.89 440.092,156.829 		"/>
	</g>
	<g id="LINE_4750_">
		
			<polygon fill="none" stroke="#000000" stroke-width="0.25" stroke-linecap="round" stroke-linejoin="round" stroke-miterlimit="10" points="
			257.542,396.641 256.602,397.361 255.508,397.814 254.334,397.969 253.161,397.814 252.067,397.361 251.127,396.641 
			250.407,395.701 249.954,394.607 249.799,393.434 249.954,392.26 250.407,391.165 251.127,390.227 252.067,389.506 
			253.161,389.053 254.334,388.897 255.508,389.053 256.602,389.506 257.542,390.227 258.262,391.165 258.715,392.26 
			258.87,393.434 258.715,394.607 258.262,395.701 		"/>
	</g>
	<g id="LINE_4774_">
		
			<polygon fill="none" stroke="#000000" stroke-width="0.25" stroke-linecap="round" stroke-linejoin="round" stroke-miterlimit="10" points="
			73.484,157.55 72.39,158.003 71.216,158.157 70.042,158.003 68.949,157.55 68.009,156.829 67.289,155.89 66.835,154.796 
			66.681,153.622 66.835,152.448 67.289,151.354 68.009,150.415 68.949,149.694 70.042,149.241 71.216,149.087 72.39,149.241 
			73.484,149.694 74.423,150.415 75.144,151.354 75.597,152.448 75.751,153.622 75.597,154.796 75.144,155.89 74.423,156.829 		"/>
	</g>
	<g id="LINE_4798_">
		
			<polygon fill="none" stroke="#000000" stroke-width="0.25" stroke-linecap="round" stroke-linejoin="round" stroke-miterlimit="10" points="
			463.389,62.396 462.364,62.82 461.263,62.965 460.163,62.82 459.137,62.396 458.256,61.72 457.581,60.839 457.157,59.813 
			457.011,58.713 457.157,57.612 457.581,56.587 458.256,55.706 459.137,55.03 460.163,54.605 461.263,54.461 462.364,54.605 
			463.389,55.03 464.27,55.706 464.946,56.587 465.37,57.612 465.515,58.713 465.37,59.813 464.946,60.839 464.27,61.72 		"/>
	</g>
	<g id="LINE_4822_">
		
			<polygon fill="none" stroke="#000000" stroke-width="0.25" stroke-linecap="round" stroke-linejoin="round" stroke-miterlimit="10" points="
			615.623,392.259 616.076,391.165 616.796,390.227 617.736,389.505 618.83,389.052 620.003,388.897 621.177,389.052 
			622.271,389.505 623.21,390.227 623.931,391.165 624.384,392.259 624.54,393.434 624.384,394.607 623.931,395.701 623.21,396.641 
			622.271,397.361 621.177,397.814 620.003,397.969 618.83,397.814 617.736,397.361 616.796,396.641 616.076,395.701 
			615.623,394.607 615.467,393.434 		"/>
	</g>
	<g id="LINE_4826_">
		
			<rect x="429.515" y="383.229" fill="none" stroke="#000000" stroke-width="0.25" stroke-linecap="round" stroke-linejoin="round" stroke-miterlimit="10" width="14.74" height="7.37"/>
	</g>
	<g id="LINE_4830_">
		
			<rect x="63.845" y="383.229" fill="none" stroke="#000000" stroke-width="0.25" stroke-linecap="round" stroke-linejoin="round" stroke-miterlimit="10" width="14.74" height="7.37"/>
	</g>
	<g id="LINE_4854_">
		
			<polygon fill="none" stroke="#000000" stroke-width="0.25" stroke-linecap="round" stroke-linejoin="round" stroke-miterlimit="10" points="
			895.959,57.612 896.383,56.587 897.059,55.706 897.939,55.03 898.965,54.605 900.066,54.461 901.166,54.605 902.191,55.03 
			903.072,55.706 903.748,56.587 904.174,57.612 904.318,58.713 904.174,59.813 903.748,60.839 903.072,61.72 902.191,62.396 
			901.166,62.82 900.066,62.965 898.965,62.82 897.939,62.396 897.059,61.72 896.383,60.839 895.959,59.813 895.814,58.933 
			895.814,58.713 		"/>
	</g>
	<g id="LINE_4858_">
		
			<rect x="1136.477" y="383.229" fill="none" stroke="#000000" stroke-width="0.25" stroke-linecap="round" stroke-linejoin="round" stroke-miterlimit="10" width="14.738" height="7.37"/>
	</g>
	<g id="LINE_4882_">
		
			<polygon fill="none" stroke="#000000" stroke-width="0.25" stroke-linecap="round" stroke-linejoin="round" stroke-miterlimit="10" points="
			1140.639,150.415 1141.578,149.694 1142.672,149.241 1143.846,149.087 1145.02,149.241 1146.113,149.694 1147.053,150.415 
			1147.773,151.354 1148.227,152.448 1148.381,153.622 1148.227,154.796 1147.773,155.89 1147.053,156.829 1146.113,157.55 
			1145.02,158.003 1143.846,158.157 1142.672,158.003 1141.578,157.55 1140.639,156.829 1139.918,155.89 1139.465,154.796 
			1139.311,153.622 1139.465,152.448 1139.918,151.354 		"/>
	</g>
	<g id="LINE_4905_">
		
			<polygon fill="none" stroke="#000000" stroke-width="0.25" stroke-linecap="round" stroke-linejoin="round" stroke-miterlimit="10" points="
			945.814,55.706 946.695,55.03 947.721,54.605 948.822,54.461 949.922,54.605 950.947,55.03 951.828,55.706 952.504,56.587 
			952.93,57.612 953.074,58.713 952.93,59.813 952.504,60.839 951.828,61.72 950.947,62.396 949.922,62.82 948.822,62.965 
			947.721,62.82 946.695,62.396 945.814,61.72 945.139,60.839 944.715,59.813 944.57,58.713 944.715,57.612 945.139,56.587 		"/>
	</g>
	<g id="LINE_4929_">
		
			<polygon fill="none" stroke="#000000" stroke-width="0.25" stroke-linecap="round" stroke-linejoin="round" stroke-miterlimit="10" points="
			799.348,150.415 800.287,149.694 801.381,149.241 802.555,149.087 803.729,149.241 804.822,149.694 805.762,150.415 
			806.482,151.354 806.936,152.448 807.09,153.622 806.936,154.796 806.482,155.89 805.762,156.829 804.822,157.55 803.729,158.003 
			802.555,158.157 801.381,158.003 800.287,157.55 799.348,156.829 798.627,155.89 798.174,154.796 798.02,153.622 798.174,152.448 
			798.627,151.354 		"/>
	</g>
	<g id="LINE_4953_">
		
			<polygon fill="none" stroke="#000000" stroke-width="0.25" stroke-linecap="round" stroke-linejoin="round" stroke-miterlimit="10" points="
			982.465,396.64 981.744,395.701 981.291,394.606 981.137,393.433 981.291,392.259 981.744,391.165 982.465,390.226 
			983.404,389.505 984.498,389.052 985.672,388.897 986.846,389.052 987.939,389.505 988.879,390.226 989.6,391.165 
			990.053,392.259 990.207,393.433 990.053,394.606 989.6,395.701 988.879,396.64 987.939,397.361 986.846,397.813 985.672,397.969 
			984.498,397.813 983.404,397.361 		"/>
	</g>
	<g id="LINE_4977_">
		
			<polygon fill="none" stroke="#000000" stroke-width="0.25" stroke-linecap="round" stroke-linejoin="round" stroke-miterlimit="10" points="
			683.671,61.72 682.791,62.396 681.765,62.82 680.665,62.965 679.564,62.82 678.539,62.396 677.659,61.72 676.983,60.839 
			676.557,59.813 676.413,58.933 676.413,58.713 676.557,57.612 676.983,56.587 677.659,55.706 678.539,55.03 679.564,54.605 
			680.665,54.461 681.765,54.605 682.791,55.03 683.671,55.706 684.347,56.587 684.772,57.612 684.917,58.713 684.772,59.813 
			684.347,60.839 		"/>
	</g>
	<g id="LINE_4981_">
		
			<rect x="795.184" y="383.229" fill="none" stroke="#000000" stroke-width="0.25" stroke-linecap="round" stroke-linejoin="round" stroke-miterlimit="10" width="14.74" height="7.37"/>
	</g>
	<g id="LINE_5005_">
		
			<polygon fill="none" stroke="#000000" stroke-width="0.25" stroke-linecap="round" stroke-linejoin="round" stroke-miterlimit="10" points="
			54.432,338.259 54.857,339.284 55.001,340.385 54.857,341.485 54.432,342.511 53.756,343.392 52.876,344.067 51.851,344.492 
			50.75,344.637 49.65,344.492 48.625,344.067 47.744,343.392 47.068,342.511 46.643,341.485 46.498,340.385 46.643,339.284 
			47.068,338.259 47.744,337.378 48.625,336.702 49.65,336.277 50.75,336.133 51.851,336.277 52.876,336.702 53.756,337.378 		"/>
	</g>
	<g id="LINE_5840_">
		
			<polygon fill="none" stroke="#000000" stroke-width="0.25" stroke-linecap="round" stroke-linejoin="round" stroke-miterlimit="10" points="
			1168.223,405.905 34.368,405.905 34.367,34.014 1163.469,34 1163.469,51.563 1168.223,51.563 1168.223,54.461 1167.123,54.605 
			1166.098,55.03 1165.217,55.706 1164.541,56.587 1164.115,57.612 1163.971,58.713 1163.971,58.933 1164.115,59.813 
			1164.541,60.839 1165.217,61.72 1166.098,62.396 1167.123,62.82 1168.223,62.965 		"/>
	</g>
	<g id="LINE_5508_">
		
			<polygon fill="none" stroke="#000000" stroke-width="0.25" stroke-linecap="round" stroke-linejoin="round" stroke-miterlimit="10" points="
			403.96,523.273 404.414,524.367 404.568,525.541 404.414,526.715 403.96,527.809 403.24,528.748 402.3,529.469 401.207,529.922 
			400.033,530.076 398.859,529.922 397.765,529.469 396.826,528.748 396.105,527.809 395.652,526.715 395.498,525.541 
			395.652,524.367 396.105,523.273 396.826,522.334 397.765,521.613 398.859,521.16 400.033,521.006 401.207,521.16 402.3,521.613 
			403.24,522.334 		"/>
	</g>
	<g id="LINE_5532_">
		
			<polygon fill="none" stroke="#000000" stroke-width="0.25" stroke-linecap="round" stroke-linejoin="round" stroke-miterlimit="10" points="
			586.964,766.525 586.511,767.619 585.791,768.559 584.851,769.279 583.757,769.732 582.583,769.887 581.41,769.732 
			580.316,769.279 579.376,768.559 578.656,767.619 578.203,766.525 578.048,765.352 578.203,764.178 578.656,763.084 
			579.376,762.145 580.316,761.424 581.41,760.971 582.583,760.816 583.757,760.971 584.851,761.424 585.791,762.145 
			586.511,763.084 586.964,764.178 587.119,765.352 		"/>
	</g>
	<g id="LINE_5536_">
		
			<rect x="758.332" y="755.146" fill="none" stroke="#000000" stroke-width="0.25" stroke-linecap="round" stroke-linejoin="round" stroke-miterlimit="10" width="14.74" height="7.371"/>
	</g>
	<g id="LINE_5540_">
		
			<rect x="392.662" y="755.146" fill="none" stroke="#000000" stroke-width="0.25" stroke-linecap="round" stroke-linejoin="round" stroke-miterlimit="10" width="14.74" height="7.371"/>
	</g>
	<g id="LINE_5564_">
		
			<polygon fill="none" stroke="#000000" stroke-width="0.25" stroke-linecap="round" stroke-linejoin="round" stroke-miterlimit="10" points="
			258.017,430.632 257.873,431.733 257.447,432.759 256.771,433.639 255.89,434.314 254.865,434.738 253.765,434.883 
			252.666,434.738 251.638,434.314 250.759,433.639 250.083,432.759 249.658,431.733 249.513,430.632 249.658,429.532 
			250.083,428.507 250.759,427.626 251.638,426.95 252.666,426.524 253.765,426.38 254.865,426.524 255.89,426.95 256.771,427.626 
			257.447,428.507 257.873,429.532 		"/>
	</g>
	<g id="LINE_5568_">
		
			<rect x="1124.002" y="755.146" fill="none" stroke="#000000" stroke-width="0.25" stroke-linecap="round" stroke-linejoin="round" stroke-miterlimit="10" width="14.74" height="7.371"/>
	</g>
	<g id="LINE_5597_">
		
			<polygon fill="none" stroke="#000000" stroke-width="0.25" stroke-linecap="round" stroke-linejoin="round" stroke-miterlimit="10" points="
			518.916,433.639 518.24,432.759 517.816,431.733 517.671,430.632 517.816,429.532 518.24,428.507 518.916,427.626 519.796,426.95 
			520.822,426.524 521.923,426.38 523.023,426.524 524.048,426.95 524.929,427.626 525.605,428.507 526.029,429.532 
			526.175,430.632 526.175,430.853 526.029,431.733 525.605,432.759 524.929,433.639 524.048,434.314 523.023,434.738 
			521.923,434.883 520.822,434.738 519.796,434.314 		"/>
	</g>
	<g id="LINE_5598_">
		
			<rect x="51.371" y="755.146" fill="none" stroke="#000000" stroke-width="0.25" stroke-linecap="round" stroke-linejoin="round" stroke-miterlimit="10" width="14.74" height="7.371"/>
	</g>
	<g id="LINE_5630_">
		
			<polygon fill="none" stroke="#000000" stroke-width="0.25" stroke-linecap="round" stroke-linejoin="round" stroke-miterlimit="10" points="
			767.971,521.613 768.91,522.334 769.631,523.273 770.084,524.367 770.238,525.541 770.084,526.715 769.631,527.809 
			768.91,528.748 767.971,529.469 766.877,529.922 765.703,530.076 764.529,529.922 763.436,529.469 762.496,528.748 
			761.775,527.809 761.322,526.715 761.168,525.541 761.322,524.367 761.775,523.273 762.496,522.334 763.436,521.613 
			764.529,521.16 765.703,521.006 766.877,521.16 		"/>
	</g>
	<g id="LINE_5655_">
		
			<polygon fill="none" stroke="#000000" stroke-width="0.25" stroke-linecap="round" stroke-linejoin="round" stroke-miterlimit="10" points="
			306.773,430.632 306.773,430.853 306.628,431.733 306.203,432.759 305.527,433.639 304.646,434.314 303.621,434.738 
			302.521,434.883 301.421,434.738 300.394,434.314 299.515,433.639 298.839,432.759 298.414,431.733 298.269,430.632 
			298.414,429.532 298.839,428.507 299.515,427.626 300.394,426.95 301.421,426.524 302.521,426.38 303.621,426.524 304.646,426.95 
			305.527,427.626 306.203,428.507 306.628,429.532 		"/>
	</g>
	<g id="LINE_5679_">
		
			<polygon fill="none" stroke="#000000" stroke-width="0.25" stroke-linecap="round" stroke-linejoin="round" stroke-miterlimit="10" points="
			61.009,521.613 61.949,522.334 62.669,523.273 63.123,524.367 63.277,525.541 63.123,526.715 62.669,527.809 61.949,528.748 
			61.009,529.469 59.916,529.922 58.742,530.076 57.568,529.922 56.474,529.469 55.535,528.748 54.814,527.809 54.361,526.715 
			54.207,525.541 54.361,524.367 54.814,523.273 55.535,522.334 56.474,521.613 57.568,521.16 58.742,521.006 59.916,521.16 		"/>
	</g>
	<g id="LINE_5702_">
		
			<polygon fill="none" stroke="#000000" stroke-width="0.25" stroke-linecap="round" stroke-linejoin="round" stroke-miterlimit="10" points="
			212.378,765.352 212.533,764.178 212.986,763.084 213.708,762.145 214.646,761.424 215.74,760.971 216.916,760.816 
			218.089,760.971 219.183,761.424 220.123,762.145 220.843,763.084 221.296,764.178 221.451,765.352 221.296,766.525 
			220.843,767.619 220.123,768.559 219.183,769.279 218.089,769.732 216.916,769.887 215.74,769.732 214.646,769.279 
			213.708,768.559 212.986,767.619 212.533,766.525 		"/>
	</g>
	<g id="LINE_5708_">
		
			<polyline fill="none" stroke="#000000" stroke-width="0.25" stroke-linecap="round" stroke-linejoin="round" stroke-miterlimit="10" points="
			234.142,405.919 234.142,423.481 224.632,423.481 224.632,405.919 		"/>
	</g>
	<g id="LINE_5712_">
		
			<polyline fill="none" stroke="#000000" stroke-width="0.25" stroke-linecap="round" stroke-linejoin="round" stroke-miterlimit="10" points="
			258.519,405.919 258.519,423.481 249.009,423.481 249.009,405.919 		"/>
	</g>
	<g id="LINE_5715_">
		
			<polyline fill="none" stroke="#000000" stroke-width="0.25" stroke-linecap="round" stroke-linejoin="round" stroke-miterlimit="10" points="
			282.898,405.919 282.898,423.481 273.388,423.481 273.388,405.919 		"/>
	</g>
	<g id="LINE_5718_">
		
			<polyline fill="none" stroke="#000000" stroke-width="0.25" stroke-linecap="round" stroke-linejoin="round" stroke-miterlimit="10" points="
			307.277,405.919 307.277,423.481 297.765,423.481 297.765,405.919 		"/>
	</g>
	<g id="LINE_5721_">
		
			<polyline fill="none" stroke="#000000" stroke-width="0.25" stroke-linecap="round" stroke-linejoin="round" stroke-miterlimit="10" points="
			331.654,405.919 331.654,423.481 322.144,423.481 322.144,405.919 		"/>
	</g>
	<g id="LINE_5724_">
		
			<polyline fill="none" stroke="#000000" stroke-width="0.25" stroke-linecap="round" stroke-linejoin="round" stroke-miterlimit="10" points="
			356.033,405.919 356.033,423.481 346.521,423.481 346.521,405.919 		"/>
	</g>
	<g id="LINE_5727_">
		
			<rect x="370.9" y="405.919" fill="none" stroke="#000000" stroke-width="0.25" stroke-linecap="round" stroke-linejoin="round" stroke-miterlimit="10" width="9.51" height="17.563"/>
	</g>
	<g id="LINE_5730_">
		
			<polyline fill="none" stroke="#000000" stroke-width="0.25" stroke-linecap="round" stroke-linejoin="round" stroke-miterlimit="10" points="
			404.789,405.919 404.789,423.481 395.277,423.481 395.277,405.919 		"/>
	</g>
	<g id="LINE_5733_">
		
			<polyline fill="none" stroke="#000000" stroke-width="0.25" stroke-linecap="round" stroke-linejoin="round" stroke-miterlimit="10" points="
			429.166,405.919 429.166,423.481 419.656,423.481 419.656,405.919 		"/>
	</g>
	<g id="LINE_5736_">
		
			<polyline fill="none" stroke="#000000" stroke-width="0.25" stroke-linecap="round" stroke-linejoin="round" stroke-miterlimit="10" points="
			453.544,405.919 453.544,423.481 444.033,423.481 444.033,405.919 		"/>
	</g>
	<g id="LINE_5739_">
		
			<polyline fill="none" stroke="#000000" stroke-width="0.25" stroke-linecap="round" stroke-linejoin="round" stroke-miterlimit="10" points="
			477.921,405.919 477.921,423.481 468.412,423.481 468.412,405.919 		"/>
	</g>
	<g id="LINE_5742_">
		
			<polyline fill="none" stroke="#000000" stroke-width="0.25" stroke-linecap="round" stroke-linejoin="round" stroke-miterlimit="10" points="
			502.3,405.919 502.3,423.481 492.789,423.481 492.789,405.919 		"/>
	</g>
	<g id="LINE_5744_">
		
			<line fill="none" stroke="#000000" stroke-width="0.25" stroke-linecap="round" stroke-linejoin="round" stroke-miterlimit="10" x1="517.167" y1="423.481" x2="526.677" y2="423.481"/>
	</g>
	<g id="LINE_5745_">
		
			<polyline fill="none" stroke="#000000" stroke-width="0.25" stroke-linecap="round" stroke-linejoin="round" stroke-miterlimit="10" points="
			526.677,405.919 526.677,423.481 517.167,423.481 517.167,405.919 		"/>
	</g>
	<g id="LINE_5748_">
		
			<polyline fill="none" stroke="#000000" stroke-width="0.25" stroke-linecap="round" stroke-linejoin="round" stroke-miterlimit="10" points="
			551.056,405.919 551.056,423.481 541.544,423.481 541.544,405.919 		"/>
	</g>
	<g id="LINE_5751_">
		
			<polyline fill="none" stroke="#000000" stroke-width="0.25" stroke-linecap="round" stroke-linejoin="round" stroke-miterlimit="10" points="
			575.433,405.919 575.433,423.481 565.923,423.481 565.923,405.919 		"/>
	</g>
	<g id="LINE_5754_">
		
			<polyline fill="none" stroke="#000000" stroke-width="0.25" stroke-linecap="round" stroke-linejoin="round" stroke-miterlimit="10" points="
			599.812,405.919 599.812,423.481 590.3,423.481 590.3,405.919 		"/>
	</g>
	<g id="LINE_5757_">
		
			<polyline fill="none" stroke="#000000" stroke-width="0.25" stroke-linecap="round" stroke-linejoin="round" stroke-miterlimit="10" points="
			624.189,405.919 624.189,423.481 614.679,423.481 614.679,405.919 		"/>
	</g>
	<g id="LINE_5760_">
		
			<polyline fill="none" stroke="#000000" stroke-width="0.25" stroke-linecap="round" stroke-linejoin="round" stroke-miterlimit="10" points="
			648.568,405.919 648.568,423.481 639.058,423.481 639.058,405.919 		"/>
	</g>
	<g id="LINE_5763_">
		
			<polyline fill="none" stroke="#000000" stroke-width="0.25" stroke-linecap="round" stroke-linejoin="round" stroke-miterlimit="10" points="
			672.945,405.919 672.945,423.481 663.435,423.481 663.435,405.919 		"/>
	</g>
	<g id="LINE_5766_">
		
			<polyline fill="none" stroke="#000000" stroke-width="0.25" stroke-linecap="round" stroke-linejoin="round" stroke-miterlimit="10" points="
			697.324,405.919 697.324,423.481 687.814,423.481 687.814,405.919 		"/>
	</g>
	<g id="LINE_5788_">
		
			<polygon fill="none" stroke="#000000" stroke-width="0.25" stroke-linecap="round" stroke-linejoin="round" stroke-miterlimit="10" points="
			745.432,431.733 745.008,432.759 744.332,433.639 743.451,434.314 742.426,434.738 741.324,434.883 740.225,434.738 
			739.199,434.314 738.318,433.639 737.643,432.759 737.217,431.733 737.072,430.632 737.217,429.532 737.643,428.507 
			738.318,427.626 739.199,426.95 740.225,426.524 741.324,426.38 742.426,426.524 743.451,426.95 744.332,427.626 745.008,428.507 
			745.432,429.532 745.576,430.632 		"/>
	</g>
	<g id="LINE_5813_">
		
			<polygon fill="none" stroke="#000000" stroke-width="0.25" stroke-linecap="round" stroke-linejoin="round" stroke-miterlimit="10" points="
			1130.197,529.922 1129.104,529.469 1128.164,528.748 1127.443,527.809 1126.99,526.715 1126.836,525.541 1126.99,524.367 
			1127.443,523.273 1128.164,522.334 1129.104,521.613 1130.197,521.16 1131.371,521.006 1132.545,521.16 1133.639,521.613 
			1134.578,522.334 1135.299,523.273 1135.752,524.367 1135.908,525.541 1135.752,526.715 1135.299,527.809 1134.578,528.748 
			1133.639,529.469 1132.545,529.922 1131.371,530.076 		"/>
	</g>
	<g id="LINE_5817_">
		
			<polygon fill="none" stroke="#000000" stroke-width="0.25" stroke-linecap="round" stroke-linejoin="round" stroke-miterlimit="10" points="
			949.428,760.971 950.521,761.424 951.461,762.145 952.182,763.084 952.635,764.178 952.789,765.352 952.635,766.525 
			952.182,767.619 951.461,768.559 950.521,769.279 949.428,769.732 948.254,769.887 947.08,769.732 945.986,769.279 
			945.047,768.559 944.326,767.619 943.873,766.525 943.719,765.352 943.873,764.178 944.326,763.084 945.047,762.145 
			945.986,761.424 947.08,760.971 948.254,760.816 		"/>
	</g>
	<g id="LINE_5818_">
		
			<polyline fill="none" stroke="#000000" stroke-width="0.25" stroke-linecap="round" stroke-linejoin="round" stroke-miterlimit="10" points="
			721.701,405.919 721.701,423.481 712.191,423.481 712.191,405.919 		"/>
	</g>
	<g id="LINE_5822_">
		
			<polyline fill="none" stroke="#000000" stroke-width="0.25" stroke-linecap="round" stroke-linejoin="round" stroke-miterlimit="10" points="
			746.08,405.919 746.08,423.481 736.57,423.481 736.57,405.919 		"/>
	</g>
	<g id="LINE_5846_">
		
			<polyline fill="none" stroke="#000000" stroke-width="0.25" stroke-linecap="round" stroke-linejoin="round" stroke-miterlimit="10" points="
			63.496,405.919 63.496,423.481 53.986,423.481 53.986,405.919 		"/>
	</g>
	<g id="LINE_5850_">
		
			<polyline fill="none" stroke="#000000" stroke-width="0.25" stroke-linecap="round" stroke-linejoin="round" stroke-miterlimit="10" points="
			87.875,405.919 87.875,423.481 78.365,423.481 78.365,405.919 		"/>
	</g>
	<g id="LINE_5854_">
		
			<polyline fill="none" stroke="#000000" stroke-width="0.25" stroke-linecap="round" stroke-linejoin="round" stroke-miterlimit="10" points="
			112.251,405.919 112.251,423.481 102.742,423.481 102.742,405.919 		"/>
	</g>
	<g id="LINE_5858_">
		
			<polyline fill="none" stroke="#000000" stroke-width="0.25" stroke-linecap="round" stroke-linejoin="round" stroke-miterlimit="10" points="
			136.63,405.919 136.63,423.481 127.121,423.481 127.121,405.919 		"/>
	</g>
	<g id="LINE_5862_">
		
			<polyline fill="none" stroke="#000000" stroke-width="0.25" stroke-linecap="round" stroke-linejoin="round" stroke-miterlimit="10" points="
			161.007,405.919 161.007,423.481 151.498,423.481 151.498,405.919 		"/>
	</g>
	<g id="LINE_5866_">
		
			<polyline fill="none" stroke="#000000" stroke-width="0.25" stroke-linecap="round" stroke-linejoin="round" stroke-miterlimit="10" points="
			185.386,405.919 185.386,423.481 175.876,423.481 175.876,405.919 		"/>
	</g>
	<g id="LINE_5868_">
		
			<polyline fill="none" stroke="#000000" stroke-width="0.25" stroke-linecap="round" stroke-linejoin="round" stroke-miterlimit="10" points="
			200.253,405.919 200.253,423.481 209.763,423.481 209.763,405.919 		"/>
	</g>
	<g id="LINE_5878_">
		
			<polygon fill="none" stroke="#000000" stroke-width="0.25" stroke-linecap="round" stroke-linejoin="round" stroke-miterlimit="10" points="
			1154.846,709.289 1155.521,710.17 1155.947,711.195 1156.092,712.295 1155.947,713.396 1155.521,714.422 1154.846,715.303 
			1153.965,715.979 1152.939,716.402 1151.84,716.547 1150.738,716.402 1149.713,715.979 1148.832,715.303 1148.156,714.422 
			1147.732,713.396 1147.588,712.295 1147.732,711.195 1148.156,710.17 1148.832,709.289 1149.713,708.613 1150.738,708.188 
			1151.84,708.043 1152.939,708.188 1153.965,708.613 		"/>
	</g>
	<g id="LINE_3_">
		
			<polygon fill="none" stroke="#000000" stroke-width="0.25" stroke-linecap="round" stroke-linejoin="round" stroke-miterlimit="10" points="
			1168.223,405.905 1168.223,405.919 1168.223,777.824 34.363,777.824 34.363,434.883 35.464,434.738 36.49,434.314 37.371,433.639 
			38.046,432.759 38.47,431.733 38.615,430.853 38.615,430.632 38.47,429.532 38.046,428.507 37.371,427.626 36.49,426.95 
			35.464,426.524 34.363,426.38 34.363,423.481 39.119,423.481 39.119,405.919 		"/>
	</g>
</g>
</svg>
