<?xml version="1.0" encoding="utf-8"?>
<!-- Generator: Adobe Illustrator 16.0.0, SVG Export Plug-In . SVG Version: 6.00 Build 0)  -->
<!DOCTYPE svg PUBLIC "-//W3C//DTD SVG 1.1//EN" "http://www.w3.org/Graphics/SVG/1.1/DTD/svg11.dtd">
<svg version="1.1" id="Layer_1" xmlns="http://www.w3.org/2000/svg" xmlns:xlink="http://www.w3.org/1999/xlink" x="0px" y="0px"
	 width="1440px" height="864px" viewBox="0 0 1440 864" enable-background="new 0 0 1440 864" xml:space="preserve">
<g>
	<g id="LINE_331_">
		
			<polyline fill="none" stroke="#000000" stroke-width="0.25" stroke-linecap="round" stroke-linejoin="round" stroke-miterlimit="10" points="
			736.433,271.071 736.433,480.834 731.897,480.834 731.897,271.071 		"/>
	</g>
	<g id="LINE_344_">
		
			<polyline fill="none" stroke="#000000" stroke-width="0.25" stroke-linecap="round" stroke-linejoin="round" stroke-miterlimit="10" points="
			1107.769,532.141 1107.769,516.834 1104.085,516.834 1104.085,509.463 1107.769,509.463 1107.769,506.629 1116.272,506.629 
			1116.272,509.463 1119.958,509.463 1119.958,516.834 1116.272,516.834 1116.272,532.141 		"/>
	</g>
	<g id="LINE_355_">
		
			<polyline fill="none" stroke="#000000" stroke-width="0.25" stroke-linecap="round" stroke-linejoin="round" stroke-miterlimit="10" points="
			742.101,532.141 742.101,516.834 738.415,516.834 738.415,509.463 742.101,509.463 742.101,506.629 750.604,506.629 
			750.604,509.463 754.288,509.463 754.288,516.834 750.604,516.834 750.604,532.141 		"/>
	</g>
	<g id="LINE_366_">
		
			<polyline fill="none" stroke="#000000" stroke-width="0.25" stroke-linecap="round" stroke-linejoin="round" stroke-miterlimit="10" points="
			376.431,532.141 376.431,516.834 372.745,516.834 372.745,509.463 376.431,509.463 376.431,506.629 384.935,506.629 
			384.935,509.463 388.62,509.463 388.62,516.834 384.935,516.834 384.935,532.141 		"/>
	</g>
	<g id="LINE_377_">
		
			<polyline fill="none" stroke="#000000" stroke-width="0.25" stroke-linecap="round" stroke-linejoin="round" stroke-miterlimit="10" points="
			35.14,532.141 35.14,516.834 31.454,516.834 31.454,509.463 35.14,509.463 35.14,506.629 43.644,506.629 43.644,509.463 
			47.329,509.463 47.329,516.834 43.644,516.834 43.644,532.141 		"/>
	</g>
	<g id="LINE_381_">
		
			<polyline fill="none" stroke="#000000" stroke-width="0.25" stroke-linecap="round" stroke-linejoin="round" stroke-miterlimit="10" points="
			29.474,271.071 29.474,480.834 24.937,480.834 24.937,271.071 		"/>
	</g>
	<g id="LINE_385_">
		
			<polyline fill="none" stroke="#000000" stroke-width="0.25" stroke-linecap="round" stroke-linejoin="round" stroke-miterlimit="10" points="
			53.851,271.071 53.851,480.834 49.315,480.834 49.315,271.071 		"/>
	</g>
	<g id="LINE_389_">
		
			<polyline fill="none" stroke="#000000" stroke-width="0.25" stroke-linecap="round" stroke-linejoin="round" stroke-miterlimit="10" points="
			78.229,271.071 78.229,480.834 73.694,480.834 73.694,271.071 		"/>
	</g>
	<g id="LINE_393_">
		
			<polyline fill="none" stroke="#000000" stroke-width="0.25" stroke-linecap="round" stroke-linejoin="round" stroke-miterlimit="10" points="
			102.606,271.071 102.606,480.834 98.071,480.834 98.071,271.071 		"/>
	</g>
	<g id="LINE_397_">
		
			<polyline fill="none" stroke="#000000" stroke-width="0.25" stroke-linecap="round" stroke-linejoin="round" stroke-miterlimit="10" points="
			126.985,271.071 126.985,480.834 122.45,480.834 122.45,271.071 		"/>
	</g>
	<g id="LINE_401_">
		
			<polyline fill="none" stroke="#000000" stroke-width="0.25" stroke-linecap="round" stroke-linejoin="round" stroke-miterlimit="10" points="
			151.362,271.071 151.362,480.834 146.827,480.834 146.827,271.071 		"/>
	</g>
	<g id="LINE_405_">
		
			<polyline fill="none" stroke="#000000" stroke-width="0.25" stroke-linecap="round" stroke-linejoin="round" stroke-miterlimit="10" points="
			175.741,271.071 175.741,480.834 171.206,480.834 171.206,271.071 		"/>
	</g>
	<g id="LINE_409_">
		
			<polyline fill="none" stroke="#000000" stroke-width="0.25" stroke-linecap="round" stroke-linejoin="round" stroke-miterlimit="10" points="
			200.118,271.071 200.118,480.834 195.583,480.834 195.583,271.071 		"/>
	</g>
	<g id="LINE_413_">
		
			<polyline fill="none" stroke="#000000" stroke-width="0.25" stroke-linecap="round" stroke-linejoin="round" stroke-miterlimit="10" points="
			224.497,271.071 224.497,480.834 219.962,480.834 219.962,271.071 		"/>
	</g>
	<g id="LINE_417_">
		
			<polyline fill="none" stroke="#000000" stroke-width="0.25" stroke-linecap="round" stroke-linejoin="round" stroke-miterlimit="10" points="
			248.874,271.071 248.874,480.834 244.339,480.834 244.339,271.071 		"/>
	</g>
	<g id="LINE_421_">
		
			<polyline fill="none" stroke="#000000" stroke-width="0.25" stroke-linecap="round" stroke-linejoin="round" stroke-miterlimit="10" points="
			273.253,271.071 273.253,480.834 268.718,480.834 268.718,271.071 		"/>
	</g>
	<g id="LINE_425_">
		
			<polyline fill="none" stroke="#000000" stroke-width="0.25" stroke-linecap="round" stroke-linejoin="round" stroke-miterlimit="10" points="
			297.63,271.071 297.63,480.834 293.095,480.834 293.095,271.071 		"/>
	</g>
	<g id="LINE_428_">
		
			<polyline fill="none" stroke="#000000" stroke-width="0.25" stroke-linecap="round" stroke-linejoin="round" stroke-miterlimit="10" points="
			322.009,271.071 322.009,480.834 317.474,480.834 317.474,271.071 		"/>
	</g>
	<g id="LINE_431_">
		
			<polyline fill="none" stroke="#000000" stroke-width="0.25" stroke-linecap="round" stroke-linejoin="round" stroke-miterlimit="10" points="
			346.386,271.071 346.386,480.834 341.851,480.834 341.851,271.071 		"/>
	</g>
	<g id="LINE_434_">
		
			<polyline fill="none" stroke="#000000" stroke-width="0.25" stroke-linecap="round" stroke-linejoin="round" stroke-miterlimit="10" points="
			370.765,271.071 370.765,480.834 366.229,480.834 366.229,271.071 		"/>
	</g>
	<g id="LINE_437_">
		
			<polyline fill="none" stroke="#000000" stroke-width="0.25" stroke-linecap="round" stroke-linejoin="round" stroke-miterlimit="10" points="
			395.142,271.071 395.142,480.834 390.606,480.834 390.606,271.071 		"/>
	</g>
	<g id="LINE_440_">
		
			<polyline fill="none" stroke="#000000" stroke-width="0.25" stroke-linecap="round" stroke-linejoin="round" stroke-miterlimit="10" points="
			419.521,271.071 419.521,480.834 414.985,480.834 414.985,271.071 		"/>
	</g>
	<g id="LINE_443_">
		
			<polyline fill="none" stroke="#000000" stroke-width="0.25" stroke-linecap="round" stroke-linejoin="round" stroke-miterlimit="10" points="
			443.897,271.071 443.897,480.834 439.362,480.834 439.362,271.071 		"/>
	</g>
	<g id="LINE_446_">
		
			<polyline fill="none" stroke="#000000" stroke-width="0.25" stroke-linecap="round" stroke-linejoin="round" stroke-miterlimit="10" points="
			468.276,271.071 468.276,480.834 463.741,480.834 463.741,271.071 		"/>
	</g>
	<g id="LINE_449_">
		
			<polyline fill="none" stroke="#000000" stroke-width="0.25" stroke-linecap="round" stroke-linejoin="round" stroke-miterlimit="10" points="
			492.653,271.071 492.653,480.834 488.118,480.834 488.118,271.071 		"/>
	</g>
	<g id="LINE_452_">
		
			<polyline fill="none" stroke="#000000" stroke-width="0.25" stroke-linecap="round" stroke-linejoin="round" stroke-miterlimit="10" points="
			517.032,271.071 517.032,480.834 512.497,480.834 512.497,271.071 		"/>
	</g>
	<g id="LINE_455_">
		
			<polyline fill="none" stroke="#000000" stroke-width="0.25" stroke-linecap="round" stroke-linejoin="round" stroke-miterlimit="10" points="
			541.409,271.071 541.409,480.834 536.874,480.834 536.874,271.071 		"/>
	</g>
	<g id="LINE_458_">
		
			<polyline fill="none" stroke="#000000" stroke-width="0.25" stroke-linecap="round" stroke-linejoin="round" stroke-miterlimit="10" points="
			565.788,271.071 565.788,480.834 561.253,480.834 561.253,271.071 		"/>
	</g>
	<g id="LINE_461_">
		
			<polyline fill="none" stroke="#000000" stroke-width="0.25" stroke-linecap="round" stroke-linejoin="round" stroke-miterlimit="10" points="
			590.165,271.071 590.165,480.834 585.63,480.834 585.63,271.071 		"/>
	</g>
	<g id="LINE_464_">
		
			<polyline fill="none" stroke="#000000" stroke-width="0.25" stroke-linecap="round" stroke-linejoin="round" stroke-miterlimit="10" points="
			614.544,271.071 614.544,480.834 610.009,480.834 610.009,271.071 		"/>
	</g>
	<g id="LINE_467_">
		
			<polyline fill="none" stroke="#000000" stroke-width="0.25" stroke-linecap="round" stroke-linejoin="round" stroke-miterlimit="10" points="
			638.921,271.071 638.921,480.834 634.386,480.834 634.386,271.071 		"/>
	</g>
	<g id="LINE_470_">
		
			<polyline fill="none" stroke="#000000" stroke-width="0.25" stroke-linecap="round" stroke-linejoin="round" stroke-miterlimit="10" points="
			663.3,271.071 663.3,480.834 658.765,480.834 658.765,271.071 		"/>
	</g>
	<g id="LINE_473_">
		
			<polyline fill="none" stroke="#000000" stroke-width="0.25" stroke-linecap="round" stroke-linejoin="round" stroke-miterlimit="10" points="
			687.677,271.071 687.677,480.834 683.142,480.834 683.142,271.071 		"/>
	</g>
	<g id="LINE_476_">
		
			<polyline fill="none" stroke="#000000" stroke-width="0.25" stroke-linecap="round" stroke-linejoin="round" stroke-miterlimit="10" points="
			712.056,271.071 712.056,480.834 707.521,480.834 707.521,271.071 		"/>
	</g>
	<g id="LINE_500_">
		
			<polygon fill="none" stroke="#000000" stroke-width="0.25" stroke-linecap="round" stroke-linejoin="round" stroke-miterlimit="10" points="
			201.493,517.4 201.946,518.494 202.101,519.668 201.946,520.842 201.493,521.936 200.772,522.875 199.833,523.596 
			198.739,524.049 197.565,524.203 196.392,524.049 195.296,523.596 194.358,522.875 193.636,521.936 193.185,520.842 
			193.028,519.668 193.185,518.494 193.636,517.4 194.358,516.461 195.296,515.74 196.392,515.287 197.565,515.133 198.739,515.287 
			199.833,515.74 200.772,516.461 		"/>
	</g>
	<g id="LINE_524_">
		
			<polygon fill="none" stroke="#000000" stroke-width="0.25" stroke-linecap="round" stroke-linejoin="round" stroke-miterlimit="10" points="
			380.683,284.394 379.509,284.239 378.415,283.786 377.476,283.065 376.755,282.126 376.302,281.032 376.147,279.858 
			376.302,278.685 376.755,277.591 377.476,276.651 378.415,275.931 379.509,275.478 380.683,275.323 381.856,275.478 
			382.95,275.931 383.89,276.651 384.61,277.591 385.063,278.685 385.218,279.858 385.063,281.032 384.61,282.126 383.89,283.065 
			382.95,283.786 381.856,284.239 		"/>
	</g>
	<g id="LINE_548_">
		
			<polygon fill="none" stroke="#000000" stroke-width="0.25" stroke-linecap="round" stroke-linejoin="round" stroke-miterlimit="10" points="
			927.729,524.049 926.636,523.596 925.696,522.875 924.976,521.936 924.522,520.842 924.368,519.668 924.522,518.494 
			924.976,517.4 925.696,516.461 926.636,515.74 927.729,515.287 928.903,515.133 930.077,515.287 931.171,515.74 932.11,516.461 
			932.831,517.4 933.284,518.494 933.438,519.668 933.284,520.842 932.831,521.936 932.11,522.875 931.171,523.596 930.077,524.049 
			928.903,524.203 		"/>
	</g>
	<g id="LINE_572_">
		
			<polygon fill="none" stroke="#000000" stroke-width="0.25" stroke-linecap="round" stroke-linejoin="round" stroke-miterlimit="10" points="
			1108.093,277.591 1108.813,276.651 1109.753,275.931 1110.847,275.478 1112.021,275.323 1113.194,275.478 1114.288,275.931 
			1115.228,276.651 1115.948,277.591 1116.401,278.685 1116.558,279.858 1116.401,281.032 1115.948,282.126 1115.228,283.065 
			1114.288,283.786 1113.194,284.239 1112.021,284.394 1110.847,284.239 1109.753,283.786 1108.813,283.065 1108.093,282.126 
			1107.64,281.032 1107.485,279.858 1107.64,278.685 		"/>
	</g>
	<g id="LINE_596_">
		
			<polygon fill="none" stroke="#000000" stroke-width="0.25" stroke-linecap="round" stroke-linejoin="round" stroke-miterlimit="10" points="
			35.011,281.032 34.856,279.858 35.011,278.685 35.464,277.591 36.185,276.651 37.124,275.931 38.218,275.478 39.392,275.323 
			40.565,275.478 41.659,275.931 42.599,276.651 43.319,277.591 43.772,278.685 43.927,279.858 43.772,281.032 43.319,282.126 
			42.599,283.065 41.659,283.786 40.565,284.239 39.392,284.394 38.218,284.239 37.124,283.786 36.185,283.065 35.464,282.126 		"/>
	</g>
	<g id="LINE_620_">
		
			<polygon fill="none" stroke="#000000" stroke-width="0.25" stroke-linecap="round" stroke-linejoin="round" stroke-miterlimit="10" points="
			742.425,277.591 743.146,276.651 744.085,275.931 745.179,275.478 746.353,275.323 747.526,275.478 748.62,275.931 
			749.56,276.651 750.28,277.591 750.733,278.685 750.888,279.858 750.733,281.032 750.28,282.126 749.56,283.065 748.62,283.786 
			747.526,284.239 746.353,284.394 745.179,284.239 744.085,283.786 743.146,283.065 742.425,282.126 741.972,281.032 
			741.817,279.858 741.972,278.685 		"/>
	</g>
	<g id="LINE_644_">
		
			<polygon fill="none" stroke="#000000" stroke-width="0.25" stroke-linecap="round" stroke-linejoin="round" stroke-miterlimit="10" points="
			560.026,516.461 560.966,515.74 562.06,515.287 563.233,515.133 564.407,515.287 565.501,515.74 566.44,516.461 567.161,517.4 
			567.614,518.494 567.769,519.668 567.614,520.842 567.161,521.936 566.44,522.875 565.501,523.596 564.407,524.049 
			563.233,524.203 562.06,524.049 560.966,523.596 560.026,522.875 559.306,521.936 558.853,520.842 558.698,519.668 
			558.853,518.494 559.306,517.4 		"/>
	</g>
	<g id="LINE_668_">
		
			<polygon fill="none" stroke="#000000" stroke-width="0.25" stroke-linecap="round" stroke-linejoin="round" stroke-miterlimit="10" points="
			1128.806,464.486 1129.481,463.605 1130.362,462.93 1131.388,462.506 1132.489,462.361 1133.589,462.506 1134.614,462.93 
			1135.495,463.605 1136.171,464.486 1136.597,465.512 1136.741,466.613 1136.597,467.713 1136.171,468.738 1135.495,469.619 
			1134.614,470.295 1133.589,470.719 1132.489,470.865 1131.388,470.719 1130.362,470.295 1129.481,469.619 1128.806,468.738 
			1128.382,467.713 1128.237,466.613 1128.382,465.512 		"/>
	</g>
	<g id="LINE_14_">
		
			<polyline fill="none" stroke="#000000" stroke-width="0.25" stroke-linecap="round" stroke-linejoin="round" stroke-miterlimit="10" points="
			413.278,271.071 413.278,255.763 409.593,255.763 409.593,248.394 413.278,248.394 413.278,245.56 421.782,245.56 
			421.782,248.394 425.468,248.394 425.468,255.763 421.782,255.763 421.782,271.071 		"/>
	</g>
	<g id="LINE_25_">
		
			<polyline fill="none" stroke="#000000" stroke-width="0.25" stroke-linecap="round" stroke-linejoin="round" stroke-miterlimit="10" points="
			47.608,271.071 47.608,255.763 43.924,255.763 43.924,248.394 47.608,248.394 47.608,245.56 56.112,245.56 56.112,248.394 
			59.798,248.394 59.798,255.763 56.112,255.763 56.112,271.071 		"/>
	</g>
	<g id="LINE_29_">
		
			<polyline fill="none" stroke="#000000" stroke-width="0.25" stroke-linecap="round" stroke-linejoin="round" stroke-miterlimit="10" points="
			431.983,10 431.983,219.763 427.448,219.763 427.448,10 		"/>
	</g>
	<g id="LINE_32_">
		
			<polyline fill="none" stroke="#000000" stroke-width="0.25" stroke-linecap="round" stroke-linejoin="round" stroke-miterlimit="10" points="
			456.362,10 456.362,219.763 451.827,219.763 451.827,10 		"/>
	</g>
	<g id="LINE_35_">
		
			<polyline fill="none" stroke="#000000" stroke-width="0.25" stroke-linecap="round" stroke-linejoin="round" stroke-miterlimit="10" points="
			480.739,10 480.739,219.763 476.204,219.763 476.204,10 		"/>
	</g>
	<g id="LINE_38_">
		
			<polyline fill="none" stroke="#000000" stroke-width="0.25" stroke-linecap="round" stroke-linejoin="round" stroke-miterlimit="10" points="
			505.118,10 505.118,219.763 500.583,219.763 500.583,10 		"/>
	</g>
	<g id="LINE_41_">
		
			<polyline fill="none" stroke="#000000" stroke-width="0.25" stroke-linecap="round" stroke-linejoin="round" stroke-miterlimit="10" points="
			529.495,10 529.495,219.763 524.96,219.763 524.96,10 		"/>
	</g>
	<g id="LINE_44_">
		
			<polyline fill="none" stroke="#000000" stroke-width="0.25" stroke-linecap="round" stroke-linejoin="round" stroke-miterlimit="10" points="
			553.874,10 553.874,219.763 549.339,219.763 549.339,10 		"/>
	</g>
	<g id="LINE_47_">
		
			<polyline fill="none" stroke="#000000" stroke-width="0.25" stroke-linecap="round" stroke-linejoin="round" stroke-miterlimit="10" points="
			578.251,10 578.251,219.763 573.716,219.763 573.716,10 		"/>
	</g>
	<g id="LINE_50_">
		
			<polyline fill="none" stroke="#000000" stroke-width="0.25" stroke-linecap="round" stroke-linejoin="round" stroke-miterlimit="10" points="
			602.63,10 602.63,219.763 598.095,219.763 598.095,10 		"/>
	</g>
	<g id="LINE_53_">
		
			<polyline fill="none" stroke="#000000" stroke-width="0.25" stroke-linecap="round" stroke-linejoin="round" stroke-miterlimit="10" points="
			627.008,10 627.008,219.763 622.472,219.763 622.472,10 		"/>
	</g>
	<g id="LINE_56_">
		
			<polyline fill="none" stroke="#000000" stroke-width="0.25" stroke-linecap="round" stroke-linejoin="round" stroke-miterlimit="10" points="
			651.386,10 651.386,219.763 646.851,219.763 646.851,10 		"/>
	</g>
	<g id="LINE_59_">
		
			<polyline fill="none" stroke="#000000" stroke-width="0.25" stroke-linecap="round" stroke-linejoin="round" stroke-miterlimit="10" points="
			675.764,10 675.764,219.763 671.228,219.763 671.228,10 		"/>
	</g>
	<g id="LINE_62_">
		
			<polyline fill="none" stroke="#000000" stroke-width="0.25" stroke-linecap="round" stroke-linejoin="round" stroke-miterlimit="10" points="
			700.142,10 700.142,219.763 695.606,219.763 695.606,10 		"/>
	</g>
	<g id="LINE_65_">
		
			<polyline fill="none" stroke="#000000" stroke-width="0.25" stroke-linecap="round" stroke-linejoin="round" stroke-miterlimit="10" points="
			724.52,10 724.52,219.763 719.983,219.763 719.983,10 		"/>
	</g>
	<g id="LINE_68_">
		
			<polyline fill="none" stroke="#000000" stroke-width="0.25" stroke-linecap="round" stroke-linejoin="round" stroke-miterlimit="10" points="
			748.897,10 748.897,219.763 744.362,219.763 744.362,10 		"/>
	</g>
	<g id="LINE_71_">
		
			<polyline fill="none" stroke="#000000" stroke-width="0.25" stroke-linecap="round" stroke-linejoin="round" stroke-miterlimit="10" points="
			773.275,10 773.275,219.763 768.739,219.763 768.739,10 		"/>
	</g>
	<g id="LINE_74_">
		
			<polyline fill="none" stroke="#000000" stroke-width="0.25" stroke-linecap="round" stroke-linejoin="round" stroke-miterlimit="10" points="
			797.653,10 797.653,219.763 793.118,219.763 793.118,10 		"/>
	</g>
	<g id="LINE_77_">
		
			<polyline fill="none" stroke="#000000" stroke-width="0.25" stroke-linecap="round" stroke-linejoin="round" stroke-miterlimit="10" points="
			822.031,10 822.031,219.763 817.495,219.763 817.495,10 		"/>
	</g>
	<g id="LINE_80_">
		
			<polyline fill="none" stroke="#000000" stroke-width="0.25" stroke-linecap="round" stroke-linejoin="round" stroke-miterlimit="10" points="
			846.409,10 846.409,219.763 841.874,219.763 841.874,10 		"/>
	</g>
	<g id="LINE_83_">
		
			<polyline fill="none" stroke="#000000" stroke-width="0.25" stroke-linecap="round" stroke-linejoin="round" stroke-miterlimit="10" points="
			870.787,10 870.787,219.763 866.251,219.763 866.251,10 		"/>
	</g>
	<g id="LINE_86_">
		
			<polyline fill="none" stroke="#000000" stroke-width="0.25" stroke-linecap="round" stroke-linejoin="round" stroke-miterlimit="10" points="
			895.165,10 895.165,219.763 890.63,219.763 890.63,10 		"/>
	</g>
	<g id="LINE_89_">
		
			<polyline fill="none" stroke="#000000" stroke-width="0.25" stroke-linecap="round" stroke-linejoin="round" stroke-miterlimit="10" points="
			919.543,10 919.543,219.763 915.007,219.763 915.007,10 		"/>
	</g>
	<g id="LINE_92_">
		
			<polyline fill="none" stroke="#000000" stroke-width="0.25" stroke-linecap="round" stroke-linejoin="round" stroke-miterlimit="10" points="
			943.921,10 943.921,219.763 939.386,219.763 939.386,10 		"/>
	</g>
	<g id="LINE_95_">
		
			<polyline fill="none" stroke="#000000" stroke-width="0.25" stroke-linecap="round" stroke-linejoin="round" stroke-miterlimit="10" points="
			968.299,10 968.299,219.763 963.764,219.763 963.764,10 		"/>
	</g>
	<g id="LINE_98_">
		
			<polyline fill="none" stroke="#000000" stroke-width="0.25" stroke-linecap="round" stroke-linejoin="round" stroke-miterlimit="10" points="
			992.677,10 992.677,219.763 988.142,219.763 988.142,10 		"/>
	</g>
	<g id="LINE_101_">
		
			<polyline fill="none" stroke="#000000" stroke-width="0.25" stroke-linecap="round" stroke-linejoin="round" stroke-miterlimit="10" points="
			1017.055,10 1017.055,219.763 1012.52,219.763 1012.52,10 		"/>
	</g>
	<g id="LINE_104_">
		
			<polyline fill="none" stroke="#000000" stroke-width="0.25" stroke-linecap="round" stroke-linejoin="round" stroke-miterlimit="10" points="
			1041.433,10 1041.433,219.763 1036.897,219.763 1036.897,10 		"/>
	</g>
	<g id="LINE_107_">
		
			<polyline fill="none" stroke="#000000" stroke-width="0.25" stroke-linecap="round" stroke-linejoin="round" stroke-miterlimit="10" points="
			1065.811,10 1065.811,219.763 1061.275,219.763 1061.275,10 		"/>
	</g>
	<g id="LINE_110_">
		
			<polyline fill="none" stroke="#000000" stroke-width="0.25" stroke-linecap="round" stroke-linejoin="round" stroke-miterlimit="10" points="
			1090.188,10 1090.188,219.763 1085.653,219.763 1085.653,10 		"/>
	</g>
	<g id="LINE_113_">
		
			<polyline fill="none" stroke="#000000" stroke-width="0.25" stroke-linecap="round" stroke-linejoin="round" stroke-miterlimit="10" points="
			1114.567,10 1114.567,219.763 1110.031,219.763 1110.031,10 		"/>
	</g>
	<g id="LINE_116_">
		
			<polyline fill="none" stroke="#000000" stroke-width="0.25" stroke-linecap="round" stroke-linejoin="round" stroke-miterlimit="10" points="
			1138.944,10 1138.944,219.763 1134.409,219.763 1134.409,10 		"/>
	</g>
	<g id="LINE_139_">
		
			<polygon fill="none" stroke="#000000" stroke-width="0.25" stroke-linecap="round" stroke-linejoin="round" stroke-miterlimit="10" points="
			1128.419,21.056 1127.698,21.994 1126.759,22.715 1125.665,23.168 1124.491,23.323 1123.317,23.168 1122.224,22.715 
			1121.284,21.994 1120.563,21.056 1120.11,19.961 1119.956,18.787 1120.11,17.613 1120.563,16.52 1121.284,15.58 1122.224,14.859 
			1123.317,14.406 1124.491,14.252 1125.665,14.406 1126.759,14.859 1127.698,15.58 1128.419,16.52 1128.872,17.613 
			1129.026,18.787 1128.872,19.961 		"/>
	</g>
	<g id="LINE_163_">
		
			<polygon fill="none" stroke="#000000" stroke-width="0.25" stroke-linecap="round" stroke-linejoin="round" stroke-miterlimit="10" points="
			415.263,22.715 414.323,21.994 413.603,21.056 413.149,19.961 412.995,18.787 413.149,17.613 413.603,16.52 414.323,15.58 
			415.263,14.859 416.356,14.406 417.53,14.252 418.704,14.406 419.798,14.859 420.737,15.58 421.458,16.52 421.911,17.613 
			422.065,18.787 421.911,19.961 421.458,21.056 420.737,21.994 419.798,22.715 418.704,23.168 417.53,23.323 416.356,23.168 		"/>
	</g>
	<g id="LINE_187_">
		
			<polygon fill="none" stroke="#000000" stroke-width="0.25" stroke-linecap="round" stroke-linejoin="round" stroke-miterlimit="10" points="
			236.153,262.979 234.979,263.134 233.806,262.979 232.712,262.526 231.772,261.806 231.052,260.866 230.599,259.772 
			230.443,258.599 230.599,257.425 231.052,256.331 231.772,255.392 232.712,254.671 233.806,254.218 234.979,254.063 
			236.153,254.218 237.247,254.671 238.187,255.392 238.907,256.331 239.36,257.425 239.515,258.599 239.36,259.772 
			238.907,260.866 238.187,261.806 237.247,262.526 		"/>
	</g>
	<g id="LINE_211_">
		
			<polygon fill="none" stroke="#000000" stroke-width="0.25" stroke-linecap="round" stroke-linejoin="round" stroke-miterlimit="10" points="
			49.593,14.859 50.687,14.406 51.86,14.252 53.034,14.406 54.128,14.859 55.067,15.58 55.788,16.52 56.241,17.613 56.396,18.787 
			56.241,19.961 55.788,21.056 55.067,21.994 54.128,22.715 53.034,23.168 51.86,23.323 50.687,23.168 49.593,22.715 48.653,21.994 
			47.933,21.056 47.479,19.961 47.325,18.787 47.479,17.613 47.933,16.52 48.653,15.58 		"/>
	</g>
	<g id="LINE_235_">
		
			<polygon fill="none" stroke="#000000" stroke-width="0.25" stroke-linecap="round" stroke-linejoin="round" stroke-miterlimit="10" points="
			604.576,260.866 603.855,261.806 602.916,262.526 601.822,262.979 600.648,263.134 599.475,262.979 598.38,262.526 
			597.441,261.806 596.72,260.866 596.268,259.772 596.112,258.599 596.268,257.425 596.72,256.331 597.441,255.392 598.38,254.671 
			599.475,254.218 600.648,254.063 601.822,254.218 602.916,254.671 603.855,255.392 604.576,256.331 605.029,257.425 
			605.184,258.599 605.029,259.772 		"/>
	</g>
	<g id="LINE_259_">
		
			<polygon fill="none" stroke="#000000" stroke-width="0.25" stroke-linecap="round" stroke-linejoin="round" stroke-miterlimit="10" points="
			783.2,14.252 784.374,14.406 785.468,14.859 786.407,15.58 787.128,16.52 787.581,17.613 787.735,18.787 787.581,19.961 
			787.128,21.056 786.407,21.994 785.468,22.715 784.374,23.168 783.2,23.323 782.025,23.168 780.932,22.715 779.993,21.994 
			779.271,21.056 778.818,19.961 778.664,18.787 778.818,17.613 779.271,16.52 779.993,15.58 780.932,14.859 782.025,14.406 		"/>
	</g>
	<g id="LINE_283_">
		
			<polygon fill="none" stroke="#000000" stroke-width="0.25" stroke-linecap="round" stroke-linejoin="round" stroke-miterlimit="10" points="
			964.05,262.526 963.11,261.806 962.39,260.866 961.937,259.772 961.782,258.599 961.937,257.425 962.39,256.331 963.11,255.392 
			964.05,254.671 965.144,254.218 966.317,254.063 967.491,254.218 968.585,254.671 969.524,255.392 970.245,256.331 
			970.698,257.425 970.853,258.599 970.698,259.772 970.245,260.866 969.524,261.806 968.585,262.526 967.491,262.979 
			966.317,263.134 965.144,262.979 		"/>
	</g>
	<g id="LINE_307_">
		
			<polygon fill="none" stroke="#000000" stroke-width="0.25" stroke-linecap="round" stroke-linejoin="round" stroke-miterlimit="10" points="
			27.288,206.651 27.144,205.55 27.288,204.45 27.713,203.425 28.389,202.544 29.27,201.868 30.295,201.442 31.396,201.298 
			32.495,201.442 33.521,201.868 34.401,202.544 35.077,203.425 35.503,204.45 35.647,205.55 35.503,206.651 35.077,207.677 
			34.401,208.556 33.521,209.231 32.495,209.657 31.396,209.802 30.295,209.657 29.269,209.231 28.389,208.556 27.713,207.677 		"/>
	</g>
	<g id="LINE_316_">
		
			<polyline fill="none" stroke="#000000" stroke-width="0.25" stroke-linecap="round" stroke-linejoin="round" stroke-miterlimit="10" points="
			787.452,271.071 787.452,255.763 791.136,255.763 791.136,248.394 787.452,248.394 787.452,245.56 778.947,245.56 
			778.947,248.394 775.263,248.394 775.263,255.763 778.947,255.763 778.947,271.071 		"/>
	</g>
	<g id="LINE_327_">
		
			<polyline fill="none" stroke="#000000" stroke-width="0.25" stroke-linecap="round" stroke-linejoin="round" stroke-miterlimit="10" points="
			1128.743,271.071 1128.743,255.763 1132.428,255.763 1132.428,248.394 1128.743,248.394 1128.743,245.56 1120.239,245.56 
			1120.239,248.394 1116.554,248.394 1116.554,255.763 1120.239,255.763 1120.239,271.071 		"/>
	</g>
	<g id="LINE_6327_">
		
			<polyline fill="none" stroke="#000000" stroke-width="0.25" stroke-linecap="round" stroke-linejoin="round" stroke-miterlimit="10" points="
			1147.868,10 1147.868,271.071 15.013,271.071 15.013,10 1147.87,10 1148.872,271.071 1148.872,532.141 15.013,532.141 
			15.013,271.071 		"/>
	</g>
</g>
</svg>
