<?xml version="1.0" encoding="utf-8"?>
<!-- Generator: Adobe Illustrator 16.0.0, SVG Export Plug-In . SVG Version: 6.00 Build 0)  -->
<!DOCTYPE svg PUBLIC "-//W3C//DTD SVG 1.1//EN" "http://www.w3.org/Graphics/SVG/1.1/DTD/svg11.dtd">
<svg version="1.1" id="Layer_1" xmlns="http://www.w3.org/2000/svg" xmlns:xlink="http://www.w3.org/1999/xlink" x="0px" y="0px"
	 width="1440px" height="864px" viewBox="0 0 1440 864" enable-background="new 0 0 1440 864" xml:space="preserve">
<g id="LINE_2439_">
	
		<polygon fill="none" stroke="#000000" stroke-width="0.25" stroke-linecap="round" stroke-linejoin="round" stroke-miterlimit="10" points="
		21.924,72.987 22.6,73.867 23.48,74.543 24.506,74.968 25.606,75.113 26.707,74.968 27.733,74.543 28.613,73.867 29.289,72.987 
		29.714,71.961 29.858,70.861 29.714,69.76 29.289,68.735 28.613,67.854 27.732,67.179 26.707,66.754 25.606,66.609 24.506,66.754 
		23.48,67.179 22.6,67.854 21.924,68.735 21.5,69.76 21.354,70.861 21.5,71.961 	"/>
</g>
<g id="LINE_2446_">
	
		<rect x="50.881" y="20.662" fill="none" stroke="#000000" stroke-width="0.25" stroke-linecap="round" stroke-linejoin="round" stroke-miterlimit="10" width="14.74" height="7.37"/>
</g>
<g id="LINE_2450_">
	
		<rect x="782.219" y="20.662" fill="none" stroke="#000000" stroke-width="0.25" stroke-linecap="round" stroke-linejoin="round" stroke-miterlimit="10" width="14.74" height="7.37"/>
</g>
<g id="LINE_2454_">
	
		<rect x="1123.51" y="20.662" fill="none" stroke="#000000" stroke-width="0.25" stroke-linecap="round" stroke-linejoin="round" stroke-miterlimit="10" width="14.74" height="7.37"/>
</g>
<g id="LINE_2476_">
	
		<polygon fill="none" stroke="#000000" stroke-width="0.25" stroke-linecap="round" stroke-linejoin="round" stroke-miterlimit="10" points="
		437.71,80.003 437.24,79.643 436.106,79.339 434.973,79.643 434.503,80.003 434.143,80.473 433.916,81.02 433.839,81.607 
		433.839,229.859 433.916,230.445 434.143,230.993 434.503,231.463 434.973,231.822 436.106,232.127 437.24,231.822 437.71,231.463 
		438.07,230.993 438.297,230.445 438.374,229.859 438.374,81.607 438.297,81.02 438.07,80.473 	"/>
</g>
<g id="LINE_2498_">
	
		<polygon fill="none" stroke="#000000" stroke-width="0.25" stroke-linecap="round" stroke-linejoin="round" stroke-miterlimit="10" points="
		458.881,231.463 459.351,231.822 460.484,232.127 461.618,231.822 462.088,231.463 462.448,230.993 462.675,230.445 
		462.752,229.859 462.752,81.607 462.675,81.02 462.448,80.473 462.088,80.003 461.618,79.643 460.484,79.339 459.351,79.643 
		458.881,80.003 458.521,80.473 458.294,81.02 458.217,81.607 458.217,229.859 458.294,230.445 458.521,230.993 	"/>
</g>
<g id="LINE_2520_">
	
		<polygon fill="none" stroke="#000000" stroke-width="0.25" stroke-linecap="round" stroke-linejoin="round" stroke-miterlimit="10" points="
		483.259,231.463 483.729,231.822 484.862,232.127 485.996,231.822 486.466,231.463 486.826,230.993 487.053,230.445 
		487.13,229.859 487.13,81.607 487.053,81.02 486.826,80.473 486.466,80.003 485.996,79.643 484.862,79.339 483.729,79.643 
		483.259,80.003 482.898,80.473 482.672,81.02 482.595,81.607 482.595,229.859 482.672,230.445 482.898,230.993 	"/>
</g>
<g id="LINE_2542_">
	
		<polygon fill="none" stroke="#000000" stroke-width="0.25" stroke-linecap="round" stroke-linejoin="round" stroke-miterlimit="10" points="
		507.637,231.463 508.106,231.822 509.24,232.127 510.374,231.822 510.844,231.463 511.204,230.993 511.431,230.445 
		511.508,229.859 511.508,81.607 511.431,81.02 511.204,80.473 510.844,80.003 510.374,79.643 509.24,79.339 508.106,79.643 
		507.637,80.003 507.276,80.473 507.05,81.02 506.973,81.607 506.973,229.859 507.05,230.445 507.276,230.993 	"/>
</g>
<g id="LINE_2564_">
	
		<polygon fill="none" stroke="#000000" stroke-width="0.25" stroke-linecap="round" stroke-linejoin="round" stroke-miterlimit="10" points="
		532.015,231.463 532.484,231.822 533.618,232.127 534.752,231.822 535.222,231.463 535.582,230.993 535.809,230.445 
		535.886,229.859 535.886,81.607 535.809,81.02 535.582,80.473 535.222,80.003 534.752,79.643 533.618,79.339 532.484,79.643 
		532.015,80.003 531.654,80.473 531.428,81.02 531.351,81.607 531.351,229.859 531.428,230.445 531.654,230.993 	"/>
</g>
<g id="LINE_2606_">
	
		<polygon fill="none" stroke="#000000" stroke-width="0.25" stroke-linecap="round" stroke-linejoin="round" stroke-miterlimit="10" points="
		559.96,230.993 559.6,231.463 559.13,231.822 557.996,232.127 557.229,231.975 556.393,231.463 556.032,230.993 555.806,230.445 
		555.729,229.859 555.729,81.607 555.806,81.02 556.032,80.473 556.393,80.003 556.862,79.643 557.996,79.339 559.13,79.643 
		559.6,80.003 559.96,80.473 560.187,81.02 560.264,81.607 560.264,229.859 560.187,230.445 	"/>
</g>
<g id="LINE_2632_">
	
		<polygon fill="none" stroke="#000000" stroke-width="0.25" stroke-linecap="round" stroke-linejoin="round" stroke-miterlimit="10" points="
		602.503,17.828 602.657,19.001 603.11,20.095 603.831,21.035 604.771,21.755 605.864,22.208 607.038,22.363 608.212,22.208 
		609.306,21.755 610.245,21.035 610.966,20.095 611.419,19.001 611.573,17.828 611.419,16.654 610.966,15.56 610.245,14.621 
		609.306,13.899 608.212,13.447 607.038,13.292 605.864,13.447 604.771,13.899 603.831,14.621 603.11,15.56 602.657,16.654 	"/>
</g>
<g id="LINE_2654_">
	
		<polygon fill="none" stroke="#000000" stroke-width="0.25" stroke-linecap="round" stroke-linejoin="round" stroke-miterlimit="10" points="
		653.905,231.463 654.374,231.822 655.509,232.127 656.642,231.822 657.112,231.463 657.472,230.993 657.698,230.445 
		657.776,229.859 657.776,81.607 657.698,81.02 657.472,80.473 657.112,80.003 656.642,79.643 655.509,79.339 654.374,79.643 
		653.905,80.003 653.544,80.473 653.317,81.02 653.24,81.607 653.24,229.859 653.317,230.445 653.544,230.993 	"/>
</g>
<g id="LINE_2676_">
	
		<polygon fill="none" stroke="#000000" stroke-width="0.25" stroke-linecap="round" stroke-linejoin="round" stroke-miterlimit="10" points="
		678.282,231.463 678.752,231.822 679.886,232.127 681.021,231.822 681.489,231.463 681.851,230.993 682.077,230.445 
		682.153,229.859 682.153,81.607 682.077,81.02 681.851,80.473 681.489,80.003 681.021,79.643 679.886,79.339 678.752,79.643 
		678.282,80.003 677.923,80.473 677.696,81.02 677.618,81.607 677.618,229.859 677.696,230.445 677.923,230.993 	"/>
</g>
<g id="LINE_2698_">
	
		<polygon fill="none" stroke="#000000" stroke-width="0.25" stroke-linecap="round" stroke-linejoin="round" stroke-miterlimit="10" points="
		702.661,231.463 703.13,231.822 704.265,232.127 705.397,231.822 705.868,231.463 706.228,230.993 706.454,230.445 
		706.532,229.859 706.532,81.607 706.454,81.02 706.228,80.473 705.868,80.003 705.397,79.643 704.265,79.339 703.13,79.643 
		702.661,80.003 702.3,80.473 702.073,81.02 701.996,81.607 701.996,229.859 702.073,230.445 702.3,230.993 	"/>
</g>
<g id="LINE_2720_">
	
		<polygon fill="none" stroke="#000000" stroke-width="0.25" stroke-linecap="round" stroke-linejoin="round" stroke-miterlimit="10" points="
		727.037,231.463 727.508,231.822 728.641,232.127 729.775,231.822 730.244,231.463 730.605,230.993 730.832,230.445 
		730.908,229.859 730.908,81.607 730.832,81.02 730.605,80.473 730.244,80.003 729.775,79.643 728.641,79.339 727.508,79.643 
		727.037,80.003 726.678,80.473 726.451,81.02 726.373,81.607 726.373,229.859 726.451,230.445 726.678,230.993 	"/>
</g>
<g id="LINE_2742_">
	
		<polygon fill="none" stroke="#000000" stroke-width="0.25" stroke-linecap="round" stroke-linejoin="round" stroke-miterlimit="10" points="
		751.416,231.463 751.885,231.822 753.02,232.127 754.152,231.822 754.623,231.463 754.982,230.993 755.209,230.445 
		755.287,229.859 755.287,81.607 755.209,81.02 754.982,80.473 754.623,80.003 754.152,79.643 753.02,79.339 751.885,79.643 
		751.416,80.003 751.055,80.473 750.828,81.02 750.752,81.607 750.752,229.859 750.828,230.445 751.055,230.993 	"/>
</g>
<g id="LINE_2764_">
	
		<polygon fill="none" stroke="#000000" stroke-width="0.25" stroke-linecap="round" stroke-linejoin="round" stroke-miterlimit="10" points="
		775.793,231.463 776.264,231.822 777.396,232.127 778.531,231.822 779,231.463 779.361,230.993 779.588,230.445 779.664,229.859 
		779.664,81.607 779.588,81.02 779.361,80.473 779,80.003 778.531,79.643 777.396,79.339 776.264,79.643 775.793,80.003 
		775.434,80.473 775.207,81.02 775.129,81.607 775.129,229.859 775.207,230.445 775.434,230.993 	"/>
</g>
<g id="LINE_2786_">
	
		<polygon fill="none" stroke="#000000" stroke-width="0.25" stroke-linecap="round" stroke-linejoin="round" stroke-miterlimit="10" points="
		800.172,231.463 800.641,231.822 801.775,232.127 802.908,231.822 803.379,231.463 803.738,230.993 803.965,230.445 
		804.043,229.859 804.043,81.607 803.965,81.02 803.738,80.473 803.379,80.003 802.908,79.643 801.775,79.339 800.641,79.643 
		800.172,80.003 799.811,80.473 799.584,81.02 799.508,81.607 799.508,229.859 799.584,230.445 799.811,230.993 	"/>
</g>
<g id="LINE_2808_">
	
		<polygon fill="none" stroke="#000000" stroke-width="0.25" stroke-linecap="round" stroke-linejoin="round" stroke-miterlimit="10" points="
		824.549,231.463 825.02,231.822 826.152,232.127 827.287,231.822 827.756,231.463 828.117,230.993 828.344,230.445 828.42,229.859 
		828.42,81.607 828.344,81.02 828.117,80.473 827.756,80.003 827.287,79.643 826.152,79.339 825.02,79.643 824.549,80.003 
		824.189,80.473 823.963,81.02 823.885,81.607 823.885,229.859 823.963,230.445 824.189,230.993 	"/>
</g>
<g id="LINE_2830_">
	
		<polygon fill="none" stroke="#000000" stroke-width="0.25" stroke-linecap="round" stroke-linejoin="round" stroke-miterlimit="10" points="
		848.928,231.463 849.396,231.822 850.531,232.127 851.664,231.822 852.135,231.463 852.494,230.993 852.721,230.445 
		852.799,229.859 852.799,81.607 852.721,81.02 852.494,80.473 852.135,80.003 851.664,79.643 850.531,79.339 849.396,79.643 
		848.928,80.003 848.566,80.473 848.34,81.02 848.264,81.607 848.264,229.859 848.34,230.445 848.566,230.993 	"/>
</g>
<g id="LINE_2852_">
	
		<polygon fill="none" stroke="#000000" stroke-width="0.25" stroke-linecap="round" stroke-linejoin="round" stroke-miterlimit="10" points="
		873.305,231.463 873.775,231.822 874.908,232.127 876.043,231.822 876.512,231.463 876.873,230.993 877.1,230.445 877.176,229.859 
		877.176,81.607 877.1,81.02 876.873,80.473 876.512,80.003 876.043,79.643 874.908,79.339 873.775,79.643 873.305,80.003 
		872.945,80.473 872.719,81.02 872.641,81.607 872.641,229.859 872.719,230.445 872.945,230.993 	"/>
</g>
<g id="LINE_2891_">
	
		<polygon fill="none" stroke="#000000" stroke-width="0.25" stroke-linecap="round" stroke-linejoin="round" stroke-miterlimit="10" points="
		1128.613,253.711 1127.674,254.432 1126.953,255.371 1126.5,256.465 1126.346,257.639 1126.5,258.813 1126.953,259.906 
		1127.674,260.846 1128.613,261.566 1129.707,262.02 1130.881,262.174 1132.055,262.02 1133.148,261.566 1134.088,260.846 
		1134.809,259.906 1135.262,258.813 1135.416,257.639 1135.262,256.465 1134.809,255.371 1134.088,254.432 1133.148,253.711 
		1132.055,253.258 1130.881,253.104 1129.707,253.258 	"/>
</g>
<g id="LINE_2915_">
	
		<polygon fill="none" stroke="#000000" stroke-width="0.25" stroke-linecap="round" stroke-linejoin="round" stroke-miterlimit="10" points="
		786.383,260.846 787.32,261.566 788.416,262.02 789.59,262.174 790.764,262.02 791.857,261.566 792.797,260.846 793.518,259.906 
		793.971,258.813 794.125,257.639 793.971,256.465 793.518,255.371 792.797,254.432 791.857,253.711 790.764,253.258 
		789.59,253.104 788.416,253.258 787.32,253.711 786.383,254.432 785.662,255.371 785.209,256.465 785.053,257.639 785.209,258.813 
		785.662,259.906 	"/>
</g>
<g id="LINE_2919_">
	
		<rect x="416.55" y="20.662" fill="none" stroke="#000000" stroke-width="0.25" stroke-linecap="round" stroke-linejoin="round" stroke-miterlimit="10" width="14.74" height="7.37"/>
</g>
<g id="LINE_2943_">
	
		<polygon fill="none" stroke="#000000" stroke-width="0.25" stroke-linecap="round" stroke-linejoin="round" stroke-miterlimit="10" points="
		423.92,253.104 422.747,253.258 421.653,253.711 420.713,254.432 419.993,255.371 419.54,256.465 419.385,257.639 419.54,258.813 
		419.993,259.906 420.713,260.846 421.653,261.566 422.747,262.02 423.92,262.174 425.094,262.02 426.188,261.566 427.127,260.846 
		427.848,259.906 428.301,258.813 428.456,257.639 428.301,256.465 427.848,255.371 427.127,254.432 426.188,253.711 
		425.094,253.258 	"/>
</g>
<g id="LINE_2967_">
	
		<polygon fill="none" stroke="#000000" stroke-width="0.25" stroke-linecap="round" stroke-linejoin="round" stroke-miterlimit="10" points="
		243.637,13.899 242.543,13.447 241.369,13.292 240.195,13.447 239.102,13.899 238.162,14.621 237.441,15.56 236.988,16.654 
		236.834,17.828 236.988,19.001 237.441,20.095 238.162,21.035 239.102,21.755 240.195,22.208 241.369,22.363 242.543,22.208 
		243.637,21.755 244.576,21.035 245.297,20.095 245.75,19.001 245.905,17.828 245.75,16.654 245.297,15.56 244.576,14.621 	"/>
</g>
<g id="LINE_2987_">
	
		<polygon fill="none" stroke="#000000" stroke-width="0.25" stroke-linecap="round" stroke-linejoin="round" stroke-miterlimit="10" points="
		971.533,13.447 970.439,13.899 969.5,14.621 968.779,15.56 968.326,16.654 968.172,17.828 968.326,19.001 968.779,20.095 
		969.5,21.035 970.439,21.755 971.533,22.208 972.707,22.363 973.881,22.208 974.975,21.755 975.914,21.035 976.635,20.095 
		977.088,19.001 977.242,17.828 977.088,16.654 976.635,15.56 975.914,14.621 974.975,13.899 973.881,13.447 972.707,13.292 	"/>
</g>
<g id="LINE_3011_">
	
		<polygon fill="none" stroke="#000000" stroke-width="0.25" stroke-linecap="round" stroke-linejoin="round" stroke-miterlimit="10" points="
		57.077,262.02 58.251,262.174 59.425,262.02 60.519,261.566 61.458,260.846 62.179,259.906 62.632,258.813 62.787,257.639 
		62.632,256.465 62.179,255.371 61.458,254.432 60.519,253.711 59.425,253.258 58.251,253.104 57.077,253.258 55.983,253.711 
		55.044,254.432 54.323,255.371 53.87,256.465 53.716,257.639 53.87,258.813 54.323,259.906 55.044,260.846 55.983,261.566 	"/>
</g>
<g id="LINE_3013_">
	
		<polygon fill="none" stroke="#000000" stroke-width="0.25" stroke-linecap="round" stroke-linejoin="round" stroke-miterlimit="10" points="
		580.771,231.463 581.24,231.822 582.374,232.127 583.509,231.822 583.978,231.463 584.339,230.993 584.564,230.445 
		584.642,229.859 584.642,81.607 584.564,81.02 584.339,80.473 583.978,80.003 583.142,79.491 582.374,79.339 581.24,79.643 
		580.771,80.003 580.41,80.473 580.184,81.02 580.106,81.607 580.106,229.859 580.184,230.445 580.41,230.993 	"/>
</g>
<g id="LINE_3035_">
	
		<polygon fill="none" stroke="#000000" stroke-width="0.25" stroke-linecap="round" stroke-linejoin="round" stroke-miterlimit="10" points="
		605.148,231.463 605.618,231.822 606.752,232.127 607.886,231.822 608.355,231.463 608.716,230.993 608.942,230.445 
		609.021,229.859 609.021,81.607 608.942,81.02 608.716,80.473 608.355,80.003 607.886,79.643 606.752,79.339 605.618,79.643 
		605.148,80.003 604.788,80.473 604.562,81.02 604.484,81.607 604.484,229.859 604.562,230.445 604.788,230.993 	"/>
</g>
<g id="LINE_3054_">
	
		<polygon fill="none" stroke="#000000" stroke-width="0.25" stroke-linecap="round" stroke-linejoin="round" stroke-miterlimit="10" points="
		632.265,231.822 632.733,231.463 633.095,230.993 633.321,230.445 633.397,229.859 633.397,81.607 633.321,81.02 633.095,80.473 
		632.733,80.003 632.265,79.643 631.13,79.339 629.996,79.643 629.526,80.003 629.166,80.473 628.94,81.02 628.862,81.607 
		628.862,229.859 628.94,230.445 629.166,230.993 629.526,231.463 629.996,231.822 631.13,232.127 	"/>
</g>
<g id="LINE_3065_">
	
		<polygon fill="none" stroke="#000000" stroke-width="0.25" stroke-linecap="round" stroke-linejoin="round" stroke-miterlimit="10" points="
		897.684,231.463 898.152,231.822 899.287,232.127 900.42,231.822 900.891,231.463 901.25,230.993 901.477,230.445 901.555,229.859 
		901.555,81.607 901.477,81.02 901.25,80.473 900.891,80.003 900.42,79.643 899.287,79.339 898.152,79.643 897.684,80.003 
		897.322,80.473 897.096,81.02 897.02,81.607 897.02,229.859 897.096,230.445 897.322,230.993 	"/>
</g>
<g id="LINE_3087_">
	
		<polygon fill="none" stroke="#000000" stroke-width="0.25" stroke-linecap="round" stroke-linejoin="round" stroke-miterlimit="10" points="
		922.061,231.463 922.531,231.822 923.664,232.127 924.799,231.822 925.268,231.463 925.629,230.993 925.855,230.445 
		925.932,229.859 925.932,81.607 925.855,81.02 925.629,80.473 925.268,80.003 924.799,79.643 923.664,79.339 922.531,79.643 
		922.061,80.003 921.701,80.473 921.475,81.02 921.396,81.607 921.396,229.859 921.475,230.445 921.701,230.993 	"/>
</g>
<g id="LINE_3109_">
	
		<polygon fill="none" stroke="#000000" stroke-width="0.25" stroke-linecap="round" stroke-linejoin="round" stroke-miterlimit="10" points="
		946.439,231.463 946.908,231.822 948.043,232.127 949.176,231.822 949.646,231.463 950.006,230.993 950.232,230.445 
		950.311,229.859 950.311,81.607 950.232,81.02 950.006,80.473 949.646,80.003 949.176,79.643 948.043,79.339 946.908,79.643 
		946.439,80.003 946.078,80.473 945.852,81.02 945.775,81.607 945.775,229.859 945.852,230.445 946.078,230.993 	"/>
</g>
<g id="LINE_3131_">
	
		<polygon fill="none" stroke="#000000" stroke-width="0.25" stroke-linecap="round" stroke-linejoin="round" stroke-miterlimit="10" points="
		970.816,231.463 971.287,231.822 972.42,232.127 973.555,231.822 974.023,231.463 974.385,230.993 974.611,230.445 
		974.688,229.859 974.688,81.607 974.611,81.02 974.385,80.473 974.023,80.003 973.555,79.643 972.42,79.339 971.287,79.643 
		970.816,80.003 970.457,80.473 970.23,81.02 970.152,81.607 970.152,229.859 970.23,230.445 970.457,230.993 	"/>
</g>
<g id="LINE_3153_">
	
		<polygon fill="none" stroke="#000000" stroke-width="0.25" stroke-linecap="round" stroke-linejoin="round" stroke-miterlimit="10" points="
		995.195,231.463 995.664,231.822 996.799,232.127 997.932,231.822 998.402,231.463 998.762,230.993 998.988,230.445 
		999.066,229.859 999.066,81.607 998.988,81.02 998.762,80.473 998.402,80.003 997.932,79.643 996.799,79.339 995.664,79.643 
		995.195,80.003 994.834,80.473 994.607,81.02 994.531,81.607 994.531,229.859 994.607,230.445 994.834,230.993 	"/>
</g>
<g id="LINE_3175_">
	
		<polygon fill="none" stroke="#000000" stroke-width="0.25" stroke-linecap="round" stroke-linejoin="round" stroke-miterlimit="10" points="
		1019.572,231.463 1020.043,231.822 1021.176,232.127 1022.311,231.822 1022.779,231.463 1023.141,230.993 1023.367,230.445 
		1023.443,229.859 1023.443,81.607 1023.367,81.02 1023.141,80.473 1022.779,80.003 1022.311,79.643 1021.176,79.339 
		1020.043,79.643 1019.572,80.003 1019.213,80.473 1018.986,81.02 1018.908,81.607 1018.908,229.859 1018.986,230.445 
		1019.213,230.993 	"/>
</g>
<g id="LINE_3197_">
	
		<polygon fill="none" stroke="#000000" stroke-width="0.25" stroke-linecap="round" stroke-linejoin="round" stroke-miterlimit="10" points="
		1043.951,231.463 1044.42,231.822 1045.555,232.127 1046.688,231.822 1047.158,231.463 1047.518,230.993 1047.744,230.445 
		1047.822,229.859 1047.822,81.607 1047.744,81.02 1047.518,80.473 1047.158,80.003 1046.688,79.643 1045.555,79.339 
		1044.42,79.643 1043.951,80.003 1043.59,80.473 1043.363,81.02 1043.287,81.607 1043.287,229.859 1043.363,230.445 
		1043.59,230.993 	"/>
</g>
<g id="LINE_3219_">
	
		<polygon fill="none" stroke="#000000" stroke-width="0.25" stroke-linecap="round" stroke-linejoin="round" stroke-miterlimit="10" points="
		1068.328,231.463 1068.799,231.822 1069.932,232.127 1071.066,231.822 1071.535,231.463 1071.896,230.993 1072.123,230.445 
		1072.201,229.859 1072.201,81.607 1072.123,81.02 1071.896,80.473 1071.535,80.003 1071.066,79.643 1069.932,79.339 
		1068.799,79.643 1068.328,80.003 1067.969,80.473 1067.742,81.02 1067.664,81.607 1067.664,229.859 1067.742,230.445 
		1067.969,230.993 	"/>
</g>
<g id="LINE_3241_">
	
		<polygon fill="none" stroke="#000000" stroke-width="0.25" stroke-linecap="round" stroke-linejoin="round" stroke-miterlimit="10" points="
		1092.707,231.463 1093.176,231.822 1094.311,232.127 1095.443,231.822 1095.914,231.463 1096.273,230.993 1096.5,230.445 
		1096.578,229.859 1096.578,81.607 1096.5,81.02 1096.273,80.473 1095.914,80.003 1095.443,79.643 1094.311,79.339 1093.176,79.643 
		1092.707,80.003 1092.346,80.473 1092.119,81.02 1092.043,81.607 1092.043,229.859 1092.119,230.445 1092.346,230.993 	"/>
</g>
<g id="LINE_3263_">
	
		<polygon fill="none" stroke="#000000" stroke-width="0.25" stroke-linecap="round" stroke-linejoin="round" stroke-miterlimit="10" points="
		1117.084,231.463 1117.555,231.822 1118.688,232.127 1119.822,231.822 1120.291,231.463 1120.652,230.993 1120.879,230.445 
		1120.957,229.859 1120.957,81.607 1120.879,81.02 1120.652,80.473 1120.291,80.003 1119.822,79.643 1118.688,79.339 
		1117.555,79.643 1117.084,80.003 1116.725,80.473 1116.498,81.02 1116.42,81.607 1116.42,229.859 1116.498,230.445 
		1116.725,230.993 	"/>
</g>
<g id="LINE_3285_">
	
		<polygon fill="none" stroke="#000000" stroke-width="0.25" stroke-linecap="round" stroke-linejoin="round" stroke-miterlimit="10" points="
		1141.463,231.463 1141.932,231.822 1143.066,232.127 1144.201,231.822 1144.67,231.463 1145.031,230.993 1145.256,230.445 
		1145.334,229.859 1145.334,81.607 1145.256,81.02 1145.031,80.473 1144.67,80.003 1144.201,79.643 1143.066,79.339 
		1141.932,79.643 1141.463,80.003 1141.102,80.473 1140.875,81.02 1140.799,81.607 1140.799,229.859 1140.875,230.445 
		1141.102,230.993 	"/>
</g>
<g id="LINE_3328_">
	
		<polygon fill="none" stroke="#000000" stroke-width="0.25" stroke-linecap="round" stroke-linejoin="round" stroke-miterlimit="10" points="
		414.642,752.588 414.415,753.137 414.056,753.605 413.585,753.965 412.452,754.27 411.317,753.965 410.849,753.605 
		410.487,753.137 410.261,752.588 410.183,752.002 410.183,603.75 410.261,603.162 410.487,602.615 410.849,602.146 
		411.317,601.785 412.452,601.482 413.585,601.785 414.056,602.146 414.415,602.615 414.642,603.162 414.72,603.75 414.72,752.002 	
		"/>
</g>
<g id="LINE_3377_">
	
		<polygon fill="none" stroke="#000000" stroke-width="0.25" stroke-linecap="round" stroke-linejoin="round" stroke-miterlimit="10" points="
		219.03,602.146 218.562,601.785 217.427,601.482 216.294,601.785 215.823,602.146 215.464,602.615 215.237,603.162 215.159,603.75 
		215.159,752.002 215.237,752.588 215.464,753.137 215.823,753.605 216.294,753.965 217.427,754.27 218.562,753.965 219.03,753.605 
		219.392,753.137 219.618,752.588 219.696,752.002 219.696,603.75 219.618,603.162 219.392,602.615 	"/>
</g>
<g id="LINE_3399_">
	
		<polygon fill="none" stroke="#000000" stroke-width="0.25" stroke-linecap="round" stroke-linejoin="round" stroke-miterlimit="10" points="
		194.653,602.146 194.183,601.785 193.05,601.482 191.915,601.785 191.446,602.146 191.085,602.615 190.858,603.162 190.782,603.75 
		190.782,752.002 190.858,752.588 191.085,753.137 191.446,753.605 191.915,753.965 193.05,754.27 194.183,753.965 194.653,753.605 
		195.013,753.137 195.239,752.588 195.317,752.002 195.317,603.75 195.239,603.162 195.013,602.615 	"/>
</g>
<g id="LINE_3421_">
	
		<polygon fill="none" stroke="#000000" stroke-width="0.25" stroke-linecap="round" stroke-linejoin="round" stroke-miterlimit="10" points="
		170.274,602.146 169.806,601.785 168.671,601.482 167.538,601.785 167.067,602.146 166.708,602.615 166.481,603.162 
		166.403,603.75 166.403,752.002 166.481,752.588 166.708,753.137 167.067,753.605 167.538,753.965 168.671,754.27 169.806,753.965 
		170.274,753.605 170.636,753.137 170.862,752.588 170.94,752.002 170.94,603.75 170.862,603.162 170.636,602.615 	"/>
</g>
<g id="LINE_3442_">
	
		<polygon fill="none" stroke="#000000" stroke-width="0.25" stroke-linecap="round" stroke-linejoin="round" stroke-miterlimit="10" points="
		145.427,601.785 144.294,601.482 143.159,601.785 142.69,602.146 142.329,602.615 142.103,603.162 142.026,603.75 142.026,752.002 
		142.103,752.588 142.329,753.137 142.69,753.605 143.159,753.965 144.294,754.27 145.427,753.965 145.897,753.605 146.257,753.137 
		146.483,752.588 146.562,752.002 146.562,603.75 146.483,603.162 146.257,602.615 145.897,602.146 	"/>
</g>
<g id="LINE_3469_">
	
		<polygon fill="none" stroke="#000000" stroke-width="0.25" stroke-linecap="round" stroke-linejoin="round" stroke-miterlimit="10" points="
		73.351,752.588 73.124,753.137 72.763,753.605 72.294,753.965 71.159,754.27 70.026,753.965 69.556,753.605 69.196,753.137 
		68.97,752.588 68.892,752.002 68.892,603.75 68.97,603.162 69.196,602.615 69.556,602.146 70.026,601.785 71.159,601.482 
		72.294,601.785 72.763,602.146 73.124,602.615 73.351,603.162 73.427,603.75 73.427,752.002 	"/>
</g>
<g id="LINE_3491_">
	
		<polygon fill="none" stroke="#000000" stroke-width="0.25" stroke-linecap="round" stroke-linejoin="round" stroke-miterlimit="10" points="
		48.972,752.588 48.745,753.137 48.386,753.605 47.915,753.965 46.782,754.27 45.647,753.965 45.179,753.605 44.817,753.137 
		44.591,752.588 44.515,752.002 44.515,603.75 44.591,603.162 44.817,602.615 45.179,602.146 45.647,601.785 46.782,601.482 
		47.915,601.785 48.386,602.146 48.745,602.615 48.972,603.162 49.05,603.75 49.05,752.002 	"/>
</g>
<g id="LINE_3513_">
	
		<polygon fill="none" stroke="#000000" stroke-width="0.25" stroke-linecap="round" stroke-linejoin="round" stroke-miterlimit="10" points="
		24.595,752.588 24.368,753.137 24.007,753.605 23.538,753.965 22.403,754.27 21.271,753.965 20.8,753.605 20.44,753.137 
		20.214,752.588 20.136,752.002 20.136,603.75 20.214,603.162 20.44,602.615 20.8,602.146 21.271,601.785 22.403,601.482 
		23.538,601.785 24.007,602.146 24.368,602.615 24.595,603.162 24.671,603.75 24.671,752.002 	"/>
</g>
<g id="LINE_3537_">
	
		<polygon fill="none" stroke="#000000" stroke-width="0.25" stroke-linecap="round" stroke-linejoin="round" stroke-miterlimit="10" points="
		1118.545,589.998 1119.221,590.878 1119.646,591.903 1119.791,593.004 1119.646,594.104 1119.221,595.13 1118.545,596.01 
		1117.664,596.686 1116.639,597.111 1115.539,597.256 1114.438,597.111 1113.412,596.686 1112.533,596.01 1111.857,595.13 
		1111.432,594.104 1111.287,593.004 1111.432,591.903 1111.857,590.878 1112.533,589.998 1113.412,589.322 1114.438,588.896 
		1115.539,588.752 1116.639,588.896 1117.664,589.322 	"/>
</g>
<g id="LINE_3563_">
	
		<polygon fill="none" stroke="#000000" stroke-width="0.25" stroke-linecap="round" stroke-linejoin="round" stroke-miterlimit="10" points="
		188.228,539.971 188.382,541.145 188.835,542.238 189.556,543.178 190.495,543.898 191.589,544.352 192.763,544.506 
		193.937,544.352 195.03,543.898 195.97,543.178 196.69,542.238 197.144,541.145 197.298,539.971 197.144,538.797 196.69,537.703 
		195.97,536.764 195.03,536.043 193.937,535.59 192.763,535.436 191.589,535.59 190.495,536.043 189.556,536.764 188.835,537.703 
		188.382,538.797 	"/>
</g>
<g id="LINE_3587_">
	
		<polygon fill="none" stroke="#000000" stroke-width="0.25" stroke-linecap="round" stroke-linejoin="round" stroke-miterlimit="10" points="
		926.371,536.043 925.277,535.59 924.104,535.436 922.93,535.59 921.836,536.043 920.896,536.764 920.176,537.703 919.723,538.797 
		919.568,539.971 919.723,541.145 920.176,542.238 920.896,543.178 921.836,543.898 922.93,544.352 924.104,544.506 
		925.277,544.352 926.371,543.898 927.311,543.178 928.031,542.238 928.484,541.145 928.639,539.971 928.484,538.797 
		928.031,537.703 927.311,536.764 	"/>
</g>
<g id="LINE_3611_">
	
		<polygon fill="none" stroke="#000000" stroke-width="0.25" stroke-linecap="round" stroke-linejoin="round" stroke-miterlimit="10" points="
		562.968,539.971 562.813,538.797 562.36,537.703 561.64,536.764 560.7,536.043 559.606,535.59 558.433,535.436 557.259,535.59 
		556.165,536.043 555.226,536.764 554.505,537.703 554.052,538.797 553.897,539.971 554.052,541.145 554.505,542.238 
		555.226,543.178 556.165,543.898 557.259,544.352 558.433,544.506 559.606,544.352 560.7,543.898 561.64,543.178 562.36,542.238 
		562.813,541.145 	"/>
</g>
<g id="LINE_3615_">
	
		<rect x="368.511" y="542.805" fill="none" stroke="#000000" stroke-width="0.25" stroke-linecap="round" stroke-linejoin="round" stroke-miterlimit="10" width="14.74" height="7.371"/>
</g>
<g id="LINE_3619_">
	
		<rect x="734.182" y="542.805" fill="none" stroke="#000000" stroke-width="0.25" stroke-linecap="round" stroke-linejoin="round" stroke-miterlimit="10" width="14.74" height="7.371"/>
</g>
<g id="LINE_3623_">
	
		<rect x="27.22" y="542.805" fill="none" stroke="#000000" stroke-width="0.25" stroke-linecap="round" stroke-linejoin="round" stroke-miterlimit="10" width="14.74" height="7.371"/>
</g>
<g id="LINE_3627_">
	
		<rect x="1099.852" y="542.805" fill="none" stroke="#000000" stroke-width="0.25" stroke-linecap="round" stroke-linejoin="round" stroke-miterlimit="10" width="14.74" height="7.371"/>
</g>
<g id="LINE_3649_">
	
		<polygon fill="none" stroke="#000000" stroke-width="0.25" stroke-linecap="round" stroke-linejoin="round" stroke-miterlimit="10" points="
		731.33,602.615 730.969,602.146 730.5,601.785 729.365,601.482 728.232,601.785 727.762,602.146 727.402,602.615 727.176,603.162 
		727.098,603.75 727.098,752.002 727.176,752.588 727.402,753.137 727.762,753.605 728.232,753.965 729.365,754.27 730.5,753.965 
		730.969,753.605 731.33,753.137 731.557,752.588 731.633,752.002 731.633,603.75 731.557,603.162 	"/>
</g>
<g id="LINE_3671_">
	
		<polygon fill="none" stroke="#000000" stroke-width="0.25" stroke-linecap="round" stroke-linejoin="round" stroke-miterlimit="10" points="
		706.59,602.146 706.12,601.785 704.987,601.482 703.853,601.785 703.384,602.146 703.023,602.615 702.796,603.162 702.72,603.75 
		702.72,752.002 702.796,752.588 703.023,753.137 703.384,753.605 703.853,753.965 704.987,754.27 706.12,753.965 706.59,753.605 
		706.95,753.137 707.176,752.588 707.254,752.002 707.254,603.75 707.176,603.162 706.95,602.615 	"/>
</g>
<g id="LINE_3693_">
	
		<polygon fill="none" stroke="#000000" stroke-width="0.25" stroke-linecap="round" stroke-linejoin="round" stroke-miterlimit="10" points="
		682.212,602.146 681.743,601.785 680.608,601.482 679.476,601.785 679.005,602.146 678.646,602.615 678.419,603.162 
		678.341,603.75 678.341,752.002 678.419,752.588 678.646,753.137 679.005,753.605 679.476,753.965 680.608,754.27 681.743,753.965 
		682.212,753.605 682.573,753.137 682.8,752.588 682.876,752.002 682.876,603.75 682.8,603.162 682.573,602.615 	"/>
</g>
<g id="LINE_3715_">
	
		<polygon fill="none" stroke="#000000" stroke-width="0.25" stroke-linecap="round" stroke-linejoin="round" stroke-miterlimit="10" points="
		657.835,602.146 657.364,601.785 656.231,601.482 655.097,601.785 654.628,602.146 654.267,602.615 654.04,603.162 653.964,603.75 
		653.964,752.002 654.04,752.588 654.267,753.137 654.628,753.605 655.097,753.965 656.231,754.27 657.364,753.965 657.835,753.605 
		658.194,753.137 658.421,752.588 658.499,752.002 658.499,603.75 658.421,603.162 658.194,602.615 	"/>
</g>
<g id="LINE_3737_">
	
		<polygon fill="none" stroke="#000000" stroke-width="0.25" stroke-linecap="round" stroke-linejoin="round" stroke-miterlimit="10" points="
		633.456,602.146 632.987,601.785 631.853,601.482 630.72,601.785 630.249,602.146 629.89,602.615 629.663,603.162 629.585,603.75 
		629.585,752.002 629.663,752.588 629.89,753.137 630.249,753.605 630.72,753.965 631.853,754.27 632.987,753.965 633.456,753.605 
		633.817,753.137 634.044,752.588 634.12,752.002 634.12,603.75 634.044,603.162 633.817,602.615 	"/>
</g>
<g id="LINE_3759_">
	
		<polygon fill="none" stroke="#000000" stroke-width="0.25" stroke-linecap="round" stroke-linejoin="round" stroke-miterlimit="10" points="
		609.079,602.146 608.608,601.785 607.476,601.482 606.341,601.785 605.872,602.146 605.511,602.615 605.284,603.162 
		605.208,603.75 605.208,752.002 605.284,752.588 605.511,753.137 605.872,753.605 606.341,753.965 607.476,754.27 608.608,753.965 
		609.079,753.605 609.438,753.137 609.665,752.588 609.743,752.002 609.743,603.75 609.665,603.162 609.438,602.615 	"/>
</g>
<g id="LINE_3781_">
	
		<polygon fill="none" stroke="#000000" stroke-width="0.25" stroke-linecap="round" stroke-linejoin="round" stroke-miterlimit="10" points="
		584.7,602.146 584.231,601.785 583.097,601.482 581.964,601.785 581.493,602.146 581.134,602.615 580.907,603.162 580.829,603.75 
		580.829,752.002 580.907,752.588 581.134,753.137 581.493,753.605 581.964,753.965 583.097,754.27 584.231,753.965 584.7,753.605 
		585.062,753.137 585.288,752.588 585.364,752.002 585.364,603.75 585.288,603.162 585.062,602.615 	"/>
</g>
<g id="LINE_3803_">
	
		<polygon fill="none" stroke="#000000" stroke-width="0.25" stroke-linecap="round" stroke-linejoin="round" stroke-miterlimit="10" points="
		560.323,602.146 559.853,601.785 558.72,601.482 557.585,601.785 557.116,602.146 556.755,602.615 556.528,603.162 556.452,603.75 
		556.452,752.002 556.528,752.588 556.755,753.137 557.116,753.605 557.585,753.965 558.72,754.27 559.853,753.965 560.323,753.605 
		560.683,753.137 560.909,752.588 560.987,752.002 560.987,603.75 560.909,603.162 560.683,602.615 	"/>
</g>
<g id="LINE_3825_">
	
		<polygon fill="none" stroke="#000000" stroke-width="0.25" stroke-linecap="round" stroke-linejoin="round" stroke-miterlimit="10" points="
		535.944,602.146 535.476,601.785 534.341,601.482 533.208,601.785 532.737,602.146 532.378,602.615 532.151,603.162 
		532.073,603.75 532.073,752.002 532.151,752.588 532.378,753.137 532.737,753.605 533.208,753.965 534.341,754.27 535.476,753.965 
		535.944,753.605 536.306,753.137 536.532,752.588 536.608,752.002 536.608,603.75 536.532,603.162 536.306,602.615 	"/>
</g>
<g id="LINE_3847_">
	
		<polygon fill="none" stroke="#000000" stroke-width="0.25" stroke-linecap="round" stroke-linejoin="round" stroke-miterlimit="10" points="
		511.567,602.146 511.097,601.785 509.964,601.482 508.829,601.785 508.36,602.146 507.999,602.615 507.772,603.162 507.696,603.75 
		507.696,752.002 507.772,752.588 507.999,753.137 508.36,753.605 508.829,753.965 509.964,754.27 511.097,753.965 511.567,753.605 
		511.927,753.137 512.153,752.588 512.231,752.002 512.231,603.75 512.153,603.162 511.927,602.615 	"/>
</g>
<g id="LINE_3869_">
	
		<polygon fill="none" stroke="#000000" stroke-width="0.25" stroke-linecap="round" stroke-linejoin="round" stroke-miterlimit="10" points="
		487.188,602.146 486.72,601.785 485.585,601.482 484.452,601.785 483.981,602.146 483.622,602.615 483.396,603.162 483.317,603.75 
		483.317,752.002 483.396,752.588 483.622,753.137 483.981,753.605 484.452,753.965 485.585,754.27 486.72,753.965 487.188,753.605 
		487.55,753.137 487.776,752.588 487.853,752.002 487.853,603.75 487.776,603.162 487.55,602.615 	"/>
</g>
<g id="LINE_3891_">
	
		<polygon fill="none" stroke="#000000" stroke-width="0.25" stroke-linecap="round" stroke-linejoin="round" stroke-miterlimit="10" points="
		462.812,602.146 462.341,601.785 461.208,601.482 460.073,601.785 459.604,602.146 459.243,602.615 459.017,603.162 458.94,603.75 
		458.94,752.002 459.017,752.588 459.243,753.137 459.604,753.605 460.073,753.965 461.208,754.27 462.341,753.965 462.812,753.605 
		463.171,753.137 463.397,752.588 463.476,752.002 463.476,603.75 463.397,603.162 463.171,602.615 	"/>
</g>
<g id="LINE_3893_">
	
		<polygon fill="none" stroke="#000000" stroke-width="0.25" stroke-linecap="round" stroke-linejoin="round" stroke-miterlimit="10" points="
		439.097,603.75 439.097,752.002 439.021,752.588 438.794,753.137 438.433,753.605 437.964,753.965 436.829,754.27 435.696,753.965 
		435.226,753.605 434.866,753.137 434.64,752.588 434.562,752.002 434.562,603.75 434.64,603.162 434.866,602.615 435.226,602.146 
		435.696,601.785 436.829,601.482 437.964,601.785 438.433,602.146 438.794,602.615 439.021,603.162 	"/>
</g>
<g id="LINE_3903_">
	
		<polygon fill="none" stroke="#000000" stroke-width="0.25" stroke-linecap="round" stroke-linejoin="round" stroke-miterlimit="10" points="
		386.47,753.605 386.94,753.965 388.073,754.27 389.208,753.965 389.677,753.605 390.038,753.137 390.265,752.588 390.341,752.002 
		390.341,603.75 390.265,603.162 390.038,602.615 389.677,602.146 389.208,601.785 388.073,601.482 386.94,601.785 386.47,602.146 
		386.11,602.615 385.884,603.162 385.806,603.75 385.806,752.002 385.884,752.588 386.11,753.137 	"/>
</g>
<g id="LINE_3925_">
	
		<polygon fill="none" stroke="#000000" stroke-width="0.25" stroke-linecap="round" stroke-linejoin="round" stroke-miterlimit="10" points="
		365.3,602.146 364.829,601.785 363.696,601.482 362.562,601.785 362.093,602.146 361.731,602.615 361.505,603.162 361.427,603.75 
		361.427,752.002 361.505,752.588 361.731,753.137 362.093,753.605 362.562,753.965 363.696,754.27 364.829,753.965 365.3,753.605 
		365.659,753.137 365.886,752.588 365.964,752.002 365.964,603.75 365.886,603.162 365.659,602.615 	"/>
</g>
<g id="LINE_3947_">
	
		<polygon fill="none" stroke="#000000" stroke-width="0.25" stroke-linecap="round" stroke-linejoin="round" stroke-miterlimit="10" points="
		340.921,602.146 340.452,601.785 339.317,601.482 338.183,601.785 337.714,602.146 337.354,602.615 337.128,603.162 337.05,603.75 
		337.05,752.002 337.128,752.588 337.354,753.137 337.714,753.605 338.183,753.965 339.317,754.27 340.452,753.965 340.921,753.605 
		341.282,753.137 341.509,752.588 341.585,752.002 341.585,603.75 341.509,603.162 341.282,602.615 	"/>
</g>
<g id="LINE_3969_">
	
		<polygon fill="none" stroke="#000000" stroke-width="0.25" stroke-linecap="round" stroke-linejoin="round" stroke-miterlimit="10" points="
		316.544,602.146 316.073,601.785 314.94,601.482 313.806,601.785 313.337,602.146 312.976,602.615 312.749,603.162 312.671,603.75 
		312.671,752.002 312.749,752.588 312.976,753.137 313.337,753.605 313.806,753.965 314.94,754.27 316.073,753.965 316.544,753.605 
		316.903,753.137 317.13,752.588 317.208,752.002 317.208,603.75 317.13,603.162 316.903,602.615 	"/>
</g>
<g id="LINE_3991_">
	
		<polygon fill="none" stroke="#000000" stroke-width="0.25" stroke-linecap="round" stroke-linejoin="round" stroke-miterlimit="10" points="
		292.165,602.146 291.696,601.785 290.562,601.482 289.427,601.785 288.958,602.146 288.597,602.615 288.37,603.162 288.294,603.75 
		288.294,752.002 288.37,752.588 288.597,753.137 288.958,753.605 289.427,753.965 290.562,754.27 291.696,753.965 292.165,753.605 
		292.526,753.137 292.753,752.588 292.829,752.002 292.829,603.75 292.753,603.162 292.526,602.615 	"/>
</g>
<g id="LINE_4013_">
	
		<polygon fill="none" stroke="#000000" stroke-width="0.25" stroke-linecap="round" stroke-linejoin="round" stroke-miterlimit="10" points="
		267.786,602.146 267.317,601.785 266.183,601.482 265.05,601.785 264.579,602.146 264.22,602.615 263.993,603.162 263.915,603.75 
		263.915,752.002 263.993,752.588 264.22,753.137 264.579,753.605 265.05,753.965 266.183,754.27 267.317,753.965 267.786,753.605 
		268.147,753.137 268.374,752.588 268.452,752.002 268.452,603.75 268.374,603.162 268.147,602.615 	"/>
</g>
<g id="LINE_4032_">
	
		<polygon fill="none" stroke="#000000" stroke-width="0.25" stroke-linecap="round" stroke-linejoin="round" stroke-miterlimit="10" points="
		240.671,601.785 240.202,602.146 239.841,602.615 239.614,603.162 239.538,603.75 239.538,752.002 239.614,752.588 
		239.841,753.137 240.202,753.605 240.671,753.965 241.806,754.27 242.94,753.965 243.409,753.605 243.769,753.137 243.995,752.588 
		244.073,752.002 244.073,603.75 243.995,603.162 243.769,602.615 243.409,602.146 242.573,601.635 241.806,601.482 	"/>
</g>
<g id="LINE_4056_">
	
		<polygon fill="none" stroke="#000000" stroke-width="0.25" stroke-linecap="round" stroke-linejoin="round" stroke-miterlimit="10" points="
		38.519,777.514 38.972,778.607 39.126,779.781 38.972,780.955 38.519,782.049 37.798,782.988 36.858,783.709 35.765,784.162 
		34.591,784.316 33.417,784.162 32.323,783.709 31.384,782.988 30.663,782.049 30.21,780.955 30.054,779.781 30.21,778.607 
		30.663,777.514 31.384,776.574 32.323,775.854 33.417,775.4 34.591,775.246 35.765,775.4 36.858,775.854 37.798,776.574 	"/>
</g>
<g id="LINE_4080_">
	
		<polygon fill="none" stroke="#000000" stroke-width="0.25" stroke-linecap="round" stroke-linejoin="round" stroke-miterlimit="10" points="
		737.17,780.955 737.016,779.781 737.17,778.607 737.623,777.514 738.344,776.574 739.283,775.854 740.377,775.4 741.551,775.246 
		742.727,775.4 743.82,775.854 744.758,776.574 745.48,777.514 745.934,778.607 746.088,779.781 745.934,780.955 745.48,782.049 
		744.758,782.988 743.82,783.709 742.727,784.162 741.551,784.316 740.377,784.162 739.283,783.709 738.344,782.988 
		737.623,782.049 	"/>
</g>
<g id="LINE_4104_">
	
		<polygon fill="none" stroke="#000000" stroke-width="0.25" stroke-linecap="round" stroke-linejoin="round" stroke-miterlimit="10" points="
		378.149,783.709 377.056,784.162 375.882,784.316 374.708,784.162 373.614,783.709 372.675,782.988 371.954,782.049 
		371.501,780.955 371.347,779.781 371.501,778.607 371.954,777.514 372.675,776.574 373.614,775.854 374.708,775.4 375.882,775.246 
		377.056,775.4 378.149,775.854 379.089,776.574 379.81,777.514 380.263,778.607 380.417,779.781 380.263,780.955 379.81,782.049 
		379.089,782.988 	"/>
</g>
<g id="LINE_4115_">
	
		<polygon fill="none" stroke="#000000" stroke-width="0.25" stroke-linecap="round" stroke-linejoin="round" stroke-miterlimit="10" points="
		121.519,602.146 121.05,601.785 119.915,601.482 118.782,601.785 118.312,602.146 117.952,602.615 117.726,603.162 117.647,603.75 
		117.647,752.002 117.726,752.588 117.952,753.137 118.312,753.605 118.782,753.965 119.915,754.27 121.05,753.965 121.519,753.605 
		121.88,753.137 122.106,752.588 122.183,752.002 122.183,603.75 122.106,603.162 121.88,602.615 	"/>
</g>
<g id="LINE_4132_">
	
		<polygon fill="none" stroke="#000000" stroke-width="0.25" stroke-linecap="round" stroke-linejoin="round" stroke-miterlimit="10" points="
		97.142,602.146 96.671,601.785 95.538,601.482 94.403,601.785 93.935,602.146 93.573,602.615 93.347,603.162 93.271,603.75 
		93.271,752.002 93.347,752.588 93.573,753.137 93.935,753.605 94.403,753.965 95.538,754.27 96.671,753.965 97.142,753.605 
		97.501,753.137 97.728,752.588 97.806,752.002 97.806,603.75 97.728,603.162 97.501,602.615 	"/>
</g>
<g id="LINE_4156_">
	
		<polygon fill="none" stroke="#000000" stroke-width="0.25" stroke-linecap="round" stroke-linejoin="round" stroke-miterlimit="10" points="
		1111.602,778.607 1111.756,779.781 1111.602,780.955 1111.148,782.049 1110.428,782.988 1109.488,783.709 1108.395,784.162 
		1107.221,784.316 1106.047,784.162 1104.953,783.709 1104.014,782.988 1103.293,782.049 1102.84,780.955 1102.686,779.781 
		1102.84,778.607 1103.293,777.514 1104.014,776.574 1104.953,775.854 1106.047,775.4 1107.221,775.246 1108.395,775.4 
		1109.488,775.854 1110.428,776.574 1111.148,777.514 	"/>
</g>
<g id="LINE_1566_">
	
		<polygon fill="none" stroke="#000000" stroke-width="0.25" stroke-linecap="round" stroke-linejoin="round" stroke-miterlimit="10" points="
		1126.586,457.861 1125.561,458.287 1124.68,458.961 1124.004,459.842 1123.58,460.867 1123.436,461.969 1123.58,463.068 
		1124.004,464.094 1124.68,464.975 1125.561,465.65 1126.586,466.076 1127.688,466.221 1128.787,466.076 1129.813,465.65 
		1130.693,464.975 1131.369,464.094 1131.795,463.068 1131.939,461.969 1131.795,460.867 1131.369,459.842 1130.693,458.961 
		1129.813,458.287 1128.787,457.861 1127.688,457.717 	"/>
</g>
<g id="LINE_1594_">
	
		<polygon fill="none" stroke="#000000" stroke-width="0.25" stroke-linecap="round" stroke-linejoin="round" stroke-miterlimit="10" points="
		389.677,301.39 389.207,301.029 388.073,300.725 386.939,301.029 386.47,301.39 386.109,301.859 385.883,302.406 385.805,302.993 
		385.805,451.244 385.883,451.832 386.109,452.379 386.47,452.848 386.939,453.209 388.073,453.514 389.207,453.209 
		389.677,452.848 390.037,452.379 390.264,451.832 390.341,451.244 390.341,302.993 390.264,302.406 390.037,301.859 	"/>
</g>
<g id="LINE_1616_">
	
		<polygon fill="none" stroke="#000000" stroke-width="0.25" stroke-linecap="round" stroke-linejoin="round" stroke-miterlimit="10" points="
		365.299,301.39 364.829,301.029 363.695,300.725 362.561,301.029 362.092,301.39 361.731,301.859 361.505,302.406 361.428,302.993 
		361.428,451.244 361.505,451.832 361.731,452.379 362.092,452.848 362.561,453.209 363.695,453.514 364.829,453.209 
		365.299,452.848 365.659,452.379 365.886,451.832 365.963,451.244 365.963,302.993 365.886,302.406 365.659,301.859 	"/>
</g>
<g id="LINE_1638_">
	
		<polygon fill="none" stroke="#000000" stroke-width="0.25" stroke-linecap="round" stroke-linejoin="round" stroke-miterlimit="10" points="
		340.921,301.39 340.451,301.029 339.317,300.725 338.184,301.029 337.714,301.39 337.354,301.859 337.127,302.406 337.049,302.993 
		337.049,451.244 337.127,451.832 337.354,452.379 337.714,452.848 338.184,453.209 339.317,453.514 340.451,453.209 
		340.921,452.848 341.281,452.379 341.508,451.832 341.585,451.244 341.585,302.993 341.508,302.406 341.281,301.859 	"/>
</g>
<g id="LINE_1660_">
	
		<polygon fill="none" stroke="#000000" stroke-width="0.25" stroke-linecap="round" stroke-linejoin="round" stroke-miterlimit="10" points="
		316.543,301.39 316.073,301.029 314.939,300.725 313.805,301.029 313.336,301.39 312.975,301.859 312.748,302.406 312.671,302.993 
		312.671,451.244 312.748,451.832 312.975,452.379 313.336,452.848 313.805,453.209 314.939,453.514 316.073,453.209 
		316.543,452.848 316.903,452.379 317.13,451.832 317.207,451.244 317.207,302.993 317.13,302.406 316.903,301.859 	"/>
</g>
<g id="LINE_1682_">
	
		<polygon fill="none" stroke="#000000" stroke-width="0.25" stroke-linecap="round" stroke-linejoin="round" stroke-miterlimit="10" points="
		292.164,301.39 291.695,301.029 290.561,300.725 289.428,301.029 288.957,301.39 288.598,301.859 288.371,302.406 288.293,302.993 
		288.293,451.244 288.371,451.832 288.598,452.379 288.957,452.848 289.428,453.209 290.561,453.514 291.695,453.209 
		292.164,452.848 292.525,452.379 292.752,451.832 292.829,451.244 292.829,302.993 292.752,302.406 292.525,301.859 	"/>
</g>
<g id="LINE_1704_">
	
		<polygon fill="none" stroke="#000000" stroke-width="0.25" stroke-linecap="round" stroke-linejoin="round" stroke-miterlimit="10" points="
		267.787,301.39 267.317,301.029 266.184,300.725 265.049,301.029 264.58,301.39 264.219,301.859 263.992,302.406 263.915,302.993 
		263.915,451.244 263.992,451.832 264.219,452.379 264.58,452.848 265.049,453.209 266.184,453.514 267.317,453.209 
		267.787,452.848 268.146,452.379 268.373,451.832 268.451,451.244 268.451,302.993 268.373,302.406 268.146,301.859 	"/>
</g>
<g id="LINE_1726_">
	
		<polygon fill="none" stroke="#000000" stroke-width="0.25" stroke-linecap="round" stroke-linejoin="round" stroke-miterlimit="10" points="
		243.408,301.39 242.939,301.029 241.805,300.725 240.671,301.029 240.201,301.39 239.842,301.859 239.615,302.406 239.537,302.993 
		239.537,451.244 239.615,451.832 239.842,452.379 240.201,452.848 240.671,453.209 241.805,453.514 242.939,453.209 
		243.408,452.848 243.77,452.379 243.996,451.832 244.073,451.244 244.073,302.993 243.996,302.406 243.77,301.859 	"/>
</g>
<g id="LINE_1748_">
	
		<polygon fill="none" stroke="#000000" stroke-width="0.25" stroke-linecap="round" stroke-linejoin="round" stroke-miterlimit="10" points="
		219.031,301.39 218.561,301.029 217.428,300.725 216.293,301.029 215.824,301.39 215.463,301.859 215.236,302.406 215.159,302.993 
		215.159,451.244 215.236,451.832 215.463,452.379 215.824,452.848 216.293,453.209 217.428,453.514 218.561,453.209 
		219.031,452.848 219.391,452.379 219.617,451.832 219.695,451.244 219.695,302.993 219.617,302.406 219.391,301.859 	"/>
</g>
<g id="LINE_1770_">
	
		<polygon fill="none" stroke="#000000" stroke-width="0.25" stroke-linecap="round" stroke-linejoin="round" stroke-miterlimit="10" points="
		194.652,301.39 194.184,301.029 193.049,300.725 191.915,301.029 191.445,301.39 191.085,301.859 190.858,302.406 190.781,302.993 
		190.781,451.244 190.858,451.832 191.085,452.379 191.445,452.848 191.915,453.209 193.049,453.514 194.184,453.209 
		194.652,452.848 195.014,452.379 195.24,451.832 195.317,451.244 195.317,302.993 195.24,302.406 195.014,301.859 	"/>
</g>
<g id="LINE_1792_">
	
		<polygon fill="none" stroke="#000000" stroke-width="0.25" stroke-linecap="round" stroke-linejoin="round" stroke-miterlimit="10" points="
		170.274,301.39 169.805,301.029 168.671,300.725 167.537,301.029 167.067,301.39 166.707,301.859 166.48,302.406 166.403,302.993 
		166.403,451.244 166.48,451.832 166.707,452.379 167.067,452.848 167.537,453.209 168.671,453.514 169.805,453.209 
		170.274,452.848 170.635,452.379 170.861,451.832 170.939,451.244 170.939,302.993 170.861,302.406 170.635,301.859 	"/>
</g>
<g id="LINE_1814_">
	
		<polygon fill="none" stroke="#000000" stroke-width="0.25" stroke-linecap="round" stroke-linejoin="round" stroke-miterlimit="10" points="
		145.896,301.39 145.428,301.029 144.293,300.725 143.159,301.029 142.689,301.39 142.329,301.859 142.103,302.406 142.025,302.993 
		142.025,451.244 142.103,451.832 142.329,452.379 142.689,452.848 143.159,453.209 144.293,453.514 145.428,453.209 
		145.896,452.848 146.257,452.379 146.483,451.832 146.561,451.244 146.561,302.993 146.483,302.406 146.257,301.859 	"/>
</g>
<g id="LINE_1836_">
	
		<polygon fill="none" stroke="#000000" stroke-width="0.25" stroke-linecap="round" stroke-linejoin="round" stroke-miterlimit="10" points="
		121.519,301.39 121.049,301.029 119.915,300.725 118.781,301.029 118.312,301.39 117.951,301.859 117.725,302.406 117.647,302.993 
		117.647,451.244 117.725,451.832 117.951,452.379 118.312,452.848 118.781,453.209 119.915,453.514 121.049,453.209 
		121.519,452.848 121.879,452.379 122.105,451.832 122.184,451.244 122.184,302.993 122.105,302.406 121.879,301.859 	"/>
</g>
<g id="LINE_1858_">
	
		<polygon fill="none" stroke="#000000" stroke-width="0.25" stroke-linecap="round" stroke-linejoin="round" stroke-miterlimit="10" points="
		97.141,301.39 96.671,301.029 95.537,300.725 94.403,301.029 93.934,301.39 93.573,301.859 93.347,302.406 93.27,302.993 
		93.27,451.244 93.347,451.832 93.573,452.379 93.934,452.848 94.403,453.209 95.537,453.514 96.671,453.209 97.141,452.848 
		97.501,452.379 97.728,451.832 97.805,451.244 97.805,302.993 97.728,302.406 97.501,301.859 	"/>
</g>
<g id="LINE_1880_">
	
		<polygon fill="none" stroke="#000000" stroke-width="0.25" stroke-linecap="round" stroke-linejoin="round" stroke-miterlimit="10" points="
		72.763,301.39 72.293,301.029 71.159,300.725 70.025,301.029 69.556,301.39 69.195,301.859 68.969,302.406 68.892,302.993 
		68.892,451.244 68.969,451.832 69.195,452.379 69.556,452.848 70.025,453.209 71.159,453.514 72.293,453.209 72.763,452.848 
		73.123,452.379 73.35,451.832 73.428,451.244 73.428,302.993 73.35,302.406 73.123,301.859 	"/>
</g>
<g id="LINE_1902_">
	
		<polygon fill="none" stroke="#000000" stroke-width="0.25" stroke-linecap="round" stroke-linejoin="round" stroke-miterlimit="10" points="
		48.385,301.39 47.915,301.029 46.781,300.725 45.647,301.029 45.178,301.39 44.817,301.859 44.591,302.406 44.514,302.993 
		44.514,451.244 44.591,451.832 44.817,452.379 45.178,452.848 45.647,453.209 46.781,453.514 47.915,453.209 48.385,452.848 
		48.745,452.379 48.972,451.832 49.049,451.244 49.049,302.993 48.972,302.406 48.745,301.859 	"/>
</g>
<g id="LINE_1924_">
	
		<polygon fill="none" stroke="#000000" stroke-width="0.25" stroke-linecap="round" stroke-linejoin="round" stroke-miterlimit="10" points="
		24.007,301.39 23.537,301.029 22.403,300.725 21.27,301.029 20.8,301.39 20.439,301.859 20.213,302.406 20.136,302.993 
		20.136,451.244 20.213,451.832 20.439,452.379 20.8,452.848 21.27,453.209 22.403,453.514 23.537,453.209 24.007,452.848 
		24.367,452.379 24.594,451.832 24.671,451.244 24.671,302.993 24.594,302.406 24.367,301.859 	"/>
</g>
<g id="LINE_1950_">
	
		<polygon fill="none" stroke="#000000" stroke-width="0.25" stroke-linecap="round" stroke-linejoin="round" stroke-miterlimit="10" points="
		31.383,278.42 30.662,277.481 30.209,276.387 30.055,275.213 30.209,274.04 30.662,272.946 31.383,272.006 32.322,271.286 
		33.416,270.833 34.59,270.678 35.764,270.833 36.857,271.286 37.797,272.006 38.518,272.946 38.971,274.04 39.125,275.213 
		38.971,276.387 38.518,277.481 37.797,278.42 36.857,279.141 35.764,279.594 34.59,279.749 33.416,279.594 32.322,279.141 	"/>
</g>
<g id="LINE_1974_">
	
		<polygon fill="none" stroke="#000000" stroke-width="0.25" stroke-linecap="round" stroke-linejoin="round" stroke-miterlimit="10" points="
		379.809,277.481 379.088,278.42 378.148,279.141 377.055,279.594 375.881,279.749 374.707,279.594 373.613,279.141 372.674,278.42 
		371.953,277.481 371.5,276.387 371.346,275.213 371.5,274.04 371.953,272.946 372.674,272.006 373.613,271.286 374.707,270.833 
		375.881,270.678 377.055,270.833 378.148,271.286 379.088,272.006 379.809,272.946 380.262,274.04 380.416,275.213 
		380.262,276.387 	"/>
</g>
<g id="LINE_1978_">
	
		<rect x="734.18" y="504.82" fill="none" stroke="#000000" stroke-width="0.25" stroke-linecap="round" stroke-linejoin="round" stroke-miterlimit="10" width="14.74" height="7.369"/>
</g>
<g id="LINE_2002_">
	
		<polygon fill="none" stroke="#000000" stroke-width="0.25" stroke-linecap="round" stroke-linejoin="round" stroke-miterlimit="10" points="
		737.17,276.387 737.014,275.213 737.17,274.04 737.623,272.946 738.344,272.006 739.281,271.286 740.377,270.833 741.551,270.678 
		742.725,270.833 743.818,271.286 744.758,272.006 745.479,272.946 745.932,274.04 746.086,275.213 745.932,276.387 
		745.479,277.481 744.758,278.42 743.818,279.141 742.725,279.594 741.551,279.749 740.377,279.594 739.281,279.141 738.344,278.42 
		737.623,277.481 	"/>
</g>
<g id="LINE_2026_">
	
		<polygon fill="none" stroke="#000000" stroke-width="0.25" stroke-linecap="round" stroke-linejoin="round" stroke-miterlimit="10" points="
		919.721,513.852 920.174,512.758 920.895,511.818 921.834,511.098 922.928,510.645 924.102,510.488 925.275,510.645 
		926.369,511.098 927.309,511.818 928.029,512.758 928.482,513.852 928.637,515.025 928.482,516.199 928.029,517.293 
		927.309,518.232 926.369,518.953 925.275,519.406 924.102,519.561 922.928,519.406 921.834,518.953 920.895,518.232 
		920.174,517.293 919.721,516.199 919.566,515.025 	"/>
</g>
<g id="LINE_2050_">
	
		<polygon fill="none" stroke="#000000" stroke-width="0.25" stroke-linecap="round" stroke-linejoin="round" stroke-miterlimit="10" points="
		188.835,512.758 189.556,511.818 190.495,511.098 191.589,510.645 192.763,510.488 193.937,510.645 195.03,511.098 195.97,511.818 
		196.69,512.758 197.144,513.852 197.299,515.025 197.144,516.199 196.69,517.293 195.97,518.232 195.03,518.953 193.937,519.406 
		192.763,519.561 191.589,519.406 190.495,518.953 189.556,518.232 188.835,517.293 188.382,516.199 188.228,515.025 
		188.382,513.852 	"/>
</g>
<g id="LINE_2074_">
	
		<polygon fill="none" stroke="#000000" stroke-width="0.25" stroke-linecap="round" stroke-linejoin="round" stroke-miterlimit="10" points="
		1111.754,275.213 1111.6,276.387 1111.146,277.481 1110.426,278.42 1109.486,279.141 1108.393,279.594 1107.219,279.749 
		1106.045,279.594 1104.951,279.141 1104.012,278.42 1103.291,277.481 1102.838,276.387 1102.684,275.213 1102.838,274.04 
		1103.291,272.946 1104.012,272.006 1104.951,271.286 1106.045,270.833 1107.219,270.678 1108.393,270.833 1109.486,271.286 
		1110.426,272.006 1111.146,272.946 1111.6,274.04 	"/>
</g>
<g id="LINE_2098_">
	
		<polygon fill="none" stroke="#000000" stroke-width="0.25" stroke-linecap="round" stroke-linejoin="round" stroke-miterlimit="10" points="
		557.258,519.406 556.164,518.953 555.226,518.232 554.504,517.293 554.051,516.199 553.896,515.025 554.051,513.852 
		554.504,512.758 555.226,511.818 556.164,511.098 557.258,510.645 558.433,510.488 559.606,510.645 560.7,511.098 561.64,511.818 
		562.36,512.758 562.813,513.852 562.968,515.025 562.813,516.199 562.36,517.293 561.64,518.232 560.7,518.953 559.606,519.406 
		558.433,519.561 	"/>
</g>
<g id="LINE_2102_">
	
		<rect x="1099.85" y="504.82" fill="none" stroke="#000000" stroke-width="0.25" stroke-linecap="round" stroke-linejoin="round" stroke-miterlimit="10" width="14.74" height="7.369"/>
</g>
<g id="LINE_2106_">
	
		<rect x="368.511" y="504.82" fill="none" stroke="#000000" stroke-width="0.25" stroke-linecap="round" stroke-linejoin="round" stroke-miterlimit="10" width="14.74" height="7.369"/>
</g>
<g id="LINE_2110_">
	
		<rect x="27.22" y="504.82" fill="none" stroke="#000000" stroke-width="0.25" stroke-linecap="round" stroke-linejoin="round" stroke-miterlimit="10" width="14.74" height="7.369"/>
</g>
<g id="LINE_2132_">
	
		<polygon fill="none" stroke="#000000" stroke-width="0.25" stroke-linecap="round" stroke-linejoin="round" stroke-miterlimit="10" points="
		727.174,302.406 727.4,301.859 727.76,301.39 728.23,301.029 729.363,300.725 730.498,301.029 730.967,301.39 731.328,301.859 
		731.555,302.406 731.631,302.993 731.631,451.244 731.555,451.832 731.328,452.379 730.967,452.848 730.498,453.209 
		729.363,453.514 728.23,453.209 727.76,452.848 727.4,452.379 727.174,451.832 727.096,451.244 727.096,302.993 	"/>
</g>
<g id="LINE_2154_">
	
		<polygon fill="none" stroke="#000000" stroke-width="0.25" stroke-linecap="round" stroke-linejoin="round" stroke-miterlimit="10" points="
		707.176,451.832 706.95,452.379 706.59,452.848 706.12,453.209 704.987,453.514 703.852,453.209 703.383,452.848 703.022,452.379 
		702.795,451.832 702.719,451.244 702.719,302.993 702.795,302.406 703.022,301.859 703.383,301.39 703.852,301.029 
		704.987,300.725 706.12,301.029 706.59,301.39 706.95,301.859 707.176,302.406 707.254,302.993 707.254,451.244 	"/>
</g>
<g id="LINE_2176_">
	
		<polygon fill="none" stroke="#000000" stroke-width="0.25" stroke-linecap="round" stroke-linejoin="round" stroke-miterlimit="10" points="
		682.799,451.832 682.573,452.379 682.211,452.848 681.743,453.209 680.608,453.514 679.475,453.209 679.004,452.848 
		678.645,452.379 678.418,451.832 678.34,451.244 678.34,302.993 678.418,302.406 678.645,301.859 679.004,301.39 679.475,301.029 
		680.608,300.725 681.743,301.029 682.211,301.39 682.573,301.859 682.799,302.406 682.875,302.993 682.875,451.244 	"/>
</g>
<g id="LINE_2198_">
	
		<polygon fill="none" stroke="#000000" stroke-width="0.25" stroke-linecap="round" stroke-linejoin="round" stroke-miterlimit="10" points="
		658.42,451.832 658.194,452.379 657.834,452.848 657.364,453.209 656.231,453.514 655.096,453.209 654.627,452.848 
		654.266,452.379 654.04,451.832 653.963,451.244 653.963,302.993 654.04,302.406 654.266,301.859 654.627,301.39 655.096,301.029 
		656.231,300.725 657.364,301.029 657.834,301.39 658.194,301.859 658.42,302.406 658.499,302.993 658.499,451.244 	"/>
</g>
<g id="LINE_2220_">
	
		<polygon fill="none" stroke="#000000" stroke-width="0.25" stroke-linecap="round" stroke-linejoin="round" stroke-miterlimit="10" points="
		634.043,451.832 633.817,452.379 633.456,452.848 632.987,453.209 631.852,453.514 630.719,453.209 630.249,452.848 
		629.889,452.379 629.663,451.832 629.584,451.244 629.584,302.993 629.663,302.406 629.889,301.859 630.249,301.39 
		630.719,301.029 631.852,300.725 632.987,301.029 633.456,301.39 633.817,301.859 634.043,302.406 634.12,302.993 634.12,451.244 	
		"/>
</g>
<g id="LINE_2242_">
	
		<polygon fill="none" stroke="#000000" stroke-width="0.25" stroke-linecap="round" stroke-linejoin="round" stroke-miterlimit="10" points="
		609.665,451.832 609.438,452.379 609.079,452.848 608.608,453.209 607.475,453.514 606.34,453.209 605.872,452.848 605.51,452.379 
		605.284,451.832 605.208,451.244 605.208,302.993 605.284,302.406 605.51,301.859 605.872,301.39 606.34,301.029 607.475,300.725 
		608.608,301.029 609.079,301.39 609.438,301.859 609.665,302.406 609.743,302.993 609.743,451.244 	"/>
</g>
<g id="LINE_2264_">
	
		<polygon fill="none" stroke="#000000" stroke-width="0.25" stroke-linecap="round" stroke-linejoin="round" stroke-miterlimit="10" points="
		585.287,451.832 585.061,452.379 584.7,452.848 584.23,453.209 583.097,453.514 581.963,453.209 581.493,452.848 581.133,452.379 
		580.906,451.832 580.829,451.244 580.829,302.993 580.906,302.406 581.133,301.859 581.493,301.39 581.963,301.029 
		583.097,300.725 584.23,301.029 584.7,301.39 585.061,301.859 585.287,302.406 585.364,302.993 585.364,451.244 	"/>
</g>
<g id="LINE_2286_">
	
		<polygon fill="none" stroke="#000000" stroke-width="0.25" stroke-linecap="round" stroke-linejoin="round" stroke-miterlimit="10" points="
		560.909,451.832 560.683,452.379 560.322,452.848 559.853,453.209 558.719,453.514 557.585,453.209 557.115,452.848 
		556.755,452.379 556.528,451.832 556.451,451.244 556.451,302.993 556.528,302.406 556.755,301.859 557.115,301.39 
		557.585,301.029 558.719,300.725 559.853,301.029 560.322,301.39 560.683,301.859 560.909,302.406 560.986,302.993 
		560.986,451.244 	"/>
</g>
<g id="LINE_2308_">
	
		<polygon fill="none" stroke="#000000" stroke-width="0.25" stroke-linecap="round" stroke-linejoin="round" stroke-miterlimit="10" points="
		536.531,451.832 536.305,452.379 535.944,452.848 535.475,453.209 534.341,453.514 533.207,453.209 532.737,452.848 
		532.377,452.379 532.15,451.832 532.073,451.244 532.073,302.993 532.15,302.406 532.377,301.859 532.737,301.39 533.207,301.029 
		534.341,300.725 535.475,301.029 535.944,301.39 536.305,301.859 536.531,302.406 536.608,302.993 536.608,451.244 	"/>
</g>
<g id="LINE_2330_">
	
		<polygon fill="none" stroke="#000000" stroke-width="0.25" stroke-linecap="round" stroke-linejoin="round" stroke-miterlimit="10" points="
		512.153,451.832 511.927,452.379 511.566,452.848 511.097,453.209 509.963,453.514 508.829,453.209 508.359,452.848 
		507.999,452.379 507.772,451.832 507.695,451.244 507.695,302.993 507.772,302.406 507.999,301.859 508.359,301.39 
		508.829,301.029 509.963,300.725 511.097,301.029 511.566,301.39 511.927,301.859 512.153,302.406 512.23,302.993 512.23,451.244 	
		"/>
</g>
<g id="LINE_2352_">
	
		<polygon fill="none" stroke="#000000" stroke-width="0.25" stroke-linecap="round" stroke-linejoin="round" stroke-miterlimit="10" points="
		487.775,451.832 487.549,452.379 487.188,452.848 486.719,453.209 485.585,453.514 484.451,453.209 483.981,452.848 
		483.621,452.379 483.395,451.832 483.317,451.244 483.317,302.993 483.395,302.406 483.621,301.859 483.981,301.39 
		484.451,301.029 485.585,300.725 486.719,301.029 487.188,301.39 487.549,301.859 487.775,302.406 487.853,302.993 
		487.853,451.244 	"/>
</g>
<g id="LINE_2374_">
	
		<polygon fill="none" stroke="#000000" stroke-width="0.25" stroke-linecap="round" stroke-linejoin="round" stroke-miterlimit="10" points="
		463.397,451.832 463.171,452.379 462.811,452.848 462.341,453.209 461.207,453.514 460.073,453.209 459.604,452.848 
		459.243,452.379 459.017,451.832 458.939,451.244 458.939,302.993 459.017,302.406 459.243,301.859 459.604,301.39 
		460.073,301.029 461.207,300.725 462.341,301.029 462.811,301.39 463.171,301.859 463.397,302.406 463.475,302.993 
		463.475,451.244 	"/>
</g>
<g id="LINE_2396_">
	
		<polygon fill="none" stroke="#000000" stroke-width="0.25" stroke-linecap="round" stroke-linejoin="round" stroke-miterlimit="10" points="
		439.02,451.832 438.793,452.379 438.433,452.848 437.963,453.209 436.829,453.514 435.695,453.209 435.226,452.848 
		434.865,452.379 434.639,451.832 434.561,451.244 434.561,302.993 434.639,302.406 434.865,301.859 435.226,301.39 
		435.695,301.029 436.829,300.725 437.963,301.029 438.433,301.39 438.793,301.859 439.02,302.406 439.097,302.993 439.097,451.244 
			"/>
</g>
<g id="LINE_2413_">
	
		<polygon fill="none" stroke="#000000" stroke-width="0.25" stroke-linecap="round" stroke-linejoin="round" stroke-miterlimit="10" points="
		414.642,451.832 414.415,452.379 414.055,452.848 413.585,453.209 412.451,453.514 411.317,453.209 410.848,452.848 
		410.487,452.379 410.261,451.832 410.184,451.244 410.184,302.993 410.261,302.406 410.487,301.859 410.848,301.39 
		411.317,301.029 412.451,300.725 413.585,301.029 414.055,301.39 414.415,301.859 414.642,302.406 414.719,302.993 
		414.719,451.244 	"/>
</g>
<g>
	<g id="LINE_3286_">
		
			<polygon fill="none" stroke="#000000" stroke-width="0.25" stroke-linecap="round" stroke-linejoin="round" stroke-miterlimit="10" points="
			9.212,266.426 9.212,5.355 1155.258,5.355 1155.258,266.426 1143.066,266.426 		"/>
	</g>
	
		<polygon fill="none" stroke="#000000" stroke-width="0.25" stroke-linecap="round" stroke-linejoin="round" stroke-miterlimit="10" points="
		1143.07,266.426 1143.07,527.498 9.212,527.498 9.212,788.568 1130.881,788.568 1130.881,527.498 9.212,527.498 9.212,266.426 	"/>
</g>
</svg>
