<?xml version="1.0" encoding="utf-8"?>
<!-- Generator: Adobe Illustrator 16.0.0, SVG Export Plug-In . SVG Version: 6.00 Build 0)  -->
<!DOCTYPE svg PUBLIC "-//W3C//DTD SVG 1.1//EN" "http://www.w3.org/Graphics/SVG/1.1/DTD/svg11.dtd">
<svg version="1.1" id="Layer_1" xmlns="http://www.w3.org/2000/svg" xmlns:xlink="http://www.w3.org/1999/xlink" x="0px" y="0px"
	 width="1440px" height="864px" viewBox="0 0 1440 864" enable-background="new 0 0 1440 864" xml:space="preserve">
<g>
	<g id="LINE_694_">
		
			<polygon fill="none" stroke="#000000" stroke-width="0.25" stroke-linecap="round" stroke-linejoin="round" stroke-miterlimit="10" points="
			41.885,224.309 41.74,225.409 41.315,226.434 40.64,227.315 39.759,227.991 38.734,228.417 37.633,228.561 36.533,228.417 
			35.507,227.991 34.627,227.315 33.951,226.434 33.526,225.409 33.381,224.309 33.526,223.208 33.951,222.182 34.627,221.303 
			35.507,220.627 36.533,220.202 37.633,220.057 38.734,220.202 39.759,220.627 40.64,221.303 41.316,222.182 41.74,223.208 		"/>
	</g>
	<g id="LINE_720_">
		
			<polygon fill="none" stroke="#000000" stroke-width="0.25" stroke-linecap="round" stroke-linejoin="round" stroke-miterlimit="10" points="
			824.396,215.18 824.867,215.542 826,215.846 827.135,215.542 827.604,215.18 827.965,214.711 828.191,214.165 828.268,213.577 
			828.268,65.326 828.191,64.739 827.965,64.192 827.604,63.723 827.135,63.362 826,63.058 824.867,63.362 824.396,63.723 
			824.037,64.192 823.811,64.739 823.732,65.326 823.732,213.577 823.811,214.165 824.037,214.711 		"/>
	</g>
	<g id="LINE_742_">
		
			<polygon fill="none" stroke="#000000" stroke-width="0.25" stroke-linecap="round" stroke-linejoin="round" stroke-miterlimit="10" points="
			848.775,215.18 849.244,215.542 850.379,215.846 851.512,215.542 851.982,215.18 852.342,214.711 852.568,214.165 
			852.646,213.577 852.646,65.326 852.568,64.739 852.342,64.192 851.982,63.723 851.512,63.362 850.379,63.058 849.244,63.362 
			848.775,63.723 848.414,64.192 848.188,64.739 848.111,65.326 848.111,213.577 848.188,214.165 848.414,214.711 		"/>
	</g>
	<g id="LINE_764_">
		
			<polygon fill="none" stroke="#000000" stroke-width="0.25" stroke-linecap="round" stroke-linejoin="round" stroke-miterlimit="10" points="
			873.152,215.18 873.623,215.542 874.756,215.846 875.891,215.542 876.359,215.18 876.721,214.711 876.947,214.165 
			877.023,213.577 877.023,65.326 876.947,64.739 876.721,64.192 876.359,63.723 875.891,63.362 874.756,63.058 873.623,63.362 
			873.152,63.723 872.793,64.192 872.566,64.739 872.488,65.326 872.488,213.577 872.566,214.165 872.793,214.711 		"/>
	</g>
	<g id="LINE_786_">
		
			<polygon fill="none" stroke="#000000" stroke-width="0.25" stroke-linecap="round" stroke-linejoin="round" stroke-miterlimit="10" points="
			897.531,215.18 898,215.542 899.135,215.846 900.268,215.542 900.738,215.18 901.098,214.711 901.324,214.165 901.402,213.577 
			901.402,65.326 901.324,64.739 901.098,64.192 900.738,63.723 900.268,63.362 899.135,63.058 898,63.362 897.531,63.723 
			897.17,64.192 896.943,64.739 896.867,65.326 896.867,213.577 896.943,214.165 897.17,214.711 		"/>
	</g>
	<g id="LINE_808_">
		
			<polygon fill="none" stroke="#000000" stroke-width="0.25" stroke-linecap="round" stroke-linejoin="round" stroke-miterlimit="10" points="
			921.908,215.18 922.379,215.542 923.512,215.846 924.646,215.542 925.115,215.18 925.477,214.711 925.703,214.165 
			925.781,213.577 925.781,65.326 925.703,64.739 925.477,64.192 925.115,63.723 924.646,63.362 923.512,63.058 922.379,63.362 
			921.908,63.723 921.549,64.192 921.322,64.739 921.244,65.326 921.244,213.577 921.322,214.165 921.549,214.711 		"/>
	</g>
	<g id="LINE_830_">
		
			<polygon fill="none" stroke="#000000" stroke-width="0.25" stroke-linecap="round" stroke-linejoin="round" stroke-miterlimit="10" points="
			946.287,215.18 946.756,215.542 947.891,215.846 949.023,215.542 949.494,215.18 949.854,214.711 950.08,214.165 950.158,213.577 
			950.158,65.326 950.08,64.739 949.854,64.192 949.494,63.723 949.023,63.362 947.891,63.058 946.756,63.362 946.287,63.723 
			945.926,64.192 945.699,64.739 945.623,65.326 945.623,213.577 945.699,214.165 945.926,214.711 		"/>
	</g>
	<g id="LINE_852_">
		
			<polygon fill="none" stroke="#000000" stroke-width="0.25" stroke-linecap="round" stroke-linejoin="round" stroke-miterlimit="10" points="
			970.664,215.18 971.135,215.542 972.268,215.846 973.402,215.542 973.871,215.18 974.232,214.711 974.459,214.165 
			974.537,213.577 974.537,65.326 974.459,64.739 974.232,64.192 973.871,63.723 973.402,63.362 972.268,63.058 971.135,63.362 
			970.664,63.723 970.305,64.192 970.078,64.739 970,65.326 970,213.577 970.078,214.165 970.305,214.711 		"/>
	</g>
	<g id="LINE_913_">
		
			<polygon fill="none" stroke="#000000" stroke-width="0.25" stroke-linecap="round" stroke-linejoin="round" stroke-miterlimit="10" points="
			579.954,213.577 580.032,214.165 580.258,214.711 580.619,215.18 581.088,215.542 582.222,215.846 583.356,215.542 
			583.826,215.18 584.186,214.711 584.413,214.165 584.49,213.577 584.49,65.326 584.413,64.739 584.186,64.192 583.826,63.723 
			583.356,63.362 582.222,63.058 581.088,63.362 580.619,63.723 580.258,64.192 580.032,64.739 579.954,65.326 		"/>
	</g>
	<g id="LINE_936_">
		
			<polygon fill="none" stroke="#000000" stroke-width="0.25" stroke-linecap="round" stroke-linejoin="round" stroke-miterlimit="10" points="
			556.71,63.362 556.241,63.723 555.88,64.192 555.654,64.739 555.576,65.326 555.576,213.577 555.654,214.165 555.88,214.711 
			556.241,215.18 556.71,215.542 557.844,215.846 558.978,215.542 559.448,215.18 559.808,214.711 560.035,214.165 560.112,213.577 
			560.112,65.326 560.035,64.739 559.808,64.192 559.448,63.723 558.978,63.362 558.464,63.146 557.844,63.058 		"/>
	</g>
	<g id="LINE_958_">
		
			<polygon fill="none" stroke="#000000" stroke-width="0.25" stroke-linecap="round" stroke-linejoin="round" stroke-miterlimit="10" points="
			531.198,65.326 531.276,64.739 531.502,64.192 531.863,63.723 532.332,63.362 533.466,63.058 534.6,63.362 535.07,63.723 
			535.43,64.192 535.657,64.739 535.734,65.326 535.734,213.577 535.657,214.165 535.43,214.711 535.07,215.18 534.6,215.542 
			533.466,215.846 532.846,215.758 531.863,215.18 531.502,214.711 531.276,214.165 531.198,213.577 		"/>
	</g>
	<g id="LINE_991_">
		
			<polygon fill="none" stroke="#000000" stroke-width="0.25" stroke-linecap="round" stroke-linejoin="round" stroke-miterlimit="10" points="
			506.82,213.577 506.898,214.165 507.124,214.711 507.485,215.18 507.954,215.542 509.088,215.846 510.222,215.542 510.692,215.18 
			511.052,214.711 511.279,214.165 511.356,213.577 511.356,65.326 511.279,64.739 511.052,64.192 510.692,63.723 510.222,63.362 
			509.088,63.058 507.954,63.362 507.485,63.723 507.124,64.192 506.898,64.739 506.82,65.326 		"/>
	</g>
	<g id="LINE_1004_">
		
			<polygon fill="none" stroke="#000000" stroke-width="0.25" stroke-linecap="round" stroke-linejoin="round" stroke-miterlimit="10" points="
			482.746,64.192 482.52,64.739 482.442,65.326 482.442,213.577 482.52,214.165 482.746,214.711 483.106,215.18 483.576,215.542 
			484.71,215.846 485.844,215.542 486.313,215.18 486.674,214.711 486.901,214.165 486.978,213.577 486.978,65.326 486.901,64.739 
			486.674,64.192 486.313,63.723 485.33,63.146 484.71,63.058 483.576,63.362 483.106,63.723 		"/>
	</g>
	<g id="LINE_1024_">
		
			<polygon fill="none" stroke="#000000" stroke-width="0.25" stroke-linecap="round" stroke-linejoin="round" stroke-miterlimit="10" points="
			458.142,64.739 458.064,65.326 458.064,213.577 458.142,214.165 458.368,214.711 458.729,215.18 459.198,215.542 460.332,215.846 
			461.466,215.542 461.936,215.18 462.296,214.711 462.522,214.165 462.6,213.577 462.6,65.326 462.522,64.739 462.296,64.192 
			461.936,63.723 461.466,63.362 460.952,63.146 460.332,63.058 459.198,63.362 458.729,63.723 458.368,64.192 		"/>
	</g>
	<g id="LINE_1045_">
		
			<polygon fill="none" stroke="#000000" stroke-width="0.25" stroke-linecap="round" stroke-linejoin="round" stroke-miterlimit="10" points="
			433.764,64.739 433.99,64.192 434.351,63.723 434.82,63.362 435.954,63.058 436.721,63.21 437.558,63.723 437.918,64.192 
			438.145,64.739 438.222,65.326 438.222,213.577 438.145,214.165 437.918,214.711 437.558,215.18 437.088,215.542 435.954,215.846 
			435.334,215.758 434.351,215.18 433.99,214.711 433.764,214.165 433.687,213.577 433.687,65.326 		"/>
	</g>
	<g id="LINE_1050_">
		
			<rect x="50.729" y="267.153" fill="none" stroke="#000000" stroke-width="0.25" stroke-linecap="round" stroke-linejoin="round" stroke-miterlimit="10" width="14.74" height="7.369"/>
	</g>
	<g id="LINE_1054_">
		
			<rect x="1123.357" y="267.153" fill="none" stroke="#000000" stroke-width="0.25" stroke-linecap="round" stroke-linejoin="round" stroke-miterlimit="10" width="14.74" height="7.369"/>
	</g>
	<g id="LINE_1058_">
		
			<rect x="782.066" y="267.153" fill="none" stroke="#000000" stroke-width="0.25" stroke-linecap="round" stroke-linejoin="round" stroke-miterlimit="10" width="14.74" height="7.369"/>
	</g>
	<g id="LINE_1061_">
		
			<rect x="417.398" y="267.153" fill="none" stroke="#000000" stroke-width="0.25" stroke-linecap="round" stroke-linejoin="round" stroke-miterlimit="10" width="14.74" height="7.369"/>
	</g>
	<g id="LINE_1087_">
		
			<polygon fill="none" stroke="#000000" stroke-width="0.25" stroke-linecap="round" stroke-linejoin="round" stroke-miterlimit="10" points="
			604.619,273.43 603.679,274.151 602.958,275.09 602.505,276.184 602.351,277.358 602.505,278.532 602.958,279.625 
			603.679,280.565 604.619,281.286 605.712,281.739 606.886,281.893 608.06,281.739 609.154,281.286 610.093,280.565 
			610.814,279.625 611.267,278.532 611.422,277.358 611.267,276.184 610.814,275.09 610.093,274.151 609.154,273.43 608.06,272.977 
			606.886,272.821 605.712,272.977 		"/>
	</g>
	<g id="LINE_1111_">
		
			<polygon fill="none" stroke="#000000" stroke-width="0.25" stroke-linecap="round" stroke-linejoin="round" stroke-miterlimit="10" points="
			236.682,277.358 236.836,276.184 237.289,275.09 238.01,274.151 238.949,273.43 240.043,272.977 241.217,272.821 242.391,272.977 
			243.485,273.43 244.424,274.151 245.145,275.09 245.598,276.184 245.752,277.358 245.598,278.532 245.145,279.625 
			244.424,280.565 243.485,281.286 242.391,281.739 241.217,281.893 240.043,281.739 238.949,281.286 238.01,280.565 
			237.289,279.625 236.836,278.532 		"/>
	</g>
	<g id="LINE_1136_">
		
			<polygon fill="none" stroke="#000000" stroke-width="0.25" stroke-linecap="round" stroke-linejoin="round" stroke-miterlimit="10" points="
			974.822,281.286 973.729,281.739 972.555,281.893 971.381,281.739 970.287,281.286 969.348,280.565 968.627,279.625 
			968.174,278.532 968.02,277.358 968.174,276.184 968.627,275.09 969.348,274.151 970.287,273.43 971.381,272.977 972.555,272.821 
			973.729,272.977 974.822,273.43 975.762,274.151 976.482,275.09 976.936,276.184 977.09,277.358 976.936,278.532 976.482,279.625 
			975.762,280.565 		"/>
	</g>
	<g id="LINE_1181_">
		
			<polygon fill="none" stroke="#000000" stroke-width="0.25" stroke-linecap="round" stroke-linejoin="round" stroke-miterlimit="10" points="
			1144.518,63.723 1144.049,63.362 1142.914,63.058 1141.781,63.362 1141.311,63.723 1140.951,64.192 1140.725,64.739 
			1140.646,65.326 1140.646,213.577 1140.725,214.165 1140.951,214.711 1141.311,215.18 1142.295,215.758 1142.914,215.846 
			1144.049,215.542 1144.518,215.18 1144.879,214.711 1145.105,214.165 1145.182,213.577 1145.182,65.326 1145.105,64.739 
			1144.879,64.192 		"/>
	</g>
	<g id="LINE_1214_">
		
			<polygon fill="none" stroke="#000000" stroke-width="0.25" stroke-linecap="round" stroke-linejoin="round" stroke-miterlimit="10" points="
			1116.268,65.326 1116.268,213.577 1116.346,214.165 1116.572,214.711 1116.934,215.18 1117.77,215.694 1118.537,215.846 
			1119.67,215.542 1120.141,215.18 1120.5,214.711 1120.727,214.165 1120.805,213.577 1120.805,65.326 1120.727,64.739 
			1120.5,64.192 1120.141,63.723 1119.67,63.362 1118.537,63.058 1117.402,63.362 1116.934,63.723 1116.572,64.192 1116.346,64.739 
					"/>
	</g>
	<g id="LINE_1231_">
		
			<polygon fill="none" stroke="#000000" stroke-width="0.25" stroke-linecap="round" stroke-linejoin="round" stroke-miterlimit="10" points="
			1068.178,215.18 1068.646,215.542 1069.781,215.846 1070.914,215.542 1071.385,215.18 1071.744,214.711 1071.971,214.165 
			1072.049,213.577 1072.049,65.326 1071.971,64.739 1071.744,64.192 1071.385,63.723 1070.914,63.362 1070.4,63.146 
			1069.781,63.058 1068.646,63.362 1068.178,63.723 1067.816,64.192 1067.59,64.739 1067.512,65.326 1067.512,213.577 
			1067.59,214.165 1067.816,214.711 		"/>
	</g>
	<g id="LINE_1233_">
		
			<polygon fill="none" stroke="#000000" stroke-width="0.25" stroke-linecap="round" stroke-linejoin="round" stroke-miterlimit="10" points="
			1091.969,214.165 1092.195,214.711 1092.555,215.18 1093.023,215.542 1094.158,215.846 1095.293,215.542 1095.762,215.18 
			1096.123,214.711 1096.35,214.165 1096.426,213.577 1096.426,65.326 1096.35,64.739 1096.123,64.192 1095.762,63.723 
			1094.926,63.21 1094.158,63.058 1093.023,63.362 1092.555,63.723 1092.195,64.192 1091.969,64.739 1091.891,65.326 
			1091.891,213.577 		"/>
	</g>
	<g id="LINE_1249_">
		
			<polygon fill="none" stroke="#000000" stroke-width="0.25" stroke-linecap="round" stroke-linejoin="round" stroke-miterlimit="10" points="
			604.41,214.165 604.332,213.577 604.332,65.326 604.41,64.739 604.636,64.192 604.997,63.723 605.466,63.362 606.6,63.058 
			607.734,63.362 608.204,63.723 608.564,64.192 608.791,64.739 608.868,65.326 608.868,213.577 608.791,214.165 608.564,214.711 
			608.204,215.18 607.734,215.542 606.6,215.846 605.466,215.542 604.997,215.18 604.636,214.711 		"/>
	</g>
	<g id="LINE_1299_">
		
			<polygon fill="none" stroke="#000000" stroke-width="0.25" stroke-linecap="round" stroke-linejoin="round" stroke-miterlimit="10" points="
			54.892,34.339 55.831,33.618 56.925,33.165 58.099,33.011 59.273,33.165 60.367,33.618 61.306,34.339 62.027,35.278 62.48,36.372 
			62.634,37.546 62.48,38.72 62.027,39.813 61.306,40.753 60.367,41.474 59.273,41.927 58.099,42.082 56.925,41.927 55.831,41.474 
			54.892,40.753 54.171,39.813 53.718,38.72 53.563,37.546 53.718,36.372 54.171,35.278 		"/>
	</g>
	<g id="LINE_1322_">
		
			<polygon fill="none" stroke="#000000" stroke-width="0.25" stroke-linecap="round" stroke-linejoin="round" stroke-miterlimit="10" points="
			1126.801,39.813 1126.348,38.72 1126.193,37.546 1126.348,36.372 1126.801,35.278 1127.521,34.339 1128.461,33.618 
			1129.555,33.165 1130.729,33.011 1131.902,33.165 1132.996,33.618 1133.936,34.339 1134.656,35.278 1135.109,36.372 
			1135.264,37.546 1135.109,38.72 1134.656,39.813 1133.936,40.753 1132.996,41.474 1131.902,41.927 1130.729,42.082 
			1129.555,41.927 1128.461,41.474 1127.521,40.753 		"/>
	</g>
	<g id="LINE_1344_">
		
			<polygon fill="none" stroke="#000000" stroke-width="0.25" stroke-linecap="round" stroke-linejoin="round" stroke-miterlimit="10" points="
			428.149,36.372 428.304,37.546 428.149,38.72 427.696,39.813 426.975,40.753 426.036,41.474 424.942,41.927 423.768,42.082 
			422.594,41.927 421.5,41.474 420.561,40.753 419.84,39.813 419.387,38.72 419.233,37.546 419.387,36.372 419.84,35.278 
			420.561,34.339 421.5,33.618 422.594,33.165 423.768,33.011 424.942,33.165 426.036,33.618 426.975,34.339 427.696,35.278 		"/>
	</g>
	<g id="LINE_1358_">
		
			<polygon fill="none" stroke="#000000" stroke-width="0.25" stroke-linecap="round" stroke-linejoin="round" stroke-miterlimit="10" points="
			787.17,33.618 788.264,33.165 789.438,33.011 790.611,33.165 791.705,33.618 792.645,34.339 793.365,35.278 793.818,36.372 
			793.973,37.546 793.818,38.72 793.365,39.813 792.645,40.753 791.705,41.474 790.611,41.927 789.438,42.082 788.264,41.927 
			787.17,41.474 786.23,40.753 785.51,39.813 785.057,38.72 784.9,37.546 785.057,36.372 785.51,35.278 786.23,34.339 		"/>
	</g>
	<g id="LINE_1365_">
		
			<polygon fill="none" stroke="#000000" stroke-width="0.25" stroke-linecap="round" stroke-linejoin="round" stroke-miterlimit="10" points="
			628.788,64.739 629.014,64.192 629.375,63.723 629.844,63.362 630.978,63.058 632.112,63.362 632.582,63.723 632.942,64.192 
			633.168,64.739 633.246,65.326 633.246,213.577 633.168,214.165 632.942,214.711 632.582,215.18 632.112,215.542 630.978,215.846 
			629.844,215.542 629.375,215.18 629.014,214.711 628.788,214.165 628.71,213.577 628.71,65.326 		"/>
	</g>
	<g id="LINE_1375_">
		
			<polygon fill="none" stroke="#000000" stroke-width="0.25" stroke-linecap="round" stroke-linejoin="round" stroke-miterlimit="10" points="
			657.319,214.711 656.96,215.18 656.489,215.542 655.356,215.846 654.222,215.542 653.753,215.18 653.392,214.711 653.165,214.165 
			653.089,213.577 653.089,65.326 653.165,64.739 653.392,64.192 653.753,63.723 654.222,63.362 655.356,63.058 656.489,63.362 
			656.96,63.723 657.319,64.192 657.546,64.739 657.624,65.326 657.624,213.577 657.546,214.165 		"/>
	</g>
	<g id="LINE_1397_">
		
			<polygon fill="none" stroke="#000000" stroke-width="0.25" stroke-linecap="round" stroke-linejoin="round" stroke-miterlimit="10" points="
			677.544,64.739 677.771,64.192 678.13,63.723 678.601,63.362 679.733,63.058 680.868,63.362 681.337,63.723 681.698,64.192 
			681.925,64.739 682.001,65.326 682.001,213.577 681.925,214.165 681.698,214.711 681.337,215.18 680.868,215.542 679.733,215.846 
			678.601,215.542 678.13,215.18 677.771,214.711 677.544,214.165 677.466,213.577 677.466,65.326 		"/>
	</g>
	<g id="LINE_1419_">
		
			<polygon fill="none" stroke="#000000" stroke-width="0.25" stroke-linecap="round" stroke-linejoin="round" stroke-miterlimit="10" points="
			701.921,64.739 702.147,64.192 702.509,63.723 702.978,63.362 704.112,63.058 705.245,63.362 705.716,63.723 706.075,64.192 
			706.302,64.739 706.38,65.326 706.38,213.577 706.302,214.165 706.075,214.711 705.716,215.18 705.245,215.542 704.112,215.846 
			702.978,215.542 702.509,215.18 702.147,214.711 701.921,214.165 701.845,213.577 701.845,65.326 		"/>
	</g>
	<g id="LINE_1441_">
		
			<polygon fill="none" stroke="#000000" stroke-width="0.25" stroke-linecap="round" stroke-linejoin="round" stroke-miterlimit="10" points="
			726.299,64.739 726.525,64.192 726.885,63.723 727.355,63.362 728.488,63.058 729.623,63.362 730.092,63.723 730.453,64.192 
			730.68,64.739 730.756,65.326 730.756,213.577 730.68,214.165 730.453,214.711 730.092,215.18 729.623,215.542 728.488,215.846 
			727.355,215.542 726.885,215.18 726.525,214.711 726.299,214.165 726.221,213.577 726.221,65.326 		"/>
	</g>
	<g id="LINE_1462_">
		
			<polygon fill="none" stroke="#000000" stroke-width="0.25" stroke-linecap="round" stroke-linejoin="round" stroke-miterlimit="10" points="
			750.676,64.739 750.902,64.192 751.264,63.723 751.732,63.362 752.867,63.058 754,63.362 754.471,63.723 754.83,64.192 
			755.057,64.739 755.135,65.326 755.135,213.577 755.057,214.165 754.83,214.711 754.471,215.18 754,215.542 752.867,215.846 
			751.732,215.542 751.264,215.18 750.902,214.711 750.676,214.165 750.6,213.577 750.6,65.326 		"/>
	</g>
	<g id="LINE_1484_">
		
			<polygon fill="none" stroke="#000000" stroke-width="0.25" stroke-linecap="round" stroke-linejoin="round" stroke-miterlimit="10" points="
			775.055,64.739 775.281,64.192 775.641,63.723 776.111,63.362 777.244,63.058 778.379,63.362 778.848,63.723 779.209,64.192 
			779.436,64.739 779.512,65.326 779.512,213.577 779.436,214.165 779.209,214.711 778.848,215.18 778.379,215.542 777.244,215.846 
			776.111,215.542 775.641,215.18 775.281,214.711 775.055,214.165 774.977,213.577 774.977,65.326 		"/>
	</g>
	<g id="LINE_1501_">
		
			<polygon fill="none" stroke="#000000" stroke-width="0.25" stroke-linecap="round" stroke-linejoin="round" stroke-miterlimit="10" points="
			799.432,64.739 799.658,64.192 800.02,63.723 800.488,63.362 801.623,63.058 802.756,63.362 803.227,63.723 803.586,64.192 
			803.813,64.739 803.891,65.326 803.891,213.577 803.813,214.165 803.586,214.711 803.227,215.18 802.756,215.542 801.623,215.846 
			800.488,215.542 800.02,215.18 799.658,214.711 799.432,214.165 799.355,213.577 799.355,65.326 		"/>
	</g>
	<g id="LINE_1506_">
		
			<polygon fill="none" stroke="#000000" stroke-width="0.25" stroke-linecap="round" stroke-linejoin="round" stroke-miterlimit="10" points="
			995.512,215.542 995.043,215.18 994.682,214.711 994.455,214.165 994.379,213.577 994.379,65.326 994.455,64.739 994.682,64.192 
			995.043,63.723 995.512,63.362 996.646,63.058 997.781,63.362 998.25,63.723 998.609,64.192 998.836,64.739 998.914,65.326 
			998.914,213.577 998.836,214.165 998.609,214.711 998.25,215.18 997.781,215.542 996.646,215.846 		"/>
	</g>
	<g id="LINE_1528_">
		
			<polygon fill="none" stroke="#000000" stroke-width="0.25" stroke-linecap="round" stroke-linejoin="round" stroke-miterlimit="10" points="
			1018.834,64.739 1019.061,64.192 1019.42,63.723 1019.891,63.362 1021.023,63.058 1022.158,63.362 1022.627,63.723 
			1022.988,64.192 1023.215,64.739 1023.293,65.326 1023.293,213.577 1023.215,214.165 1022.988,214.711 1022.627,215.18 
			1022.158,215.542 1021.023,215.846 1019.891,215.542 1019.42,215.18 1019.061,214.711 1018.834,214.165 1018.756,213.577 
			1018.756,65.326 		"/>
	</g>
	<g id="LINE_1542_">
		
			<polygon fill="none" stroke="#000000" stroke-width="0.25" stroke-linecap="round" stroke-linejoin="round" stroke-miterlimit="10" points="
			1043.211,64.739 1043.438,64.192 1043.799,63.723 1044.268,63.362 1045.402,63.058 1046.537,63.362 1047.006,63.723 
			1047.367,64.192 1047.594,64.739 1047.67,65.326 1047.67,213.577 1047.594,214.165 1047.367,214.711 1047.006,215.18 
			1046.537,215.542 1045.402,215.846 1044.783,215.758 1043.799,215.18 1043.438,214.711 1043.211,214.165 1043.135,213.577 
			1043.135,65.326 		"/>
	</g>
	<g id="LINE_6235_">
		
			<polyline fill="none" stroke="#000000" stroke-width="0.25" stroke-linecap="round" stroke-linejoin="round" stroke-miterlimit="10" points="
			596.683,550.902 596.683,341.137 592.148,341.137 592.148,550.902 		"/>
	</g>
	<g id="LINE_6239_">
		
			<polyline fill="none" stroke="#000000" stroke-width="0.25" stroke-linecap="round" stroke-linejoin="round" stroke-miterlimit="10" points="
			621.062,550.902 621.062,341.137 616.527,341.137 616.527,550.902 		"/>
	</g>
	<g id="LINE_6303_">
		
			<polyline fill="none" stroke="#000000" stroke-width="0.25" stroke-linecap="round" stroke-linejoin="round" stroke-miterlimit="10" points="
			645.439,550.902 645.439,341.137 640.904,341.137 640.904,550.902 		"/>
	</g>
	<g id="LINE_6310_">
		
			<polygon fill="none" stroke="#000000" stroke-width="0.25" stroke-linecap="round" stroke-linejoin="round" stroke-miterlimit="10" points="
			74.673,543.287 74.828,542.113 74.673,540.939 74.22,539.846 73.5,538.906 72.56,538.186 71.466,537.732 70.292,537.578 
			69.119,537.732 68.025,538.186 67.085,538.906 66.365,539.846 65.912,540.939 65.757,542.113 65.912,543.287 66.365,544.381 
			67.085,545.32 68.025,546.041 69.119,546.494 70.292,546.648 71.466,546.494 72.56,546.041 73.5,545.32 74.22,544.381 		"/>
	</g>
	<g id="LINE_6311_">
		
			<polygon fill="none" stroke="#000000" stroke-width="0.25" stroke-linecap="round" stroke-linejoin="round" stroke-miterlimit="10" points="
			1139.717,545.32 1140.656,546.041 1141.75,546.494 1142.924,546.648 1144.098,546.494 1145.191,546.041 1146.131,545.32 
			1146.852,544.381 1147.305,543.287 1147.459,542.113 1147.305,540.939 1146.852,539.846 1146.131,538.906 1145.191,538.186 
			1144.098,537.732 1142.924,537.578 1141.75,537.732 1140.656,538.186 1139.717,538.906 1138.996,539.846 1138.543,540.939 
			1138.389,542.113 1138.543,543.287 1138.996,544.381 		"/>
	</g>
	<g id="LINE_6325_">
		
			<polyline fill="none" stroke="#000000" stroke-width="0.25" stroke-linecap="round" stroke-linejoin="round" stroke-miterlimit="10" points="
			66.041,289.831 66.041,305.137 62.355,305.137 62.355,312.507 66.041,312.507 66.041,315.342 74.544,315.342 74.544,312.507 
			78.229,312.507 78.229,305.137 74.544,305.137 74.544,289.831 		"/>
	</g>
	<g id="LINE_6353_">
		
			<polygon fill="none" stroke="#000000" stroke-width="0.25" stroke-linecap="round" stroke-linejoin="round" stroke-miterlimit="10" points="
			797.25,540.939 797.096,542.113 797.25,543.287 797.703,544.381 798.426,545.32 799.363,546.041 800.457,546.494 801.633,546.648 
			802.807,546.494 803.9,546.041 804.84,545.32 805.561,544.381 806.014,543.287 806.168,542.113 806.014,540.939 805.561,539.846 
			804.84,538.906 803.9,538.186 802.807,537.732 801.633,537.578 800.457,537.732 799.363,538.186 798.426,538.906 797.703,539.846 
					"/>
	</g>
	<g id="LINE_6374_">
		
			<polygon fill="none" stroke="#000000" stroke-width="0.25" stroke-linecap="round" stroke-linejoin="round" stroke-miterlimit="10" points="
			249.03,303.476 249.483,304.57 250.204,305.509 251.144,306.23 252.237,306.683 253.411,306.838 254.585,306.683 255.679,306.23 
			256.618,305.509 257.339,304.57 257.792,303.476 257.946,302.302 257.792,301.128 257.339,300.035 256.618,299.095 
			255.679,298.375 254.585,297.921 253.411,297.767 252.237,297.921 251.144,298.375 250.204,299.095 249.483,300.035 
			249.03,301.128 248.875,302.302 		"/>
	</g>
	<g id="LINE_6387_">
		
			<polyline fill="none" stroke="#000000" stroke-width="0.25" stroke-linecap="round" stroke-linejoin="round" stroke-miterlimit="10" points="
			445.88,550.902 445.88,341.137 450.416,341.137 450.416,550.902 		"/>
	</g>
	<g id="LINE_6394_">
		
			<polygon fill="none" stroke="#000000" stroke-width="0.25" stroke-linecap="round" stroke-linejoin="round" stroke-miterlimit="10" points="
			439.169,538.906 438.23,538.186 437.136,537.732 435.962,537.578 434.789,537.732 433.695,538.186 432.755,538.906 
			432.035,539.846 431.582,540.939 431.427,542.113 431.582,543.287 432.035,544.381 432.755,545.32 433.695,546.041 
			434.789,546.494 435.962,546.648 437.136,546.494 438.23,546.041 439.169,545.32 439.89,544.381 440.343,543.287 440.498,542.113 
			440.343,540.939 439.89,539.846 		"/>
	</g>
	<g id="LINE_6406_">
		
			<polygon fill="none" stroke="#000000" stroke-width="0.25" stroke-linecap="round" stroke-linejoin="round" stroke-miterlimit="10" points="
			615.152,304.57 615.873,305.509 616.812,306.23 617.906,306.683 619.08,306.838 620.253,306.683 621.347,306.23 622.287,305.509 
			623.007,304.57 623.46,303.476 623.615,302.302 623.46,301.128 623.007,300.035 622.287,299.095 621.347,298.375 620.253,297.921 
			619.08,297.767 617.906,297.921 616.812,298.375 615.873,299.095 615.152,300.035 614.699,301.128 614.544,302.302 
			614.699,303.476 		"/>
	</g>
	<g id="LINE_6421_">
		
			<polyline fill="none" stroke="#000000" stroke-width="0.25" stroke-linecap="round" stroke-linejoin="round" stroke-miterlimit="10" points="
			440.214,289.831 440.214,305.137 443.9,305.137 443.9,312.507 440.214,312.507 440.214,315.342 431.71,315.342 431.71,312.507 
			428.025,312.507 428.025,305.137 431.71,305.137 431.71,289.831 		"/>
	</g>
	<g id="LINE_6429_">
		
			<polyline fill="none" stroke="#000000" stroke-width="0.25" stroke-linecap="round" stroke-linejoin="round" stroke-miterlimit="10" points="
			805.885,289.831 805.885,305.137 809.568,305.137 809.568,312.507 805.885,312.507 805.885,315.342 797.379,315.342 
			797.379,312.507 793.695,312.507 793.695,305.137 797.379,305.137 797.379,289.831 		"/>
	</g>
	<g id="LINE_6439_">
		
			<polyline fill="none" stroke="#000000" stroke-width="0.25" stroke-linecap="round" stroke-linejoin="round" stroke-miterlimit="10" points="
			1147.176,289.831 1147.176,305.137 1150.859,305.137 1150.859,312.507 1147.176,312.507 1147.176,315.342 1138.672,315.342 
			1138.672,312.507 1134.986,312.507 1134.986,305.137 1138.672,305.137 1138.672,289.831 		"/>
	</g>
	<g id="LINE_6443_">
		
			<polyline fill="none" stroke="#000000" stroke-width="0.25" stroke-linecap="round" stroke-linejoin="round" stroke-miterlimit="10" points="
			1152.842,550.902 1152.842,341.137 1157.377,341.137 1157.377,550.902 		"/>
	</g>
	<g id="LINE_6447_">
		
			<polyline fill="none" stroke="#000000" stroke-width="0.25" stroke-linecap="round" stroke-linejoin="round" stroke-miterlimit="10" points="
			1128.463,550.902 1128.463,341.137 1133,341.137 1133,550.902 		"/>
	</g>
	<g id="LINE_6451_">
		
			<polyline fill="none" stroke="#000000" stroke-width="0.25" stroke-linecap="round" stroke-linejoin="round" stroke-miterlimit="10" points="
			1104.086,550.902 1104.086,341.137 1108.621,341.137 1108.621,550.902 		"/>
	</g>
	<g id="LINE_6455_">
		
			<polyline fill="none" stroke="#000000" stroke-width="0.25" stroke-linecap="round" stroke-linejoin="round" stroke-miterlimit="10" points="
			1079.707,550.902 1079.707,341.137 1084.242,341.137 1084.242,550.902 		"/>
	</g>
	<g id="LINE_6459_">
		
			<polyline fill="none" stroke="#000000" stroke-width="0.25" stroke-linecap="round" stroke-linejoin="round" stroke-miterlimit="10" points="
			1055.33,550.902 1055.33,341.137 1059.865,341.137 1059.865,550.902 		"/>
	</g>
	<g id="LINE_6463_">
		
			<polyline fill="none" stroke="#000000" stroke-width="0.25" stroke-linecap="round" stroke-linejoin="round" stroke-miterlimit="10" points="
			1030.951,550.902 1030.951,341.137 1035.486,341.137 1035.486,550.902 		"/>
	</g>
	<g id="LINE_6467_">
		
			<polyline fill="none" stroke="#000000" stroke-width="0.25" stroke-linecap="round" stroke-linejoin="round" stroke-miterlimit="10" points="
			1006.574,550.902 1006.574,341.137 1011.109,341.137 1011.109,550.902 		"/>
	</g>
	<g id="LINE_6471_">
		
			<polyline fill="none" stroke="#000000" stroke-width="0.25" stroke-linecap="round" stroke-linejoin="round" stroke-miterlimit="10" points="
			982.195,550.902 982.195,341.137 986.73,341.137 986.73,550.902 		"/>
	</g>
	<g id="LINE_6475_">
		
			<polyline fill="none" stroke="#000000" stroke-width="0.25" stroke-linecap="round" stroke-linejoin="round" stroke-miterlimit="10" points="
			957.818,550.902 957.818,341.137 962.354,341.137 962.354,550.902 		"/>
	</g>
	<g id="LINE_6479_">
		
			<polyline fill="none" stroke="#000000" stroke-width="0.25" stroke-linecap="round" stroke-linejoin="round" stroke-miterlimit="10" points="
			933.439,550.902 933.439,341.137 937.975,341.137 937.975,550.902 		"/>
	</g>
	<g id="LINE_6483_">
		
			<polyline fill="none" stroke="#000000" stroke-width="0.25" stroke-linecap="round" stroke-linejoin="round" stroke-miterlimit="10" points="
			909.063,550.902 909.063,341.137 913.598,341.137 913.598,550.902 		"/>
	</g>
	<g id="LINE_6487_">
		
			<polyline fill="none" stroke="#000000" stroke-width="0.25" stroke-linecap="round" stroke-linejoin="round" stroke-miterlimit="10" points="
			884.684,550.902 884.684,341.137 889.219,341.137 889.219,550.902 		"/>
	</g>
	<g id="LINE_6491_">
		
			<polyline fill="none" stroke="#000000" stroke-width="0.25" stroke-linecap="round" stroke-linejoin="round" stroke-miterlimit="10" points="
			860.307,550.902 860.307,341.137 864.842,341.137 864.842,550.902 		"/>
	</g>
	<g id="LINE_6495_">
		
			<polyline fill="none" stroke="#000000" stroke-width="0.25" stroke-linecap="round" stroke-linejoin="round" stroke-miterlimit="10" points="
			835.928,550.902 835.928,341.137 840.463,341.137 840.463,550.902 		"/>
	</g>
	<g id="LINE_6499_">
		
			<polyline fill="none" stroke="#000000" stroke-width="0.25" stroke-linecap="round" stroke-linejoin="round" stroke-miterlimit="10" points="
			811.551,550.902 811.551,341.137 816.086,341.137 816.086,550.902 		"/>
	</g>
	<g id="LINE_6503_">
		
			<polyline fill="none" stroke="#000000" stroke-width="0.25" stroke-linecap="round" stroke-linejoin="round" stroke-miterlimit="10" points="
			787.172,550.902 787.172,341.137 791.707,341.137 791.707,550.902 		"/>
	</g>
	<g id="LINE_6507_">
		
			<polyline fill="none" stroke="#000000" stroke-width="0.25" stroke-linecap="round" stroke-linejoin="round" stroke-miterlimit="10" points="
			762.795,550.902 762.795,341.137 767.33,341.137 767.33,550.902 		"/>
	</g>
	<g id="LINE_6511_">
		
			<polyline fill="none" stroke="#000000" stroke-width="0.25" stroke-linecap="round" stroke-linejoin="round" stroke-miterlimit="10" points="
			738.416,550.902 738.416,341.137 742.951,341.137 742.951,550.902 		"/>
	</g>
	<g id="LINE_6515_">
		
			<polyline fill="none" stroke="#000000" stroke-width="0.25" stroke-linecap="round" stroke-linejoin="round" stroke-miterlimit="10" points="
			714.039,550.902 714.039,341.137 718.574,341.137 718.574,550.902 		"/>
	</g>
	<g id="LINE_6519_">
		
			<polyline fill="none" stroke="#000000" stroke-width="0.25" stroke-linecap="round" stroke-linejoin="round" stroke-miterlimit="10" points="
			689.66,550.902 689.66,341.137 694.195,341.137 694.195,550.902 		"/>
	</g>
	<g id="LINE_6523_">
		
			<polyline fill="none" stroke="#000000" stroke-width="0.25" stroke-linecap="round" stroke-linejoin="round" stroke-miterlimit="10" points="
			665.283,550.902 665.283,341.137 669.818,341.137 669.818,550.902 		"/>
	</g>
	<g id="LINE_6526_">
		
			<polyline fill="none" stroke="#000000" stroke-width="0.25" stroke-linecap="round" stroke-linejoin="round" stroke-miterlimit="10" points="
			567.771,550.902 567.771,341.137 572.306,341.137 572.306,550.902 		"/>
	</g>
	<g id="LINE_6530_">
		
			<polyline fill="none" stroke="#000000" stroke-width="0.25" stroke-linecap="round" stroke-linejoin="round" stroke-miterlimit="10" points="
			543.392,550.902 543.392,341.137 547.927,341.137 547.927,550.902 		"/>
	</g>
	<g id="LINE_6534_">
		
			<polyline fill="none" stroke="#000000" stroke-width="0.25" stroke-linecap="round" stroke-linejoin="round" stroke-miterlimit="10" points="
			519.015,550.902 519.015,341.137 523.55,341.137 523.55,550.902 		"/>
	</g>
	<g id="LINE_6538_">
		
			<polyline fill="none" stroke="#000000" stroke-width="0.25" stroke-linecap="round" stroke-linejoin="round" stroke-miterlimit="10" points="
			494.636,550.902 494.636,341.137 499.171,341.137 499.171,550.902 		"/>
	</g>
	<g id="LINE_6542_">
		
			<polyline fill="none" stroke="#000000" stroke-width="0.25" stroke-linecap="round" stroke-linejoin="round" stroke-miterlimit="10" points="
			470.259,550.902 470.259,341.137 474.794,341.137 474.794,550.902 		"/>
	</g>
	<g id="LINE_6566_">
		
			<polygon fill="none" stroke="#000000" stroke-width="0.25" stroke-linecap="round" stroke-linejoin="round" stroke-miterlimit="10" points="
			980.822,304.57 980.369,303.476 980.215,302.302 980.369,301.128 980.822,300.035 981.543,299.095 982.482,298.375 
			983.576,297.921 984.75,297.767 985.924,297.921 987.018,298.375 987.957,299.095 988.678,300.035 989.131,301.128 
			989.285,302.302 989.131,303.476 988.678,304.57 987.957,305.509 987.018,306.23 985.924,306.683 984.75,306.838 983.576,306.683 
			982.482,306.23 981.543,305.509 		"/>
	</g>
	<g id="LINE_6590_">
		
			<polygon fill="none" stroke="#000000" stroke-width="0.25" stroke-linecap="round" stroke-linejoin="round" stroke-miterlimit="10" points="
			33.966,353.21 34.642,352.33 35.522,351.654 36.547,351.229 37.648,351.083 38.749,351.229 39.774,351.654 40.655,352.33 
			41.33,353.21 41.755,354.236 41.9,355.335 41.755,356.437 41.33,357.462 40.655,358.342 39.774,359.018 38.749,359.443 
			37.648,359.587 36.547,359.443 35.522,359.018 34.642,358.343 33.966,357.462 33.541,356.437 33.396,355.335 33.541,354.236 		"/>
	</g>
	<g id="LINE_5883_">
		
			<polyline fill="none" stroke="#000000" stroke-width="0.25" stroke-linecap="round" stroke-linejoin="round" stroke-miterlimit="10" points="
			620.421,811.973 620.419,602.208 615.884,602.208 615.886,811.973 		"/>
	</g>
	<g id="LINE_5887_">
		
			<polyline fill="none" stroke="#000000" stroke-width="0.25" stroke-linecap="round" stroke-linejoin="round" stroke-miterlimit="10" points="
			644.798,811.973 644.796,602.208 640.261,602.208 640.263,811.973 		"/>
	</g>
	<g id="LINE_5891_">
		
			<polyline fill="none" stroke="#000000" stroke-width="0.25" stroke-linecap="round" stroke-linejoin="round" stroke-miterlimit="10" points="
			669.177,811.973 669.175,602.208 664.64,602.208 664.642,811.973 		"/>
	</g>
	<g id="LINE_5895_">
		
			<polyline fill="none" stroke="#000000" stroke-width="0.25" stroke-linecap="round" stroke-linejoin="round" stroke-miterlimit="10" points="
			693.554,811.973 693.552,602.208 689.017,602.208 689.019,811.973 		"/>
	</g>
	<g id="LINE_5899_">
		
			<polyline fill="none" stroke="#000000" stroke-width="0.25" stroke-linecap="round" stroke-linejoin="round" stroke-miterlimit="10" points="
			717.933,811.973 717.931,602.208 713.396,602.208 713.397,811.973 		"/>
	</g>
	<g id="LINE_5904_">
		
			<polyline fill="none" stroke="#000000" stroke-width="0.25" stroke-linecap="round" stroke-linejoin="round" stroke-miterlimit="10" points="
			254.751,811.973 254.749,602.208 250.214,602.208 250.216,811.973 		"/>
	</g>
	<g id="LINE_5907_">
		
			<polyline fill="none" stroke="#000000" stroke-width="0.25" stroke-linecap="round" stroke-linejoin="round" stroke-miterlimit="10" points="
			279.13,811.973 279.128,602.208 274.591,602.208 274.595,811.973 		"/>
	</g>
	<g id="LINE_5911_">
		
			<polyline fill="none" stroke="#000000" stroke-width="0.25" stroke-linecap="round" stroke-linejoin="round" stroke-miterlimit="10" points="
			205.995,811.973 205.993,602.208 201.458,602.208 201.46,811.973 		"/>
	</g>
	<g id="LINE_5912_">
		
			<polyline fill="none" stroke="#000000" stroke-width="0.25" stroke-linecap="round" stroke-linejoin="round" stroke-miterlimit="10" points="
			225.839,811.973 225.835,602.208 230.372,602.208 230.374,811.973 		"/>
	</g>
	<g id="LINE_5914_">
		
			<polyline fill="none" stroke="#000000" stroke-width="0.25" stroke-linecap="round" stroke-linejoin="round" stroke-miterlimit="10" points="
			181.618,811.973 181.616,602.208 177.079,602.208 177.083,811.973 		"/>
	</g>
	<g id="LINE_5935_">
		
			<polyline fill="none" stroke="#000000" stroke-width="0.25" stroke-linecap="round" stroke-linejoin="round" stroke-miterlimit="10" points="
			1113.644,550.901 1113.644,566.208 1109.958,566.208 1109.958,573.578 1113.644,573.578 1113.644,576.413 1122.147,576.413 
			1122.147,573.578 1125.833,573.578 1125.833,566.208 1122.147,566.208 1122.147,550.901 		"/>
	</g>
	<g id="LINE_5940_">
		
			<polyline fill="none" stroke="#000000" stroke-width="0.25" stroke-linecap="round" stroke-linejoin="round" stroke-miterlimit="10" points="
			157.239,811.973 157.237,602.208 152.702,602.208 152.704,811.973 		"/>
	</g>
	<g id="LINE_5943_">
		
			<polyline fill="none" stroke="#000000" stroke-width="0.25" stroke-linecap="round" stroke-linejoin="round" stroke-miterlimit="10" points="
			84.105,811.973 84.104,602.208 79.568,602.208 79.57,811.973 		"/>
	</g>
	<g id="LINE_5946_">
		
			<polyline fill="none" stroke="#000000" stroke-width="0.25" stroke-linecap="round" stroke-linejoin="round" stroke-miterlimit="10" points="
			108.484,811.973 108.48,602.208 103.945,602.208 103.947,811.973 		"/>
	</g>
	<g id="LINE_5949_">
		
			<polyline fill="none" stroke="#000000" stroke-width="0.25" stroke-linecap="round" stroke-linejoin="round" stroke-miterlimit="10" points="
			132.862,811.973 132.858,602.208 128.324,602.208 128.326,811.973 		"/>
	</g>
	<g id="LINE_5954_">
		
			<polyline fill="none" stroke="#000000" stroke-width="0.25" stroke-linecap="round" stroke-linejoin="round" stroke-miterlimit="10" points="
			747.974,550.901 747.974,566.208 744.29,566.208 744.29,573.578 747.974,573.578 747.974,576.413 756.478,576.413 
			756.478,573.578 760.163,573.578 760.163,566.208 756.478,566.208 756.478,550.901 		"/>
	</g>
	<g id="LINE_5965_">
		
			<polyline fill="none" stroke="#000000" stroke-width="0.25" stroke-linecap="round" stroke-linejoin="round" stroke-miterlimit="10" points="
			382.306,550.901 382.306,566.208 378.62,566.208 378.62,573.578 382.306,573.578 382.306,576.413 390.81,576.413 390.81,573.578 
			394.495,573.578 394.495,566.208 390.81,566.208 390.81,550.901 		"/>
	</g>
	<g id="LINE_5966_">
		
			<line fill="none" stroke="#000000" stroke-width="0.25" stroke-linecap="round" stroke-linejoin="round" stroke-miterlimit="10" x1="49.518" y1="550.901" x2="49.518" y2="566.208"/>
	</g>
	<g id="LINE_5967_">
		
			<line fill="none" stroke="#000000" stroke-width="0.25" stroke-linecap="round" stroke-linejoin="round" stroke-miterlimit="10" x1="53.203" y1="566.208" x2="49.518" y2="566.208"/>
	</g>
	<g id="LINE_5968_">
		
			<line fill="none" stroke="#000000" stroke-width="0.25" stroke-linecap="round" stroke-linejoin="round" stroke-miterlimit="10" x1="53.203" y1="573.578" x2="53.203" y2="566.208"/>
	</g>
	<g id="LINE_5969_">
		
			<line fill="none" stroke="#000000" stroke-width="0.25" stroke-linecap="round" stroke-linejoin="round" stroke-miterlimit="10" x1="53.203" y1="573.578" x2="49.518" y2="573.578"/>
	</g>
	<g id="LINE_5970_">
		
			<line fill="none" stroke="#000000" stroke-width="0.25" stroke-linecap="round" stroke-linejoin="round" stroke-miterlimit="10" x1="49.518" y1="576.413" x2="49.518" y2="573.578"/>
	</g>
	<g id="LINE_5971_">
		
			<line fill="none" stroke="#000000" stroke-width="0.25" stroke-linecap="round" stroke-linejoin="round" stroke-miterlimit="10" x1="41.014" y1="576.413" x2="49.518" y2="576.413"/>
	</g>
	<g id="LINE_5972_">
		
			<line fill="none" stroke="#000000" stroke-width="0.25" stroke-linecap="round" stroke-linejoin="round" stroke-miterlimit="10" x1="41.014" y1="576.413" x2="41.014" y2="573.578"/>
	</g>
	<g id="LINE_5973_">
		
			<line fill="none" stroke="#000000" stroke-width="0.25" stroke-linecap="round" stroke-linejoin="round" stroke-miterlimit="10" x1="41.014" y1="573.578" x2="37.328" y2="573.578"/>
	</g>
	<g id="LINE_5974_">
		
			<line fill="none" stroke="#000000" stroke-width="0.25" stroke-linecap="round" stroke-linejoin="round" stroke-miterlimit="10" x1="37.328" y1="566.208" x2="37.328" y2="573.578"/>
	</g>
	<g id="LINE_5975_">
		
			<line fill="none" stroke="#000000" stroke-width="0.25" stroke-linecap="round" stroke-linejoin="round" stroke-miterlimit="10" x1="37.328" y1="566.208" x2="41.014" y2="566.208"/>
	</g>
	<g id="LINE_5976_">
		
			<line fill="none" stroke="#000000" stroke-width="0.25" stroke-linecap="round" stroke-linejoin="round" stroke-miterlimit="10" x1="41.014" y1="550.901" x2="41.014" y2="566.208"/>
	</g>
	<g id="LINE_6000_">
		
			<polygon fill="none" stroke="#000000" stroke-width="0.25" stroke-linecap="round" stroke-linejoin="round" stroke-miterlimit="10" points="
			42.059,806.392 42.998,807.112 44.092,807.565 45.266,807.72 46.439,807.565 47.533,807.112 48.473,806.392 49.193,805.452 
			49.646,804.358 49.801,803.185 49.646,802.011 49.193,800.917 48.473,799.978 47.533,799.257 46.439,798.804 45.266,798.648 
			44.092,798.804 42.998,799.257 42.059,799.978 41.338,800.917 40.885,802.011 40.73,803.185 40.885,804.358 41.338,805.452 		"/>
	</g>
	<g id="LINE_6024_">
		
			<polygon fill="none" stroke="#000000" stroke-width="0.25" stroke-linecap="round" stroke-linejoin="round" stroke-miterlimit="10" points="
			749.019,799.978 748.298,800.917 747.845,802.011 747.69,803.185 747.845,804.358 748.298,805.452 749.019,806.392 
			749.958,807.112 751.052,807.565 752.226,807.72 753.401,807.565 754.495,807.112 755.433,806.392 756.155,805.452 
			756.608,804.358 756.763,803.185 756.608,802.011 756.155,800.917 755.433,799.978 754.495,799.257 753.401,798.804 
			752.226,798.648 751.052,798.804 749.958,799.257 		"/>
	</g>
	<g id="LINE_6040_">
		
			<polyline fill="none" stroke="#000000" stroke-width="0.25" stroke-linecap="round" stroke-linejoin="round" stroke-miterlimit="10" points="
			35.35,811.973 35.348,602.208 30.813,602.208 30.814,811.973 		"/>
	</g>
	<g id="LINE_6043_">
		
			<polyline fill="none" stroke="#000000" stroke-width="0.25" stroke-linecap="round" stroke-linejoin="round" stroke-miterlimit="10" points="
			59.729,811.973 59.725,602.208 55.189,602.208 55.191,811.973 		"/>
	</g>
	<g id="LINE_6046_">
		
			<polyline fill="none" stroke="#000000" stroke-width="0.25" stroke-linecap="round" stroke-linejoin="round" stroke-miterlimit="10" points="
			522.909,811.973 522.907,602.208 518.372,602.208 518.374,811.973 		"/>
	</g>
	<g id="LINE_6050_">
		
			<polyline fill="none" stroke="#000000" stroke-width="0.25" stroke-linecap="round" stroke-linejoin="round" stroke-miterlimit="10" points="
			547.286,811.973 547.284,602.208 542.749,602.208 542.751,811.973 		"/>
	</g>
	<g id="LINE_6054_">
		
			<polyline fill="none" stroke="#000000" stroke-width="0.25" stroke-linecap="round" stroke-linejoin="round" stroke-miterlimit="10" points="
			571.665,811.973 571.663,602.208 567.128,602.208 567.13,811.973 		"/>
	</g>
	<g id="LINE_6056_">
		
			<polyline fill="none" stroke="#000000" stroke-width="0.25" stroke-linecap="round" stroke-linejoin="round" stroke-miterlimit="10" points="
			591.507,811.973 591.505,602.208 596.04,602.208 596.042,811.973 		"/>
	</g>
	<g id="LINE_6059_">
		
			<polyline fill="none" stroke="#000000" stroke-width="0.25" stroke-linecap="round" stroke-linejoin="round" stroke-miterlimit="10" points="
			303.507,811.973 303.505,602.208 298.97,602.208 298.972,811.973 		"/>
	</g>
	<g id="LINE_6063_">
		
			<polyline fill="none" stroke="#000000" stroke-width="0.25" stroke-linecap="round" stroke-linejoin="round" stroke-miterlimit="10" points="
			327.886,811.973 327.884,602.208 323.347,602.208 323.351,811.973 		"/>
	</g>
	<g id="LINE_6067_">
		
			<polyline fill="none" stroke="#000000" stroke-width="0.25" stroke-linecap="round" stroke-linejoin="round" stroke-miterlimit="10" points="
			352.263,811.973 352.261,602.208 347.726,602.208 347.728,811.973 		"/>
	</g>
	<g id="LINE_6071_">
		
			<polyline fill="none" stroke="#000000" stroke-width="0.25" stroke-linecap="round" stroke-linejoin="round" stroke-miterlimit="10" points="
			376.642,811.973 376.64,602.208 372.103,602.208 372.106,811.973 		"/>
	</g>
	<g id="LINE_6075_">
		
			<polyline fill="none" stroke="#000000" stroke-width="0.25" stroke-linecap="round" stroke-linejoin="round" stroke-miterlimit="10" points="
			401.019,811.973 401.017,602.208 396.481,602.208 396.483,811.973 		"/>
	</g>
	<g id="LINE_6079_">
		
			<polyline fill="none" stroke="#000000" stroke-width="0.25" stroke-linecap="round" stroke-linejoin="round" stroke-miterlimit="10" points="
			425.397,811.973 425.396,602.208 420.858,602.208 420.862,811.973 		"/>
	</g>
	<g id="LINE_6083_">
		
			<polyline fill="none" stroke="#000000" stroke-width="0.25" stroke-linecap="round" stroke-linejoin="round" stroke-miterlimit="10" points="
			449.774,811.973 449.772,602.208 445.237,602.208 445.239,811.973 		"/>
	</g>
	<g id="LINE_6087_">
		
			<polyline fill="none" stroke="#000000" stroke-width="0.25" stroke-linecap="round" stroke-linejoin="round" stroke-miterlimit="10" points="
			474.153,811.973 474.151,602.208 469.616,602.208 469.618,811.973 		"/>
	</g>
	<g id="LINE_6091_">
		
			<polyline fill="none" stroke="#000000" stroke-width="0.25" stroke-linecap="round" stroke-linejoin="round" stroke-miterlimit="10" points="
			498.53,811.973 498.528,602.208 493.993,602.208 493.995,811.973 		"/>
	</g>
	<g id="LINE_6103_">
		
			<polygon fill="none" stroke="#000000" stroke-width="0.25" stroke-linecap="round" stroke-linejoin="round" stroke-miterlimit="10" points="
			930.243,563.373 930.397,564.547 930.851,565.641 931.571,566.58 932.511,567.301 933.604,567.754 934.778,567.909 
			935.952,567.754 937.046,567.301 937.985,566.58 938.706,565.641 939.159,564.547 939.313,563.373 939.159,562.199 
			938.706,561.105 937.985,560.166 937.046,559.445 935.952,558.992 934.778,558.838 933.604,558.992 932.511,559.445 
			931.571,560.166 930.851,561.105 930.397,562.199 		"/>
	</g>
	<g id="LINE_6127_">
		
			<polygon fill="none" stroke="#000000" stroke-width="0.25" stroke-linecap="round" stroke-linejoin="round" stroke-miterlimit="10" points="
			1122.276,802.011 1121.823,800.917 1121.103,799.978 1120.163,799.257 1119.069,798.804 1117.896,798.648 1116.722,798.804 
			1115.628,799.257 1114.688,799.978 1113.968,800.917 1113.515,802.011 1113.36,803.185 1113.515,804.358 1113.968,805.452 
			1114.688,806.392 1115.628,807.112 1116.722,807.565 1117.896,807.72 1119.069,807.565 1120.163,807.112 1121.103,806.392 
			1121.823,805.452 1122.276,804.358 1122.431,803.185 		"/>
	</g>
	<g id="LINE_6151_">
		
			<polygon fill="none" stroke="#000000" stroke-width="0.25" stroke-linecap="round" stroke-linejoin="round" stroke-miterlimit="10" points="
			565.901,566.58 566.841,567.301 567.935,567.754 569.108,567.909 570.282,567.754 571.376,567.301 572.315,566.58 
			573.036,565.641 573.489,564.547 573.644,563.373 573.489,562.199 573.036,561.105 572.315,560.166 571.376,559.445 
			570.282,558.992 569.108,558.838 567.935,558.992 566.841,559.445 565.901,560.166 565.181,561.105 564.728,562.199 
			564.573,563.373 564.728,564.547 565.181,565.641 		"/>
	</g>
	<g id="LINE_6175_">
		
			<polygon fill="none" stroke="#000000" stroke-width="0.25" stroke-linecap="round" stroke-linejoin="round" stroke-miterlimit="10" points="
			390.938,804.358 391.093,803.185 390.938,802.011 390.485,800.917 389.765,799.978 388.825,799.257 387.731,798.804 
			386.558,798.648 385.384,798.804 384.29,799.257 383.351,799.978 382.63,800.917 382.177,802.011 382.022,803.185 
			382.177,804.358 382.63,805.452 383.351,806.392 384.29,807.112 385.384,807.565 386.558,807.72 387.731,807.565 388.825,807.112 
			389.765,806.392 390.485,805.452 		"/>
	</g>
	<g id="LINE_6199_">
		
			<polygon fill="none" stroke="#000000" stroke-width="0.25" stroke-linecap="round" stroke-linejoin="round" stroke-miterlimit="10" points="
			200.231,560.166 199.511,561.105 199.058,562.199 198.903,563.373 199.058,564.547 199.511,565.641 200.231,566.58 
			201.171,567.301 202.265,567.754 203.438,567.909 204.612,567.754 205.706,567.301 206.646,566.58 207.366,565.641 
			207.819,564.547 207.974,563.373 207.819,562.199 207.366,561.105 206.646,560.166 205.706,559.445 204.612,558.992 
			203.438,558.838 202.265,558.992 201.171,559.445 		"/>
	</g>
	<g id="LINE_6223_">
		
			<polygon fill="none" stroke="#000000" stroke-width="0.25" stroke-linecap="round" stroke-linejoin="round" stroke-miterlimit="10" points="
			1123.21,613.4 1124.091,612.725 1125.116,612.3 1126.216,612.154 1127.317,612.3 1128.343,612.725 1129.222,613.4 
			1129.897,614.281 1130.323,615.307 1130.468,616.406 1130.323,617.508 1129.897,618.533 1129.222,619.414 1128.343,620.09 
			1127.317,620.514 1126.216,620.658 1125.116,620.514 1124.091,620.09 1123.21,619.414 1122.534,618.533 1122.108,617.508 
			1121.964,616.406 1122.108,615.307 1122.534,614.281 		"/>
	</g>
	<g id="LINE_6601_">
		
			<polyline fill="none" stroke="#000000" stroke-width="0.25" stroke-linecap="round" stroke-linejoin="round" stroke-miterlimit="10" points="
			742.31,811.973 742.308,602.208 737.772,602.208 737.774,811.973 		"/>
	</g>
	<g id="LINE_6602_">
		
			<polyline fill="none" stroke="#000000" stroke-width="0.25" stroke-linecap="round" stroke-linejoin="round" stroke-miterlimit="10" points="
			1142.556,550.901 1142.556,811.973 21.891,811.973 21.889,550.901 21.891,550.901 21.253,550.902 21.251,289.831 
			1167.299,289.831 1167.301,550.902 21.251,550.902 21.251,289.831 21.251,28.759 1155.105,28.759 1155.105,289.831 		"/>
	</g>
</g>
</svg>
